PostNoBills-ExtraBold.ufo
<glyph name="quotedbl" format="1">
  <advance width="392"/>
  <unicode hex="0022"/>
  <outline>
    <contour>
      <point x="43" y="465" type="line"/>
      <point x="43" y="736" type="line"/>
      <point x="170" y="736" type="line"/>
      <point x="170" y="465" type="line"/>
    </contour>
    <contour>
      <point x="223" y="465" type="line"/>
      <point x="223" y="736" type="line"/>
      <point x="350" y="736" type="line"/>
      <point x="350" y="465" type="line"/>
    </contour>
  </outline>
</glyph>
<glyph name="ampersand" format="1">
  <advance width="658"/>
  <unicode hex="0026"/>
  <outline>
    <contour>
      <point x="287" y="154" type="line"/>
      <point x="272" y="142"/>
      <point x="257" y="138"/>
      <point x="242" y="138" type="curve" smooth="yes"/>
      <point x="203" y="138"/>
      <point x="171" y="171"/>
      <point x="171" y="209" type="curve" smooth="yes"/>
      <point x="171" y="227"/>
      <point x="178" y="246"/>
      <point x="197" y="262" type="curve"/>
      <point x="104" y="371" type="line"/>
      <point x="59" y="332"/>
      <point x="30" y="276"/>
      <point x="30" y="213" type="curve" smooth="yes"/>
      <point x="30" y="95"/>
      <point x="126" y="0"/>
      <point x="244" y="0" type="curve" smooth="yes"/>
      <point x="295" y="0"/>
      <point x="341" y="18"/>
      <point x="378" y="47" type="curve"/>
    </contour>
    <contour>
      <point x="343" y="526" type="line" smooth="yes"/>
      <point x="343" y="539"/>
      <point x="338" y="566"/>
      <point x="314" y="575" type="curve"/>
      <point x="314" y="706" type="line"/>
      <point x="392" y="696"/>
      <point x="453" y="636"/>
      <point x="468" y="559" type="curve"/>
    </contour>
    <contour>
      <point x="259" y="575" type="line" smooth="yes"/>
      <point x="245" y="572"/>
      <point x="231" y="555"/>
      <point x="231" y="533" type="curve" smooth="yes"/>
      <point x="231" y="511"/>
      <point x="242" y="495"/>
      <point x="255" y="478" type="curve"/>
      <point x="414" y="287" type="line"/>
      <point x="424" y="300"/>
      <point x="435" y="321"/>
      <point x="438" y="345" type="curve"/>
      <point x="581" y="345" type="line"/>
      <point x="572" y="271"/>
      <point x="549" y="223"/>
      <point x="513" y="174" type="curve"/>
      <point x="628" y="37" type="line"/>
      <point x="487" y="0" type="line"/>
      <point x="156" y="393" type="line"/>
      <point x="115" y="446"/>
      <point x="102" y="482"/>
      <point x="102" y="532" type="curve" smooth="yes"/>
      <point x="102" y="621"/>
      <point x="168" y="694"/>
      <point x="259" y="706" type="curve"/>
    </contour>
  </outline>
</glyph>
<glyph name="plus" format="1">
  <advance width="405"/>
  <unicode hex="002B"/>
  <outline>
    <contour>
      <point x="15" y="230" type="line"/>
      <point x="15" y="357" type="line"/>
      <point x="138" y="357" type="line"/>
      <point x="138" y="498" type="line"/>
      <point x="265" y="498" type="line"/>
      <point x="265" y="357" type="line"/>
      <point x="390" y="357" type="line"/>
      <point x="390" y="230" type="line"/>
      <point x="265" y="230" type="line"/>
      <point x="265" y="87" type="line"/>
      <point x="138" y="87" type="line"/>
      <point x="138" y="230" type="line"/>
    </contour>
  </outline>
</glyph>
<glyph name="zero" format="1">
  <advance width="499"/>
  <unicode hex="0030"/>
  <outline>
    <contour>
      <point x="222" y="0" type="line"/>
      <point x="136" y="0"/>
      <point x="30" y="57"/>
      <point x="30" y="350" type="curve" smooth="yes"/>
      <point x="30" y="643"/>
      <point x="136" y="700"/>
      <point x="222" y="700" type="curve"/>
      <point x="222" y="566" type="line"/>
      <point x="167" y="553"/>
      <point x="165" y="452"/>
      <point x="165" y="361" type="curve" smooth="yes"/>
      <point x="165" y="339" type="line" smooth="yes"/>
      <point x="165" y="248"/>
      <point x="167" y="147"/>
      <point x="222" y="134" type="curve"/>
    </contour>
    <contour>
      <point x="277" y="0" type="curve"/>
      <point x="277" y="134" type="line"/>
      <point x="332" y="147"/>
      <point x="334" y="248"/>
      <point x="334" y="339" type="curve" smooth="yes"/>
      <point x="334" y="361" type="line" smooth="yes"/>
      <point x="334" y="452"/>
      <point x="332" y="553"/>
      <point x="277" y="566" type="curve"/>
      <point x="277" y="700" type="line"/>
      <point x="363" y="700"/>
      <point x="469" y="643"/>
      <point x="469" y="350" type="curve" smooth="yes"/>
      <point x="469" y="57"/>
      <point x="363" y="0"/>
    </contour>
  </outline>
</glyph>
<glyph name="three" format="1">
  <advance width="502"/>
  <unicode hex="0033"/>
  <outline>
    <contour>
      <point x="268" y="0" type="curve"/>
      <point x="268" y="130" type="line"/>
      <point x="301" y="133"/>
      <point x="342" y="150"/>
      <point x="342" y="200" type="curve" smooth="yes"/>
      <point x="342" y="248"/>
      <point x="321" y="285"/>
      <point x="213" y="285" type="curve"/>
      <point x="213" y="415" type="line"/>
      <point x="321" y="415"/>
      <point x="342" y="453"/>
      <point x="342" y="500" type="curve" smooth="yes"/>
      <point x="342" y="550"/>
      <point x="301" y="567"/>
      <point x="268" y="570" type="curve"/>
      <point x="268" y="700" type="line"/>
      <point x="349" y="700"/>
      <point x="472" y="649"/>
      <point x="472" y="501" type="curve" smooth="yes"/>
      <point x="472" y="416"/>
      <point x="433" y="369"/>
      <point x="405" y="350" type="curve"/>
      <point x="433" y="331"/>
      <point x="472" y="284"/>
      <point x="472" y="199" type="curve" smooth="yes"/>
      <point x="472" y="51"/>
      <point x="349" y="0"/>
    </contour>
    <contour>
      <point x="30" y="179" type="curve"/>
      <point x="151" y="202" type="line"/>
      <point x="151" y="145"/>
      <point x="196" y="130"/>
      <point x="213" y="130" type="curve"/>
      <point x="213" y="0" type="line"/>
      <point x="115" y="0"/>
      <point x="30" y="88"/>
    </contour>
    <contour>
      <point x="30" y="521" type="line"/>
      <point x="30" y="612"/>
      <point x="115" y="700"/>
      <point x="213" y="700" type="curve"/>
      <point x="213" y="570" type="line"/>
      <point x="196" y="568"/>
      <point x="151" y="555"/>
      <point x="151" y="498" type="curve"/>
    </contour>
  </outline>
</glyph>
<glyph name="four" format="1">
  <advance width="491"/>
  <unicode hex="0034"/>
  <outline>
    <contour>
      <point x="20" y="142" type="line"/>
      <point x="20" y="272" type="line"/>
      <point x="210" y="598" type="line"/>
      <point x="210" y="346" type="line"/>
      <point x="164" y="272" type="line"/>
      <point x="210" y="272" type="line"/>
      <point x="210" y="142" type="line"/>
    </contour>
    <contour>
      <point x="267" y="0" type="line"/>
      <point x="267" y="701" type="line"/>
      <point x="407" y="701" type="line"/>
      <point x="407" y="272" type="line"/>
      <point x="461" y="272" type="line"/>
      <point x="461" y="142" type="line"/>
      <point x="407" y="142" type="line"/>
      <point x="407" y="0" type="line"/>
    </contour>
  </outline>
</glyph>
<glyph name="five" format="1">
  <advance width="520"/>
  <unicode hex="0035"/>
  <outline>
    <contour>
      <point x="45" y="354" type="line"/>
      <point x="74" y="700" type="line"/>
      <point x="433" y="700" type="line"/>
      <point x="433" y="570" type="line"/>
      <point x="195" y="570" type="line"/>
      <point x="183" y="442" type="line"/>
      <point x="196" y="445"/>
      <point x="211" y="447"/>
      <point x="228" y="447" type="curve"/>
      <point x="228" y="324" type="line"/>
      <point x="194" y="321"/>
      <point x="168" y="303"/>
      <point x="160" y="286" type="curve"/>
    </contour>
    <contour>
      <point x="282" y="0" type="curve"/>
      <point x="282" y="126" type="line"/>
      <point x="331" y="135"/>
      <point x="362" y="174"/>
      <point x="362" y="224" type="curve" smooth="yes"/>
      <point x="362" y="280"/>
      <point x="320" y="319"/>
      <point x="282" y="324" type="curve"/>
      <point x="282" y="447" type="line"/>
      <point x="425" y="444"/>
      <point x="490" y="333"/>
      <point x="490" y="223" type="curve" smooth="yes"/>
      <point x="490" y="82"/>
      <point x="387" y="2"/>
    </contour>
    <contour>
      <point x="30" y="176" type="curve"/>
      <point x="151" y="199" type="line"/>
      <point x="153" y="153"/>
      <point x="208" y="129"/>
      <point x="225" y="129" type="curve"/>
      <point x="225" y="-1" type="line"/>
      <point x="127" y="-1"/>
      <point x="30" y="85"/>
    </contour>
  </outline>
</glyph>
<glyph name="seven" format="1">
  <advance width="449"/>
  <unicode hex="0037"/>
  <outline>
    <contour>
      <point x="429" y="570" type="line"/>
      <point x="30" y="570" type="line"/>
      <point x="30" y="700" type="line"/>
      <point x="429" y="700" type="line"/>
    </contour>
    <contour>
      <point x="143" y="0" type="line"/>
      <point x="143" y="198"/>
      <point x="208" y="388"/>
      <point x="276" y="515" type="curve"/>
      <point x="419" y="515" type="line"/>
      <point x="337" y="356"/>
      <point x="283" y="174"/>
      <point x="283" y="0" type="curve"/>
    </contour>
  </outline>
</glyph>
<glyph name="nine" format="1">
  <advance width="505"/>
  <unicode hex="0039"/>
  <outline>
    <contour>
      <point x="273" y="-1" type="curve"/>
      <point x="273" y="129" type="line"/>
      <point x="346" y="134"/>
      <point x="340" y="237"/>
      <point x="340" y="287" type="curve"/>
      <point x="323" y="279"/>
      <point x="293" y="274"/>
      <point x="273" y="274" type="curve"/>
      <point x="273" y="320"/>
      <point x="273" y="404"/>
      <point x="273" y="404" type="curve"/>
      <point x="311" y="414"/>
      <point x="330" y="451"/>
      <point x="330" y="487" type="curve" smooth="yes"/>
      <point x="330" y="524"/>
      <point x="311" y="560"/>
      <point x="273" y="570" type="curve"/>
      <point x="273" y="700" type="line"/>
      <point x="448" y="700"/>
      <point x="475" y="513"/>
      <point x="475" y="341" type="curve" smooth="yes"/>
      <point x="475" y="224"/>
      <point x="467" y="-1"/>
    </contour>
    <contour>
      <point x="219" y="274" type="line"/>
      <point x="95" y="274"/>
      <point x="30" y="370"/>
      <point x="30" y="488" type="curve" smooth="yes"/>
      <point x="30" y="613"/>
      <point x="118" y="700"/>
      <point x="219" y="700" type="curve"/>
      <point x="219" y="570" type="line"/>
      <point x="181" y="560"/>
      <point x="162" y="524"/>
      <point x="162" y="487" type="curve" smooth="yes"/>
      <point x="162" y="451"/>
      <point x="181" y="414"/>
      <point x="219" y="404" type="curve"/>
    </contour>
    <contour>
      <point x="54" y="105" type="curve"/>
      <point x="160" y="177" type="line"/>
      <point x="171" y="148"/>
      <point x="198" y="130"/>
      <point x="219" y="129" type="curve"/>
      <point x="219" y="-1" type="line"/>
      <point x="138" y="-1"/>
      <point x="84" y="45"/>
    </contour>
  </outline>
</glyph>
<glyph name="equal" format="1">
  <advance width="418"/>
  <unicode hex="003D"/>
  <outline>
    <contour>
      <point x="50" y="131" type="line"/>
      <point x="50" y="258" type="line"/>
      <point x="368" y="258" type="line"/>
      <point x="368" y="131" type="line"/>
    </contour>
    <contour>
      <point x="50" y="325" type="line"/>
      <point x="50" y="452" type="line"/>
      <point x="368" y="452" type="line"/>
      <point x="368" y="325" type="line"/>
    </contour>
  </outline>
</glyph>
<glyph name="at" format="1">
  <advance width="803"/>
  <unicode hex="0040"/>
  <outline>
    <contour>
      <point x="16" y="294" type="curve" smooth="yes"/>
      <point x="16" y="516"/>
      <point x="181" y="715"/>
      <point x="438" y="715" type="curve" smooth="yes"/>
      <point x="600" y="715"/>
      <point x="786" y="612"/>
      <point x="786" y="412" type="curve" smooth="yes"/>
      <point x="786" y="201"/>
      <point x="654" y="116"/>
      <point x="552" y="116" type="curve" smooth="yes"/>
      <point x="489" y="116"/>
      <point x="455" y="150"/>
      <point x="456" y="181" type="curve"/>
      <point x="460" y="177" type="line"/>
      <point x="453" y="152"/>
      <point x="415" y="116"/>
      <point x="349" y="116" type="curve" smooth="yes"/>
      <point x="268" y="116"/>
      <point x="205" y="193"/>
      <point x="205" y="289" type="curve" smooth="yes"/>
      <point x="205" y="444"/>
      <point x="327" y="519"/>
      <point x="409" y="519" type="curve" smooth="yes"/>
      <point x="473" y="519"/>
      <point x="495" y="493"/>
      <point x="510" y="477" type="curve"/>
      <point x="518" y="504" type="line"/>
      <point x="592" y="504" type="line"/>
      <point x="552" y="308" type="line" smooth="yes"/>
      <point x="550" y="297"/>
      <point x="545" y="272"/>
      <point x="545" y="259" type="curve" smooth="yes"/>
      <point x="545" y="249"/>
      <point x="549" y="240"/>
      <point x="563" y="240" type="curve" smooth="yes"/>
      <point x="598" y="240"/>
      <point x="666" y="280"/>
      <point x="666" y="412" type="curve" smooth="yes"/>
      <point x="666" y="530"/>
      <point x="539" y="602"/>
      <point x="422" y="602" type="curve" smooth="yes"/>
      <point x="274" y="602"/>
      <point x="136" y="464"/>
      <point x="136" y="306" type="curve" smooth="yes"/>
      <point x="136" y="132"/>
      <point x="260" y="22"/>
      <point x="431" y="22" type="curve" smooth="yes"/>
      <point x="501" y="22"/>
      <point x="587" y="47"/>
      <point x="667" y="103" type="curve"/>
      <point x="717" y="12" type="line"/>
      <point x="658" y="-45"/>
      <point x="538" y="-87"/>
      <point x="434" y="-87" type="curve" smooth="yes"/>
      <point x="185" y="-87"/>
      <point x="16" y="57"/>
    </contour>
  </outline>
</glyph>
<glyph name="O" format="1">
  <advance width="524"/>
  <unicode hex="004F"/>
  <outline>
    <contour>
      <point x="38" y="195" type="curve" smooth="yes"/>
      <point x="38" y="524" type="line" smooth="yes"/>
      <point x="38" y="584"/>
      <point x="103" y="705"/>
      <point x="235" y="705" type="curve"/>
      <point x="235" y="564" type="line"/>
      <point x="189" y="563"/>
      <point x="179" y="513"/>
      <point x="179" y="508" type="curve" smooth="yes"/>
      <point x="179" y="195" type="line" smooth="yes"/>
      <point x="179" y="149"/>
      <point x="229" y="137"/>
      <point x="234" y="137" type="curve"/>
      <point x="234" y="-5" type="line"/>
      <point x="174" y="-5"/>
      <point x="38" y="51"/>
    </contour>
    <contour>
      <point x="289" y="-5" type="curve"/>
      <point x="289" y="137" type="line"/>
      <point x="294" y="137"/>
      <point x="344" y="149"/>
      <point x="345" y="195" type="curve" smooth="yes"/>
      <point x="345" y="508" type="line" smooth="yes"/>
      <point x="345" y="513"/>
      <point x="335" y="563"/>
      <point x="289" y="564" type="curve"/>
      <point x="289" y="705" type="line"/>
      <point x="420" y="705"/>
      <point x="486" y="583"/>
      <point x="486" y="524" type="curve" smooth="yes"/>
      <point x="486" y="195" type="line" smooth="yes"/>
      <point x="486" y="51"/>
      <point x="349" y="-5"/>
    </contour>
  </outline>
</glyph>
<glyph name="Y" format="1">
  <advance width="451"/>
  <unicode hex="0059"/>
  <outline>
    <contour>
      <point x="12" y="700" type="line"/>
      <point x="159" y="700" type="line"/>
      <point x="289" y="253" type="line"/>
      <point x="289" y="0" type="line"/>
      <point x="143" y="0" type="line"/>
      <point x="143" y="252" type="line"/>
    </contour>
    <contour>
      <point x="255" y="565" type="line"/>
      <point x="294" y="700" type="line"/>
      <point x="439" y="700" type="line"/>
      <point x="330" y="331" type="line"/>
      <point x="321" y="331" type="line"/>
    </contour>
  </outline>
</glyph>
<glyph name="underscore" format="1">
  <advance width="510"/>
  <unicode hex="005F"/>
  <outline>
    <contour>
      <point x="30" y="-98" type="line"/>
      <point x="480" y="-98" type="line"/>
      <point x="480" y="-205" type="line"/>
      <point x="30" y="-205" type="line"/>
    </contour>
  </outline>
</glyph>
<glyph name="j" format="1">
  <advance width="242"/>
  <unicode hex="006A"/>
  <outline>
    <contour>
      <point x="54" y="540" type="line"/>
      <point x="188" y="540" type="line"/>
      <point x="188" y="-42" type="line" smooth="yes"/>
      <point x="188" y="-94"/>
      <point x="133" y="-199"/>
      <point x="21" y="-199" type="curve" smooth="yes"/>
      <point x="-42" y="-199" type="line"/>
      <point x="-12" y="-71" type="line"/>
      <point x="17" y="-71" type="line"/>
      <point x="48" y="-70"/>
      <point x="54" y="-44"/>
      <point x="54" y="-42" type="curve" smooth="yes"/>
    </contour>
    <contour>
      <point x="47" y="651" type="curve" smooth="yes"/>
      <point x="47" y="690"/>
      <point x="80" y="723"/>
      <point x="120" y="723" type="curve" smooth="yes"/>
      <point x="159" y="723"/>
      <point x="192" y="690"/>
      <point x="192" y="651" type="curve" smooth="yes"/>
      <point x="192" y="612"/>
      <point x="159" y="579"/>
      <point x="120" y="579" type="curve" smooth="yes"/>
      <point x="80" y="579"/>
      <point x="47" y="612"/>
    </contour>
  </outline>
</glyph>
<glyph name="n" format="1">
  <advance width="487"/>
  <unicode hex="006E"/>
  <outline>
    <contour>
      <point x="38" y="0" type="line"/>
      <point x="38" y="415" type="line" smooth="yes"/>
      <point x="38" y="471"/>
      <point x="99" y="571"/>
      <point x="220" y="571" type="curve"/>
      <point x="220" y="438" type="line"/>
      <point x="184" y="438"/>
      <point x="174" y="416"/>
      <point x="174" y="399" type="curve" smooth="yes"/>
      <point x="174" y="0" type="line"/>
    </contour>
    <contour>
      <point x="266" y="438" type="curve"/>
      <point x="266" y="571" type="line"/>
      <point x="387" y="571"/>
      <point x="449" y="468"/>
      <point x="449" y="415" type="curve" smooth="yes"/>
      <point x="449" y="0" type="line"/>
      <point x="313" y="0" type="line"/>
      <point x="313" y="399" type="line" smooth="yes"/>
      <point x="313" y="418"/>
      <point x="301" y="438"/>
    </contour>
  </outline>
</glyph>
<glyph name="w" format="1">
  <advance width="723"/>
  <unicode hex="0077"/>
  <outline>
    <contour>
      <point x="7" y="570" type="line"/>
      <point x="156" y="570" type="line"/>
      <point x="302" y="138" type="line"/>
      <point x="257" y="0" type="line"/>
      <point x="181" y="0" type="line"/>
    </contour>
    <contour>
      <point x="245" y="433" type="line"/>
      <point x="287" y="570" type="line"/>
      <point x="436" y="570" type="line"/>
      <point x="329" y="229" type="line"/>
      <point x="316" y="229" type="line"/>
    </contour>
    <contour>
      <point x="287" y="570" type="line"/>
      <point x="436" y="570" type="line"/>
      <point x="582" y="138" type="line"/>
      <point x="537" y="0" type="line"/>
      <point x="461" y="0" type="line"/>
    </contour>
    <contour>
      <point x="525" y="433" type="line"/>
      <point x="567" y="570" type="line"/>
      <point x="716" y="570" type="line"/>
      <point x="609" y="229" type="line"/>
      <point x="596" y="229" type="line"/>
    </contour>
  </outline>
</glyph>
<glyph name="x" format="1">
  <advance width="416"/>
  <unicode hex="0078"/>
  <outline>
    <contour>
      <point x="8" y="0" type="line"/>
      <point x="133" y="288" type="line"/>
      <point x="10" y="570" type="line"/>
      <point x="148" y="570" type="line"/>
      <point x="208" y="439" type="line"/>
      <point x="266" y="570" type="line"/>
      <point x="405" y="570" type="line"/>
      <point x="284" y="288" type="line"/>
      <point x="408" y="0" type="line"/>
      <point x="271" y="0" type="line"/>
      <point x="208" y="139" type="line"/>
      <point x="145" y="0" type="line"/>
    </contour>
  </outline>
</glyph>
<glyph name="y" format="1">
  <advance width="429"/>
  <unicode hex="0079"/>
  <outline>
    <contour>
      <point x="7" y="570" type="line"/>
      <point x="151" y="570" type="line"/>
      <point x="284" y="126" type="line"/>
      <point x="175" y="-200" type="line"/>
      <point x="37" y="-200" type="line"/>
      <point x="137" y="128" type="line"/>
    </contour>
    <contour>
      <point x="241" y="436" type="line"/>
      <point x="283" y="570" type="line"/>
      <point x="427" y="570" type="line"/>
      <point x="314" y="232" type="line"/>
      <point x="301" y="232" type="line"/>
    </contour>
  </outline>
</glyph>
<glyph name="logicalnot" format="1">
  <advance width="540"/>
  <unicode hex="00AC"/>
  <outline>
    <contour>
      <point x="40" y="327" type="line"/>
      <point x="40" y="442" type="line"/>
      <point x="490" y="442" type="line"/>
      <point x="490" y="208" type="line"/>
      <point x="372" y="208" type="line"/>
      <point x="372" y="327" type="line"/>
    </contour>
  </outline>
</glyph>
<glyph name="threesuperior" format="1">
  <advance width="232"/>
  <unicode hex="00B3"/>
  <outline>
    <contour>
      <point x="122" y="387" type="curve"/>
      <point x="122" y="445" type="line"/>
      <point x="137" y="447"/>
      <point x="155" y="454"/>
      <point x="155" y="477" type="curve" smooth="yes"/>
      <point x="155" y="498"/>
      <point x="146" y="515"/>
      <point x="97" y="515" type="curve"/>
      <point x="97" y="573" type="line"/>
      <point x="146" y="573"/>
      <point x="155" y="590"/>
      <point x="155" y="612" type="curve" smooth="yes"/>
      <point x="155" y="634"/>
      <point x="137" y="642"/>
      <point x="122" y="643" type="curve"/>
      <point x="122" y="702" type="line"/>
      <point x="158" y="702"/>
      <point x="214" y="679"/>
      <point x="214" y="612" type="curve" smooth="yes"/>
      <point x="214" y="574"/>
      <point x="196" y="553"/>
      <point x="183" y="544" type="curve"/>
      <point x="196" y="536"/>
      <point x="214" y="514"/>
      <point x="214" y="476" type="curve" smooth="yes"/>
      <point x="214" y="410"/>
      <point x="158" y="387"/>
    </contour>
    <contour>
      <point x="15" y="467" type="curve"/>
      <point x="69" y="478" type="line"/>
      <point x="69" y="452"/>
      <point x="89" y="445"/>
      <point x="97" y="445" type="curve"/>
      <point x="97" y="387" type="line"/>
      <point x="53" y="387"/>
      <point x="15" y="426"/>
    </contour>
    <contour>
      <point x="15" y="621" type="line"/>
      <point x="15" y="662"/>
      <point x="53" y="702"/>
      <point x="97" y="702" type="curve"/>
      <point x="97" y="643" type="line"/>
      <point x="89" y="642"/>
      <point x="69" y="636"/>
      <point x="69" y="611" type="curve"/>
    </contour>
  </outline>
</glyph>
<glyph name="acute" format="1">
  <advance width="395"/>
  <unicode hex="00B4"/>
  <outline>
    <contour>
      <point x="115" y="605" type="line"/>
      <point x="152" y="757" type="line"/>
      <point x="279" y="757" type="line"/>
      <point x="206" y="605" type="line"/>
    </contour>
  </outline>
</glyph>
<glyph name="threequarters" format="1">
  <advance width="575"/>
  <unicode hex="00BE"/>
  <outline>
    <contour>
      <point x="164" y="351" type="curve"/>
      <point x="164" y="428" type="line"/>
      <point x="181" y="428"/>
      <point x="191" y="443"/>
      <point x="191" y="457" type="curve" smooth="yes"/>
      <point x="191" y="473"/>
      <point x="180" y="490"/>
      <point x="154" y="490" type="curve" smooth="yes"/>
      <point x="136" y="490" type="line"/>
      <point x="136" y="561" type="line"/>
      <point x="154" y="561" type="line" smooth="yes"/>
      <point x="179" y="561"/>
      <point x="191" y="578"/>
      <point x="191" y="594" type="curve" smooth="yes"/>
      <point x="191" y="609"/>
      <point x="181" y="623"/>
      <point x="164" y="623" type="curve"/>
      <point x="164" y="700" type="line"/>
      <point x="204" y="700"/>
      <point x="266" y="667"/>
      <point x="266" y="601" type="curve" smooth="yes"/>
      <point x="266" y="558"/>
      <point x="246" y="535"/>
      <point x="232" y="526" type="curve"/>
      <point x="246" y="517"/>
      <point x="266" y="493"/>
      <point x="266" y="451" type="curve" smooth="yes"/>
      <point x="266" y="384"/>
      <point x="204" y="351"/>
    </contour>
    <contour>
      <point x="439" y="0" type="line"/>
      <point x="439" y="351" type="line"/>
      <point x="519" y="351" type="line"/>
      <point x="519" y="131" type="line"/>
      <point x="546" y="131" type="line"/>
      <point x="546" y="61" type="line"/>
      <point x="519" y="61" type="line"/>
      <point x="519" y="0" type="line"/>
    </contour>
    <contour>
      <point x="303" y="61" type="line"/>
      <point x="303" y="131" type="line"/>
      <point x="411" y="319" type="line"/>
      <point x="411" y="175" type="line"/>
      <point x="388" y="131" type="line"/>
      <point x="411" y="131" type="line"/>
      <point x="411" y="61" type="line"/>
    </contour>
    <contour>
      <point x="31" y="452" type="curve"/>
      <point x="102" y="465" type="line"/>
      <point x="102" y="437"/>
      <point x="125" y="428"/>
      <point x="136" y="427" type="curve"/>
      <point x="136" y="350" type="line"/>
      <point x="87" y="350"/>
      <point x="31" y="392"/>
    </contour>
    <contour>
      <point x="31" y="598" type="line"/>
      <point x="31" y="659"/>
      <point x="87" y="700"/>
      <point x="136" y="700" type="curve"/>
      <point x="136" y="623" type="line"/>
      <point x="125" y="622"/>
      <point x="102" y="614"/>
      <point x="102" y="585" type="curve"/>
    </contour>
    <contour>
      <point x="67" y="0" type="line"/>
      <point x="499" y="700" type="line"/>
      <point x="575" y="700" type="line"/>
      <point x="150" y="0" type="line"/>
    </contour>
  </outline>
</glyph>
<glyph name="divide" format="1">
  <advance width="650"/>
  <unicode hex="00F7"/>
  <outline>
    <contour>
      <point x="68" y="228" type="line"/>
      <point x="68" y="355" type="line"/>
      <point x="518" y="355" type="line"/>
      <point x="518" y="228" type="line"/>
    </contour>
    <component base="period" xOffset="196" yOffset="415"/>
    <component base="period" xOffset="196" yOffset="62"/>
  </outline>
</glyph>
<glyph name="oe" format="1">
  <advance width="671"/>
  <unicode hex="0153"/>
  <outline>
    <contour>
      <point x="334" y="34" type="curve"/>
      <point x="308" y="12"/>
      <point x="282" y="-1"/>
      <point x="231" y="-1" type="curve"/>
      <point x="231" y="113" type="line"/>
      <point x="264" y="113"/>
      <point x="275" y="130"/>
      <point x="275" y="150" type="curve" smooth="yes"/>
      <point x="275" y="362" type="line" smooth="yes"/>
      <point x="275" y="387"/>
      <point x="263" y="398"/>
      <point x="231" y="398" type="curve"/>
      <point x="231" y="516" type="line"/>
      <point x="280" y="516"/>
      <point x="307" y="504"/>
      <point x="332" y="483" type="curve"/>
      <point x="358" y="503"/>
      <point x="390" y="516"/>
      <point x="432" y="516" type="curve"/>
      <point x="432" y="401" type="line"/>
      <point x="404" y="401"/>
      <point x="387" y="381"/>
      <point x="387" y="363" type="curve"/>
      <point x="387" y="324" type="line"/>
      <point x="528" y="324" type="line"/>
      <point x="528" y="359" type="line" smooth="yes"/>
      <point x="528" y="387"/>
      <point x="503" y="401"/>
      <point x="481" y="401" type="curve"/>
      <point x="481" y="516" type="line"/>
      <point x="555" y="516"/>
      <point x="642" y="453"/>
      <point x="642" y="378" type="curve" smooth="yes"/>
      <point x="642" y="208" type="line"/>
      <point x="387" y="208" type="line"/>
      <point x="387" y="159" type="line" smooth="yes"/>
      <point x="387" y="126"/>
      <point x="417" y="108"/>
      <point x="453" y="108" type="curve" smooth="yes"/>
      <point x="506" y="108"/>
      <point x="535" y="117"/>
      <point x="544" y="157" type="curve"/>
      <point x="643" y="120" type="line"/>
      <point x="623" y="40"/>
      <point x="549" y="0"/>
      <point x="457" y="0" type="curve" smooth="yes"/>
      <point x="399" y="0"/>
      <point x="364" y="15"/>
    </contour>
    <contour>
      <point x="26" y="141" type="curve" smooth="yes"/>
      <point x="26" y="376" type="line" smooth="yes"/>
      <point x="26" y="421"/>
      <point x="77" y="516"/>
      <point x="190" y="516" type="curve"/>
      <point x="190" y="398" type="line"/>
      <point x="155" y="398"/>
      <point x="146" y="383"/>
      <point x="146" y="363" type="curve" smooth="yes"/>
      <point x="146" y="152" type="line" smooth="yes"/>
      <point x="146" y="129"/>
      <point x="158" y="113"/>
      <point x="190" y="113" type="curve"/>
      <point x="190" y="-1" type="line"/>
      <point x="76" y="-1"/>
      <point x="26" y="97"/>
    </contour>
  </outline>
</glyph>
<glyph name="circumflex" format="1">
  <advance width="270"/>
  <unicode hex="02C6"/>
  <outline>
    <contour>
      <point x="26" y="514" type="line"/>
      <point x="101" y="666" type="line"/>
      <point x="167" y="666" type="line"/>
      <point x="244" y="514" type="line"/>
      <point x="162" y="514" type="line"/>
      <point x="134" y="571" type="line"/>
      <point x="107" y="514" type="line"/>
    </contour>
  </outline>
</glyph>
<glyph name="caron" format="1">
  <advance width="270"/>
  <unicode hex="02C7"/>
  <outline>
    <contour>
      <point x="26" y="666" type="line"/>
      <point x="107" y="666" type="line"/>
      <point x="134" y="609" type="line"/>
      <point x="162" y="666" type="line"/>
      <point x="244" y="666" type="line"/>
      <point x="167" y="514" type="line"/>
      <point x="101" y="514" type="line"/>
    </contour>
  </outline>
</glyph>
<glyph name="tml_I" format="1">
  <advance width="1194"/>
  <unicode hex="0B87"/>
  <outline>
    <contour>
      <point x="444" y="820" type="curve"/>
      <point x="444" y="692" type="line"/>
      <point x="299" y="692"/>
      <point x="242" y="608"/>
      <point x="242" y="474" type="curve" smooth="yes"/>
      <point x="242" y="315"/>
      <point x="242" y="249"/>
      <point x="444" y="187" type="curve"/>
      <point x="407" y="82" type="line"/>
      <point x="359" y="79"/>
      <point x="356" y="87"/>
      <point x="299" y="80" type="curve" smooth="yes"/>
      <point x="242" y="73"/>
      <point x="209" y="42"/>
      <point x="209" y="-5" type="curve" smooth="yes"/>
      <point x="209" y="-52"/>
      <point x="230" y="-103"/>
      <point x="327" y="-103" type="curve" smooth="yes"/>
      <point x="424" y="-103"/>
      <point x="442" y="-20"/>
      <point x="470" y="60" type="curve" smooth="yes"/>
      <point x="498" y="140"/>
      <point x="538" y="276"/>
      <point x="551" y="328" type="curve" smooth="yes"/>
      <point x="564" y="380"/>
      <point x="583" y="460"/>
      <point x="519" y="468" type="curve" smooth="yes"/>
      <point x="455" y="476"/>
      <point x="452" y="450"/>
      <point x="456" y="413" type="curve" smooth="yes"/>
      <point x="460" y="376"/>
      <point x="489" y="366"/>
      <point x="508" y="364" type="curve"/>
      <point x="470" y="288" type="line"/>
      <point x="407" y="288"/>
      <point x="338" y="342"/>
      <point x="340" y="420" type="curve" smooth="yes"/>
      <point x="342" y="498"/>
      <point x="376" y="569"/>
      <point x="487" y="567" type="curve" smooth="yes"/>
      <point x="619" y="565"/>
      <point x="682" y="505"/>
      <point x="682" y="409" type="curve" smooth="yes"/>
      <point x="682" y="313"/>
      <point x="646" y="211"/>
      <point x="638" y="183" type="curve"/>
      <point x="696" y="183"/>
      <point x="668" y="183"/>
      <point x="722" y="183" type="curve" smooth="yes"/>
      <point x="913" y="183"/>
      <point x="959" y="65"/>
      <point x="959" y="0" type="curve" smooth="yes"/>
      <point x="959" y="-113"/>
      <point x="881" y="-205"/>
      <point x="779" y="-205" type="curve" smooth="yes"/>
      <point x="677" y="-205"/>
      <point x="650" y="-139"/>
      <point x="614" y="-115" type="curve"/>
      <point x="654" y="19" type="line"/>
      <point x="733" y="-50"/>
      <point x="749" y="-89"/>
      <point x="806" y="-72" type="curve" smooth="yes"/>
      <point x="863" y="-55"/>
      <point x="843" y="-28"/>
      <point x="843" y="0" type="curve" smooth="yes"/>
      <point x="843" y="81"/>
      <point x="722" y="65"/>
      <point x="609" y="65" type="curve"/>
      <point x="571" y="-20"/>
      <point x="571" y="-210"/>
      <point x="359" y="-205" type="curve" smooth="yes"/>
      <point x="147" y="-200"/>
      <point x="81" y="-131"/>
      <point x="82" y="-4" type="curve" smooth="yes"/>
      <point x="83" y="123"/>
      <point x="144" y="152"/>
      <point x="209" y="180" type="curve"/>
      <point x="102" y="239"/>
      <point x="87" y="332"/>
      <point x="87" y="457" type="curve" smooth="yes"/>
      <point x="87" y="644"/>
      <point x="138" y="821"/>
    </contour>
    <contour>
      <point x="531" y="820" type="curve"/>
      <point x="532" y="692" type="line"/>
      <point x="638" y="685"/>
      <point x="779" y="673"/>
      <point x="780" y="497" type="curve" smooth="yes"/>
      <point x="781" y="250" type="line"/>
      <point x="919" y="249" type="line"/>
      <point x="919" y="399"/>
      <point x="919" y="376"/>
      <point x="919" y="565" type="curve" smooth="yes"/>
      <point x="919" y="702"/>
      <point x="819" y="820"/>
    </contour>
  </outline>
</glyph>
<glyph name="tml_MatraIi" format="1">
  <advance width="513"/>
  <unicode hex="0BC0"/>
  <outline>
    <contour>
      <point x="165" y="410" type="curve"/>
      <point x="319" y="423" type="line"/>
      <point x="152" y="547"/>
      <point x="126" y="785"/>
      <point x="259" y="796" type="curve"/>
      <point x="282" y="796"/>
      <point x="315" y="793"/>
      <point x="315" y="755" type="curve" smooth="yes"/>
      <point x="315" y="741"/>
      <point x="304" y="723"/>
      <point x="281" y="723" type="curve" smooth="yes"/>
      <point x="256" y="723"/>
      <point x="247" y="740"/>
      <point x="247" y="756" type="curve" smooth="yes"/>
      <point x="176" y="673" type="line"/>
      <point x="180" y="652"/>
      <point x="231" y="601"/>
      <point x="294" y="601" type="curve" smooth="yes"/>
      <point x="360" y="601"/>
      <point x="437" y="662"/>
      <point x="437" y="756" type="curve" smooth="yes"/>
      <point x="437" y="885"/>
      <point x="334" y="917"/>
      <point x="259" y="918" type="curve" smooth="yes"/>
      <point x="24" y="918"/>
      <point x="-23" y="564"/>
    </contour>
  </outline>
</glyph>
<glyph name="visarga" format="1">
  <advance width="388"/>
  <unicode hex="0D83"/>
  <outline>
    <contour>
      <point x="219" y="-7" type="line"/>
      <point x="219" y="100" type="line"/>
      <point x="240" y="100"/>
      <point x="250" y="115"/>
      <point x="250" y="131" type="curve" smooth="yes"/>
      <point x="250" y="147"/>
      <point x="239" y="162"/>
      <point x="219" y="162" type="curve"/>
      <point x="219" y="263" type="line"/>
      <point x="233" y="263" type="line" smooth="yes"/>
      <point x="317" y="263"/>
      <point x="358" y="197"/>
      <point x="358" y="130" type="curve" smooth="yes"/>
      <point x="358" y="61"/>
      <point x="315" y="-7"/>
      <point x="233" y="-7" type="curve" smooth="yes"/>
    </contour>
    <contour>
      <point x="155" y="-7" type="line" smooth="yes"/>
      <point x="73" y="-7"/>
      <point x="30" y="61"/>
      <point x="30" y="130" type="curve" smooth="yes"/>
      <point x="30" y="197"/>
      <point x="71" y="263"/>
      <point x="155" y="263" type="curve" smooth="yes"/>
      <point x="169" y="263" type="line"/>
      <point x="169" y="162" type="line"/>
      <point x="149" y="162"/>
      <point x="138" y="147"/>
      <point x="138" y="131" type="curve" smooth="yes"/>
      <point x="138" y="115"/>
      <point x="149" y="100"/>
      <point x="169" y="100" type="curve"/>
      <point x="169" y="-7" type="line"/>
    </contour>
    <contour>
      <point x="219" y="298" type="line"/>
      <point x="219" y="405" type="line"/>
      <point x="240" y="405"/>
      <point x="250" y="420"/>
      <point x="250" y="436" type="curve" smooth="yes"/>
      <point x="250" y="452"/>
      <point x="239" y="467"/>
      <point x="219" y="467" type="curve"/>
      <point x="219" y="568" type="line"/>
      <point x="233" y="568" type="line" smooth="yes"/>
      <point x="317" y="568"/>
      <point x="358" y="502"/>
      <point x="358" y="435" type="curve" smooth="yes"/>
      <point x="358" y="366"/>
      <point x="315" y="298"/>
      <point x="233" y="298" type="curve" smooth="yes"/>
    </contour>
    <contour>
      <point x="155" y="298" type="line" smooth="yes"/>
      <point x="73" y="298"/>
      <point x="30" y="366"/>
      <point x="30" y="435" type="curve" smooth="yes"/>
      <point x="30" y="502"/>
      <point x="71" y="568"/>
      <point x="155" y="568" type="curve" smooth="yes"/>
      <point x="169" y="568" type="line"/>
      <point x="169" y="467" type="line"/>
      <point x="149" y="467"/>
      <point x="138" y="452"/>
      <point x="138" y="436" type="curve" smooth="yes"/>
      <point x="138" y="420"/>
      <point x="149" y="405"/>
      <point x="169" y="405" type="curve"/>
      <point x="169" y="298" type="line"/>
    </contour>
  </outline>
</glyph>
<glyph name="si_A" format="1">
  <advance width="544"/>
  <unicode hex="0D85"/>
  <outline>
    <contour>
      <point x="312" y="-169" type="line"/>
      <point x="312" y="380" type="line" smooth="yes"/>
      <point x="312" y="466"/>
      <point x="338" y="529"/>
      <point x="484" y="579" type="curve"/>
      <point x="514" y="434" type="line"/>
      <point x="446" y="416"/>
      <point x="442" y="395"/>
      <point x="442" y="362" type="curve" smooth="yes"/>
      <point x="442" y="357"/>
      <point x="442" y="353"/>
      <point x="442" y="140" type="curve"/>
      <point x="494" y="140" type="line"/>
      <point x="494" y="0" type="line"/>
      <point x="442" y="0" type="line"/>
      <point x="442" y="-169" type="line"/>
    </contour>
    <contour>
      <point x="30" y="198" type="curve" smooth="yes"/>
      <point x="30" y="337"/>
      <point x="125" y="402"/>
      <point x="256" y="402" type="curve" smooth="yes"/>
      <point x="313" y="402" type="line"/>
      <point x="313" y="439"/>
      <point x="278" y="457"/>
      <point x="243" y="457" type="curve" smooth="yes"/>
      <point x="214" y="457"/>
      <point x="185" y="444"/>
      <point x="176" y="420" type="curve"/>
      <point x="58" y="459" type="line"/>
      <point x="79" y="539"/>
      <point x="158" y="578"/>
      <point x="238" y="578" type="curve" smooth="yes"/>
      <point x="338" y="578"/>
      <point x="442" y="518"/>
      <point x="442" y="402" type="curve" smooth="yes"/>
      <point x="442" y="263" type="line"/>
      <point x="256" y="263" type="line" smooth="yes"/>
      <point x="217" y="263"/>
      <point x="173" y="257"/>
      <point x="173" y="198" type="curve"/>
      <point x="173" y="146"/>
      <point x="220" y="136"/>
      <point x="257" y="136" type="curve" smooth="yes"/>
      <point x="257" y="136"/>
      <point x="257" y="136"/>
      <point x="257" y="136" type="curve" smooth="yes"/>
      <point x="257" y="0" type="line" smooth="yes"/>
      <point x="257" y="0"/>
      <point x="257" y="0"/>
      <point x="257" y="0" type="curve" smooth="yes"/>
      <point x="137" y="0"/>
      <point x="30" y="59"/>
    </contour>
  </outline>
</glyph>
<glyph name="si_I" format="1">
  <advance width="569"/>
  <unicode hex="0D89"/>
  <outline>
    <contour>
      <point x="196" y="0" type="line"/>
      <point x="196" y="128" type="line"/>
      <point x="206" y="128"/>
      <point x="215" y="128"/>
      <point x="225" y="128" type="curve" smooth="yes"/>
      <point x="331" y="128"/>
      <point x="402" y="172"/>
      <point x="402" y="278" type="curve" smooth="yes"/>
      <point x="402" y="336" type="line" smooth="yes"/>
      <point x="402" y="408"/>
      <point x="366" y="428"/>
      <point x="312" y="428" type="curve" smooth="yes"/>
      <point x="312" y="569" type="line" smooth="yes"/>
      <point x="328" y="569" type="line"/>
      <point x="432" y="569"/>
      <point x="539" y="496"/>
      <point x="539" y="380" type="curve" smooth="yes"/>
      <point x="539" y="249" type="line" smooth="yes"/>
      <point x="539" y="86"/>
      <point x="412" y="0"/>
      <point x="287" y="0" type="curve" smooth="yes"/>
    </contour>
    <contour>
      <point x="65" y="-81" type="curve"/>
      <point x="198" y="-47" type="line"/>
      <point x="203" y="-67"/>
      <point x="227" y="-78"/>
      <point x="248" y="-78" type="curve" smooth="yes"/>
      <point x="277" y="-78"/>
      <point x="297" y="-61"/>
      <point x="297" y="-45" type="curve"/>
      <point x="434" y="-45" type="line"/>
      <point x="434" y="-136"/>
      <point x="367" y="-204"/>
      <point x="248" y="-204" type="curve" smooth="yes"/>
      <point x="142" y="-204"/>
      <point x="87" y="-148"/>
    </contour>
    <contour>
      <point x="30" y="318" type="curve" smooth="yes"/>
      <point x="30" y="381" type="line" smooth="yes"/>
      <point x="30" y="496"/>
      <point x="137" y="569"/>
      <point x="241" y="569" type="curve"/>
      <point x="257" y="569" type="line" smooth="yes"/>
      <point x="257" y="428" type="line"/>
      <point x="241" y="428" type="line"/>
      <point x="199" y="428"/>
      <point x="168" y="405"/>
      <point x="168" y="364" type="curve" smooth="yes"/>
      <point x="168" y="346" type="line" smooth="yes"/>
      <point x="168" y="333"/>
      <point x="170" y="316"/>
      <point x="196" y="316" type="curve" smooth="yes"/>
      <point x="222" y="316"/>
      <point x="224" y="333"/>
      <point x="224" y="347" type="curve" smooth="yes"/>
      <point x="224" y="365" type="line"/>
      <point x="354" y="365" type="line"/>
      <point x="354" y="356"/>
      <point x="354" y="277"/>
      <point x="354" y="277" type="curve" smooth="yes"/>
      <point x="354" y="229"/>
      <point x="331" y="176"/>
      <point x="196" y="176" type="curve" smooth="yes"/>
      <point x="74" y="176"/>
      <point x="30" y="250"/>
    </contour>
  </outline>
</glyph>
<glyph name="si_U" format="1">
  <advance width="569"/>
  <unicode hex="0D8B"/>
  <outline>
    <contour>
      <point x="324" y="-28" type="line"/>
      <point x="378" y="-28"/>
      <point x="421" y="-8"/>
      <point x="434" y="42" type="curve"/>
      <point x="569" y="4" type="line"/>
      <point x="540" y="-135"/>
      <point x="423" y="-168"/>
      <point x="324" y="-168" type="curve"/>
    </contour>
    <contour>
      <point x="128" y="464" type="line"/>
      <point x="148" y="539"/>
      <point x="233" y="575"/>
      <point x="312" y="575" type="curve" smooth="yes"/>
      <point x="420" y="575"/>
      <point x="513" y="520"/>
      <point x="513" y="385" type="curve"/>
      <point x="513" y="257" type="line"/>
      <point x="268" y="257" type="line" smooth="yes"/>
      <point x="189" y="257"/>
      <point x="171" y="209"/>
      <point x="171" y="133" type="curve" smooth="yes"/>
      <point x="171" y="85" type="line" smooth="yes"/>
      <point x="171" y="-16"/>
      <point x="245" y="-26"/>
      <point x="268" y="-28" type="curve"/>
      <point x="268" y="-169" type="line"/>
      <point x="164" y="-169"/>
      <point x="30" y="-83"/>
      <point x="30" y="85" type="curve" smooth="yes"/>
      <point x="30" y="133" type="line" smooth="yes"/>
      <point x="30" y="247"/>
      <point x="61" y="398"/>
      <point x="264" y="398" type="curve" smooth="yes"/>
      <point x="384" y="397" type="line"/>
      <point x="384" y="446"/>
      <point x="330" y="454"/>
      <point x="312" y="454" type="curve" smooth="yes"/>
      <point x="297" y="454"/>
      <point x="254" y="454"/>
      <point x="243" y="420" type="curve"/>
    </contour>
  </outline>
</glyph>
<glyph name="si_vocalicR" format="1">
  <advance width="1025"/>
  <unicode hex="0D8D"/>
  <outline>
    <contour>
      <point x="30" y="160" type="curve" smooth="yes"/>
      <point x="30" y="202" type="line"/>
      <point x="169" y="202" type="line"/>
      <point x="169" y="171" type="line" smooth="yes"/>
      <point x="169" y="145"/>
      <point x="192" y="131"/>
      <point x="215" y="131" type="curve" smooth="yes"/>
      <point x="238" y="131"/>
      <point x="261" y="145"/>
      <point x="261" y="173" type="curve" smooth="yes"/>
      <point x="261" y="202" type="line"/>
      <point x="389" y="202" type="line"/>
      <point x="389" y="173" type="line" smooth="yes"/>
      <point x="389" y="145"/>
      <point x="412" y="131"/>
      <point x="435" y="131" type="curve" smooth="yes"/>
      <point x="458" y="131"/>
      <point x="481" y="145"/>
      <point x="481" y="171" type="curve" smooth="yes"/>
      <point x="481" y="202" type="line"/>
      <point x="620" y="202" type="line"/>
      <point x="620" y="160" type="line" smooth="yes"/>
      <point x="620" y="50"/>
      <point x="548" y="-8"/>
      <point x="438" y="-8" type="curve" smooth="yes"/>
      <point x="395" y="-8"/>
      <point x="352" y="4"/>
      <point x="322" y="36" type="curve"/>
      <point x="293" y="4"/>
      <point x="254" y="-8"/>
      <point x="213" y="-8" type="curve" smooth="yes"/>
      <point x="104" y="-8"/>
      <point x="30" y="58"/>
    </contour>
    <contour>
      <point x="41" y="460" type="line"/>
      <point x="65" y="537"/>
      <point x="133" y="575"/>
      <point x="204" y="575" type="curve" smooth="yes"/>
      <point x="246" y="575"/>
      <point x="289" y="562"/>
      <point x="325" y="536" type="curve"/>
      <point x="361" y="562"/>
      <point x="404" y="575"/>
      <point x="446" y="575" type="curve" smooth="yes"/>
      <point x="517" y="575"/>
      <point x="585" y="537"/>
      <point x="609" y="460" type="curve"/>
      <point x="491" y="421" type="line"/>
      <point x="487" y="436"/>
      <point x="472" y="451"/>
      <point x="444" y="451" type="curve" smooth="yes"/>
      <point x="429" y="451"/>
      <point x="389" y="443"/>
      <point x="389" y="397" type="curve"/>
      <point x="389" y="378" type="line"/>
      <point x="261" y="378" type="line"/>
      <point x="261" y="397" type="line"/>
      <point x="261" y="443"/>
      <point x="221" y="451"/>
      <point x="206" y="451" type="curve" smooth="yes"/>
      <point x="178" y="451"/>
      <point x="163" y="436"/>
      <point x="159" y="421" type="curve"/>
    </contour>
    <contour>
      <point x="30" y="251" type="line"/>
      <point x="30" y="279" type="line" smooth="yes"/>
      <point x="30" y="392"/>
      <point x="122" y="402"/>
      <point x="184" y="402" type="curve" smooth="yes"/>
      <point x="466" y="402" type="line" smooth="yes"/>
      <point x="528" y="402"/>
      <point x="620" y="392"/>
      <point x="620" y="279" type="curve" smooth="yes"/>
      <point x="620" y="251" type="line"/>
      <point x="481" y="251" type="line"/>
      <point x="481" y="253"/>
      <point x="481" y="256"/>
      <point x="480" y="258" type="curve" smooth="yes"/>
      <point x="478" y="271"/>
      <point x="468" y="283"/>
      <point x="444" y="283" type="curve" smooth="yes"/>
      <point x="206" y="283" type="line" smooth="yes"/>
      <point x="182" y="283"/>
      <point x="172" y="271"/>
      <point x="170" y="258" type="curve" smooth="yes"/>
      <point x="169" y="256"/>
      <point x="169" y="253"/>
      <point x="169" y="251" type="curve"/>
    </contour>
    <component base="si_MatraR" xOffset="670"/>
  </outline>
</glyph>
<glyph name="si_vocalicL" format="1">
  <advance width="978"/>
  <unicode hex="0D8F"/>
  <outline>
    <contour>
      <point x="45" y="88" type="curve" smooth="yes"/>
      <point x="45" y="140"/>
      <point x="87" y="182"/>
      <point x="139" y="182" type="curve" smooth="yes"/>
      <point x="191" y="182"/>
      <point x="233" y="140"/>
      <point x="233" y="88" type="curve" smooth="yes"/>
      <point x="233" y="36"/>
      <point x="191" y="-6"/>
      <point x="139" y="-6" type="curve" smooth="yes"/>
      <point x="87" y="-6"/>
      <point x="45" y="36"/>
    </contour>
    <contour>
      <point x="745" y="88" type="curve" smooth="yes"/>
      <point x="745" y="140"/>
      <point x="787" y="182"/>
      <point x="839" y="182" type="curve" smooth="yes"/>
      <point x="891" y="182"/>
      <point x="933" y="140"/>
      <point x="933" y="88" type="curve" smooth="yes"/>
      <point x="933" y="36"/>
      <point x="891" y="-6"/>
      <point x="839" y="-6" type="curve" smooth="yes"/>
      <point x="787" y="-6"/>
      <point x="745" y="36"/>
    </contour>
    <contour>
      <point x="30" y="202" type="curve"/>
      <point x="161" y="202" type="line"/>
      <point x="161" y="155"/>
      <point x="168" y="122"/>
      <point x="178" y="86" type="curve"/>
      <point x="53" y="50" type="line"/>
      <point x="34" y="94"/>
      <point x="30" y="139"/>
    </contour>
    <contour>
      <point x="817" y="202" type="curve"/>
      <point x="948" y="202" type="line"/>
      <point x="948" y="139"/>
      <point x="944" y="94"/>
      <point x="925" y="50" type="curve"/>
      <point x="800" y="86" type="line"/>
      <point x="810" y="122"/>
      <point x="817" y="155"/>
    </contour>
    <contour>
      <point x="321" y="556" type="curve"/>
      <point x="321" y="422" type="line"/>
      <point x="298" y="430" type="line" smooth="yes"/>
      <point x="287" y="434"/>
      <point x="271" y="437"/>
      <point x="254" y="437" type="curve" smooth="yes"/>
      <point x="211" y="437"/>
      <point x="161" y="414"/>
      <point x="161" y="307" type="curve" smooth="yes"/>
      <point x="161" y="251" type="line"/>
      <point x="30" y="251" type="line"/>
      <point x="30" y="332" type="line" smooth="yes"/>
      <point x="30" y="467"/>
      <point x="120" y="572"/>
      <point x="239" y="572" type="curve" smooth="yes"/>
      <point x="265" y="572"/>
      <point x="293" y="567"/>
    </contour>
    <contour>
      <point x="657" y="556" type="line"/>
      <point x="685" y="567"/>
      <point x="713" y="572"/>
      <point x="739" y="572" type="curve" smooth="yes"/>
      <point x="858" y="572"/>
      <point x="948" y="467"/>
      <point x="948" y="332" type="curve" smooth="yes"/>
      <point x="948" y="251" type="line"/>
      <point x="817" y="251" type="line"/>
      <point x="817" y="307" type="line" smooth="yes"/>
      <point x="817" y="414"/>
      <point x="767" y="437"/>
      <point x="724" y="437" type="curve" smooth="yes"/>
      <point x="707" y="437"/>
      <point x="691" y="434"/>
      <point x="680" y="430" type="curve" smooth="yes"/>
      <point x="657" y="422" type="line"/>
    </contour>
    <component base="si_Pa" xOffset="175"/>
  </outline>
</glyph>
<glyph name="si_E" format="1">
  <advance width="604"/>
  <unicode hex="0D91"/>
  <outline>
    <contour>
      <point x="66" y="402" type="line"/>
      <point x="92" y="490"/>
      <point x="169" y="503"/>
      <point x="205" y="503" type="curve" smooth="yes"/>
      <point x="249" y="503"/>
      <point x="294" y="486"/>
      <point x="317" y="459" type="curve" smooth="yes"/>
      <point x="340" y="432"/>
      <point x="350" y="406"/>
      <point x="350" y="350" type="curve" smooth="yes"/>
      <point x="350" y="252" type="line"/>
      <point x="266" y="252" type="line" smooth="yes"/>
      <point x="236" y="252"/>
      <point x="207" y="242"/>
      <point x="207" y="195" type="curve" smooth="yes"/>
      <point x="207" y="168"/>
      <point x="230" y="140"/>
      <point x="283" y="140" type="curve"/>
      <point x="283" y="-5" type="line"/>
      <point x="156" y="-5"/>
      <point x="69" y="87"/>
      <point x="69" y="192" type="curve" smooth="yes"/>
      <point x="69" y="212"/>
      <point x="70" y="232"/>
      <point x="80" y="252" type="curve"/>
      <point x="30" y="252" type="line"/>
      <point x="30" y="354" type="line"/>
      <point x="247" y="354" type="line"/>
      <point x="247" y="360" type="line"/>
      <point x="247" y="389"/>
      <point x="226" y="400"/>
      <point x="205" y="400" type="curve" smooth="yes"/>
      <point x="195" y="400"/>
      <point x="170" y="397"/>
      <point x="165" y="376" type="curve"/>
    </contour>
    <contour>
      <point x="398" y="454" type="line"/>
      <point x="295" y="474"/>
      <point x="259" y="544"/>
      <point x="259" y="617" type="curve" smooth="yes"/>
      <point x="259" y="755" type="line"/>
      <point x="339" y="755" type="line"/>
      <point x="473" y="755"/>
      <point x="574" y="700"/>
      <point x="574" y="517" type="curve" smooth="yes"/>
      <point x="574" y="250" type="line"/>
      <point x="434" y="250" type="line"/>
      <point x="434" y="498" type="line" smooth="yes"/>
      <point x="434" y="577"/>
      <point x="417" y="616"/>
      <point x="339" y="616" type="curve"/>
      <point x="339" y="616"/>
      <point x="339" y="616"/>
      <point x="339" y="616" type="curve" smooth="yes"/>
      <point x="339" y="563"/>
      <point x="365" y="547"/>
      <point x="398" y="540" type="curve"/>
    </contour>
    <contour>
      <point x="339" y="-5" type="curve"/>
      <point x="339" y="140" type="line"/>
      <point x="381" y="140"/>
      <point x="434" y="154"/>
      <point x="434" y="250" type="curve" smooth="yes"/>
      <point x="574" y="250" type="line" smooth="yes"/>
      <point x="574" y="78"/>
      <point x="494" y="-5"/>
    </contour>
  </outline>
</glyph>
<glyph name="si_Os" format="1">
  <advance width="606"/>
  <unicode hex="0D94"/>
  <outline>
    <contour>
      <point x="201" y="-8" type="curve" smooth="yes"/>
      <point x="100" y="-8"/>
      <point x="30" y="58"/>
      <point x="30" y="160" type="curve" smooth="yes"/>
      <point x="30" y="342" type="line" smooth="yes"/>
      <point x="30" y="428"/>
      <point x="99" y="473"/>
      <point x="164" y="473" type="curve" smooth="yes"/>
      <point x="224" y="473"/>
      <point x="281" y="437"/>
      <point x="281" y="364" type="curve" smooth="yes"/>
      <point x="281" y="348" type="line" smooth="yes"/>
      <point x="281" y="337"/>
      <point x="289" y="331"/>
      <point x="296" y="331" type="curve" smooth="yes"/>
      <point x="304" y="331"/>
      <point x="312" y="337"/>
      <point x="312" y="348" type="curve" smooth="yes"/>
      <point x="312" y="469" type="line"/>
      <point x="404" y="469" type="line"/>
      <point x="404" y="340" type="line" smooth="yes"/>
      <point x="404" y="265"/>
      <point x="348" y="229"/>
      <point x="295" y="229" type="curve" smooth="yes"/>
      <point x="245" y="229"/>
      <point x="198" y="260"/>
      <point x="198" y="320" type="curve" smooth="yes"/>
      <point x="198" y="328" type="line" smooth="yes"/>
      <point x="198" y="341"/>
      <point x="190" y="348"/>
      <point x="182" y="348" type="curve" smooth="yes"/>
      <point x="175" y="348"/>
      <point x="167" y="341"/>
      <point x="167" y="328" type="curve" smooth="yes"/>
      <point x="167" y="169" type="line" smooth="yes"/>
      <point x="167" y="143"/>
      <point x="189" y="128"/>
      <point x="211" y="128" type="curve" smooth="yes"/>
      <point x="232" y="128"/>
      <point x="253" y="141"/>
      <point x="253" y="169" type="curve" smooth="yes"/>
      <point x="253" y="202" type="line"/>
      <point x="353" y="202" type="line"/>
      <point x="353" y="169" type="line" smooth="yes"/>
      <point x="353" y="142"/>
      <point x="374" y="129"/>
      <point x="395" y="129" type="curve" smooth="yes"/>
      <point x="417" y="129"/>
      <point x="439" y="143"/>
      <point x="439" y="169" type="curve" smooth="yes"/>
      <point x="439" y="202" type="line"/>
      <point x="576" y="202" type="line"/>
      <point x="576" y="160" type="line" smooth="yes"/>
      <point x="576" y="58"/>
      <point x="506" y="-8"/>
      <point x="405" y="-8" type="curve" smooth="yes"/>
      <point x="373" y="-8"/>
      <point x="331" y="3"/>
      <point x="303" y="35" type="curve"/>
      <point x="274" y="3"/>
      <point x="233" y="-8"/>
    </contour>
    <contour>
      <point x="439" y="202" type="line" smooth="yes"/>
      <point x="439" y="508" type="line" smooth="yes"/>
      <point x="439" y="616"/>
      <point x="390" y="616"/>
      <point x="319" y="616" type="curve"/>
      <point x="319" y="755" type="line"/>
      <point x="495" y="755"/>
      <point x="576" y="695"/>
      <point x="576" y="520" type="curve" smooth="yes"/>
      <point x="576" y="202" type="line" smooth="yes"/>
    </contour>
    <contour>
      <point x="172" y="530" type="curve"/>
      <point x="35" y="566" type="line"/>
      <point x="35" y="678"/>
      <point x="149" y="755"/>
      <point x="262" y="755" type="curve"/>
      <point x="262" y="617" type="line"/>
      <point x="214" y="617"/>
      <point x="172" y="602"/>
    </contour>
  </outline>
</glyph>
<glyph name="si_Oo" format="1">
  <advance width="606"/>
  <unicode hex="0D95"/>
  <outline>
    <contour>
      <point x="201" y="-8" type="curve" smooth="yes"/>
      <point x="100" y="-8"/>
      <point x="30" y="58"/>
      <point x="30" y="160" type="curve" smooth="yes"/>
      <point x="30" y="342" type="line" smooth="yes"/>
      <point x="30" y="428"/>
      <point x="99" y="473"/>
      <point x="164" y="473" type="curve" smooth="yes"/>
      <point x="224" y="473"/>
      <point x="281" y="437"/>
      <point x="281" y="364" type="curve" smooth="yes"/>
      <point x="281" y="348" type="line" smooth="yes"/>
      <point x="281" y="337"/>
      <point x="289" y="331"/>
      <point x="296" y="331" type="curve" smooth="yes"/>
      <point x="304" y="331"/>
      <point x="312" y="337"/>
      <point x="312" y="348" type="curve" smooth="yes"/>
      <point x="312" y="469" type="line"/>
      <point x="404" y="469" type="line"/>
      <point x="404" y="340" type="line" smooth="yes"/>
      <point x="404" y="263"/>
      <point x="351" y="229"/>
      <point x="299" y="229" type="curve" smooth="yes"/>
      <point x="248" y="229"/>
      <point x="198" y="262"/>
      <point x="198" y="320" type="curve" smooth="yes"/>
      <point x="198" y="328" type="line" smooth="yes"/>
      <point x="198" y="341"/>
      <point x="190" y="348"/>
      <point x="182" y="348" type="curve" smooth="yes"/>
      <point x="175" y="348"/>
      <point x="167" y="341"/>
      <point x="167" y="328" type="curve" smooth="yes"/>
      <point x="167" y="169" type="line" smooth="yes"/>
      <point x="167" y="143"/>
      <point x="189" y="128"/>
      <point x="211" y="128" type="curve" smooth="yes"/>
      <point x="232" y="128"/>
      <point x="253" y="141"/>
      <point x="253" y="169" type="curve" smooth="yes"/>
      <point x="253" y="202" type="line"/>
      <point x="353" y="202" type="line"/>
      <point x="353" y="169" type="line" smooth="yes"/>
      <point x="353" y="142"/>
      <point x="374" y="129"/>
      <point x="395" y="129" type="curve" smooth="yes"/>
      <point x="417" y="129"/>
      <point x="439" y="143"/>
      <point x="439" y="169" type="curve" smooth="yes"/>
      <point x="439" y="203" type="line"/>
      <point x="576" y="203" type="line"/>
      <point x="576" y="160" type="line" smooth="yes"/>
      <point x="576" y="58"/>
      <point x="506" y="-8"/>
      <point x="405" y="-8" type="curve" smooth="yes"/>
      <point x="373" y="-8"/>
      <point x="331" y="3"/>
      <point x="303" y="35" type="curve"/>
      <point x="274" y="3"/>
      <point x="233" y="-8"/>
    </contour>
    <contour>
      <point x="431" y="673" type="line"/>
      <point x="431" y="700"/>
      <point x="406" y="703"/>
      <point x="361" y="703" type="curve" smooth="yes"/>
      <point x="341" y="703" type="line"/>
      <point x="341" y="819" type="line"/>
      <point x="393" y="819" type="line" smooth="yes"/>
      <point x="541" y="819"/>
      <point x="566" y="756"/>
      <point x="566" y="673" type="curve"/>
    </contour>
    <contour>
      <point x="239" y="652" type="line" smooth="yes"/>
      <point x="217" y="652"/>
      <point x="204" y="662"/>
      <point x="204" y="676" type="curve" smooth="yes"/>
      <point x="204" y="689"/>
      <point x="210" y="703"/>
      <point x="239" y="703" type="curve" smooth="yes"/>
      <point x="284" y="703" type="line"/>
      <point x="284" y="819" type="line"/>
      <point x="193" y="819" type="line" smooth="yes"/>
      <point x="130" y="819"/>
      <point x="74" y="784"/>
      <point x="74" y="721" type="curve" smooth="yes"/>
      <point x="74" y="690"/>
      <point x="86" y="669"/>
      <point x="103" y="652" type="curve"/>
      <point x="68" y="652" type="line"/>
      <point x="68" y="522" type="line"/>
      <point x="348" y="522" type="line" smooth="yes"/>
      <point x="398" y="522"/>
      <point x="439" y="514"/>
      <point x="439" y="455" type="curve" smooth="yes"/>
      <point x="439" y="203" type="line"/>
      <point x="576" y="203" type="line"/>
      <point x="576" y="474" type="line" smooth="yes"/>
      <point x="576" y="590"/>
      <point x="508" y="652"/>
      <point x="348" y="652" type="curve" smooth="yes"/>
    </contour>
  </outline>
</glyph>
<glyph name="si_Ka" format="1">
  <advance width="800"/>
  <unicode hex="0D9A"/>
  <outline>
    <contour>
      <point x="30" y="439" type="line"/>
      <point x="44" y="537"/>
      <point x="137" y="567"/>
      <point x="198" y="567" type="curve" smooth="yes"/>
      <point x="271" y="567"/>
      <point x="320" y="533"/>
      <point x="337" y="502" type="curve"/>
      <point x="245" y="402" type="line"/>
      <point x="245" y="437"/>
      <point x="214" y="446"/>
      <point x="198" y="446" type="curve" smooth="yes"/>
      <point x="164" y="446"/>
      <point x="147" y="423"/>
      <point x="147" y="402" type="curve"/>
    </contour>
    <contour>
      <point x="30" y="160" type="curve"/>
      <point x="147" y="255" type="line"/>
      <point x="166" y="239"/>
      <point x="181" y="221"/>
      <point x="181" y="202" type="curve"/>
      <point x="181" y="160" type="line" smooth="yes"/>
      <point x="181" y="141"/>
      <point x="196" y="132"/>
      <point x="211" y="132" type="curve" smooth="yes"/>
      <point x="225" y="132"/>
      <point x="240" y="141"/>
      <point x="240" y="160" type="curve" smooth="yes"/>
      <point x="240" y="202" type="line"/>
      <point x="340" y="202" type="line"/>
      <point x="340" y="162" type="line" smooth="yes"/>
      <point x="340" y="142"/>
      <point x="355" y="132"/>
      <point x="370" y="132" type="curve" smooth="yes"/>
      <point x="385" y="132"/>
      <point x="400" y="142"/>
      <point x="400" y="162" type="curve" smooth="yes"/>
      <point x="400" y="202" type="line" smooth="yes"/>
      <point x="400" y="233"/>
      <point x="394" y="259"/>
      <point x="351" y="276" type="curve"/>
      <point x="448" y="354" type="line"/>
      <point x="512" y="327"/>
      <point x="529" y="280"/>
      <point x="529" y="218" type="curve" smooth="yes"/>
      <point x="529" y="136" type="line" smooth="yes"/>
      <point x="529" y="47"/>
      <point x="455" y="-7"/>
      <point x="385" y="-7" type="curve" smooth="yes"/>
      <point x="349" y="-7"/>
      <point x="314" y="6"/>
      <point x="290" y="36" type="curve"/>
      <point x="270" y="6"/>
      <point x="237" y="-7"/>
      <point x="203" y="-7" type="curve" smooth="yes"/>
      <point x="137" y="-7"/>
      <point x="65" y="42"/>
      <point x="65" y="106" type="curve" smooth="yes"/>
      <point x="65" y="122" type="line" smooth="yes"/>
      <point x="65" y="142"/>
      <point x="64" y="162"/>
      <point x="41" y="162" type="curve" smooth="yes"/>
      <point x="38" y="162"/>
      <point x="34" y="161"/>
    </contour>
    <contour>
      <point x="30" y="160" type="line"/>
      <point x="30" y="259" type="line"/>
      <point x="301" y="480" type="line"/>
      <point x="361" y="542"/>
      <point x="445" y="574"/>
      <point x="525" y="574" type="curve" smooth="yes"/>
      <point x="652" y="574"/>
      <point x="770" y="493"/>
      <point x="770" y="321" type="curve" smooth="yes"/>
      <point x="770" y="205" type="line" smooth="yes"/>
      <point x="770" y="89"/>
      <point x="713" y="-1"/>
      <point x="574" y="-1" type="curve"/>
      <point x="574" y="142" type="line"/>
      <point x="626" y="142"/>
      <point x="630" y="181"/>
      <point x="630" y="205" type="curve" smooth="yes"/>
      <point x="630" y="307" type="line" smooth="yes"/>
      <point x="630" y="382"/>
      <point x="572" y="434"/>
      <point x="509" y="434" type="curve" smooth="yes"/>
      <point x="481" y="434"/>
      <point x="451" y="423"/>
      <point x="425" y="400" type="curve"/>
      <point x="155" y="181" type="line"/>
    </contour>
  </outline>
</glyph>
<glyph name="si_Kha" format="1">
  <advance width="625"/>
  <unicode hex="0D9B"/>
  <outline>
    <contour>
      <point x="440" y="-7" type="curve" smooth="yes"/>
      <point x="352" y="-7"/>
      <point x="260" y="59"/>
      <point x="260" y="134" type="curve" smooth="yes"/>
      <point x="260" y="222" type="line"/>
      <point x="395" y="222" type="line"/>
      <point x="395" y="176" type="line" smooth="yes"/>
      <point x="395" y="155"/>
      <point x="410" y="145"/>
      <point x="425" y="145" type="curve" smooth="yes"/>
      <point x="440" y="145"/>
      <point x="455" y="155"/>
      <point x="455" y="176" type="curve" smooth="yes"/>
      <point x="455" y="500" type="line" smooth="yes"/>
      <point x="455" y="579"/>
      <point x="438" y="616"/>
      <point x="360" y="616" type="curve"/>
      <point x="329" y="616" type="line"/>
      <point x="329" y="755" type="line"/>
      <point x="360" y="755" type="line"/>
      <point x="494" y="755"/>
      <point x="595" y="699"/>
      <point x="595" y="500" type="curve" smooth="yes"/>
      <point x="595" y="199" type="line" smooth="yes"/>
      <point x="595" y="48"/>
      <point x="519" y="-7"/>
    </contour>
    <contour>
      <point x="260" y="-65" type="line"/>
      <point x="260" y="261" type="line" smooth="yes"/>
      <point x="260" y="296"/>
      <point x="237" y="313"/>
      <point x="213" y="313" type="curve" smooth="yes"/>
      <point x="189" y="313"/>
      <point x="165" y="295"/>
      <point x="165" y="261" type="curve" smooth="yes"/>
      <point x="165" y="202" type="line" smooth="yes"/>
      <point x="165" y="166"/>
      <point x="169" y="140"/>
      <point x="214" y="140" type="curve"/>
      <point x="214" y="0" type="line"/>
      <point x="62" y="0"/>
      <point x="30" y="92"/>
      <point x="30" y="189" type="curve" smooth="yes"/>
      <point x="30" y="273" type="line" smooth="yes"/>
      <point x="30" y="395"/>
      <point x="125" y="452"/>
      <point x="218" y="452" type="curve" smooth="yes"/>
      <point x="308" y="452"/>
      <point x="395" y="399"/>
      <point x="395" y="300" type="curve" smooth="yes"/>
      <point x="395" y="-65" type="line"/>
    </contour>
    <contour>
      <point x="183" y="530" type="curve"/>
      <point x="46" y="566" type="line"/>
      <point x="46" y="678"/>
      <point x="160" y="755"/>
      <point x="273" y="755" type="curve"/>
      <point x="273" y="616" type="line"/>
      <point x="225" y="616"/>
      <point x="183" y="602"/>
    </contour>
  </outline>
</glyph>
<glyph name="si_Ga" format="1">
  <advance width="717"/>
  <unicode hex="0D9C"/>
  <outline>
    <contour>
      <point x="271" y="241" type="line"/>
      <point x="271" y="347" type="line"/>
      <point x="371" y="347" type="line"/>
      <point x="407" y="347"/>
      <point x="461" y="325"/>
      <point x="461" y="216" type="curve" smooth="yes"/>
      <point x="461" y="166" type="line" smooth="yes"/>
      <point x="461" y="45"/>
      <point x="400" y="-8"/>
      <point x="283" y="-8" type="curve"/>
      <point x="283" y="135" type="line" smooth="yes"/>
      <point x="336" y="135"/>
      <point x="337" y="171"/>
      <point x="337" y="188" type="curve" smooth="yes"/>
      <point x="337" y="205"/>
      <point x="336" y="241"/>
      <point x="283" y="241" type="curve" smooth="yes"/>
    </contour>
    <contour>
      <point x="227" y="-8" type="line"/>
      <point x="88" y="-8"/>
      <point x="30" y="82"/>
      <point x="30" y="198" type="curve" smooth="yes"/>
      <point x="30" y="358" type="line" smooth="yes"/>
      <point x="30" y="474"/>
      <point x="88" y="564"/>
      <point x="227" y="564" type="curve"/>
      <point x="227" y="421" type="line"/>
      <point x="175" y="421"/>
      <point x="171" y="376"/>
      <point x="171" y="348" type="curve" smooth="yes"/>
      <point x="171" y="198" type="line" smooth="yes"/>
      <point x="171" y="174"/>
      <point x="175" y="135"/>
      <point x="227" y="135" type="curve"/>
    </contour>
    <contour>
      <point x="490" y="-8" type="curve"/>
      <point x="490" y="135" type="line"/>
      <point x="542" y="135"/>
      <point x="546" y="174"/>
      <point x="546" y="198" type="curve" smooth="yes"/>
      <point x="546" y="348" type="line" smooth="yes"/>
      <point x="546" y="376"/>
      <point x="542" y="421"/>
      <point x="490" y="421" type="curve"/>
      <point x="490" y="564" type="line"/>
      <point x="629" y="564"/>
      <point x="687" y="474"/>
      <point x="687" y="358" type="curve" smooth="yes"/>
      <point x="687" y="198" type="line" smooth="yes"/>
      <point x="687" y="82"/>
      <point x="629" y="-8"/>
    </contour>
    <contour>
      <point x="254" y="241" type="line" smooth="yes"/>
      <point x="254" y="350" type="line" smooth="yes"/>
      <point x="254" y="468"/>
      <point x="290" y="564"/>
      <point x="434" y="564" type="curve"/>
      <point x="434" y="421" type="line"/>
      <point x="388" y="421"/>
      <point x="393" y="376"/>
      <point x="393" y="350" type="curve" smooth="yes"/>
      <point x="393" y="241" type="line"/>
    </contour>
  </outline>
</glyph>
<glyph name="si_Gha" format="1">
  <advance width="687"/>
  <unicode hex="0D9D"/>
  <outline>
    <contour>
      <point x="230" y="-11" type="curve" smooth="yes"/>
      <point x="133" y="-11"/>
      <point x="67" y="55"/>
      <point x="67" y="157" type="curve" smooth="yes"/>
      <point x="67" y="199" type="line"/>
      <point x="206" y="199" type="line"/>
      <point x="206" y="166" type="line" smooth="yes"/>
      <point x="206" y="154"/>
      <point x="215" y="132"/>
      <point x="245" y="132" type="curve" smooth="yes"/>
      <point x="275" y="132"/>
      <point x="283" y="153"/>
      <point x="283" y="166" type="curve"/>
      <point x="283" y="181"/>
      <point x="290" y="204"/>
      <point x="317" y="204" type="curve" smooth="yes"/>
      <point x="407" y="204" type="line" smooth="yes"/>
      <point x="434" y="204"/>
      <point x="441" y="181"/>
      <point x="441" y="166" type="curve"/>
      <point x="441" y="153"/>
      <point x="449" y="132"/>
      <point x="479" y="132" type="curve" smooth="yes"/>
      <point x="509" y="132"/>
      <point x="518" y="154"/>
      <point x="518" y="166" type="curve" smooth="yes"/>
      <point x="518" y="199" type="line"/>
      <point x="657" y="199" type="line"/>
      <point x="657" y="157" type="line" smooth="yes"/>
      <point x="657" y="55"/>
      <point x="591" y="-11"/>
      <point x="494" y="-11" type="curve" smooth="yes"/>
      <point x="419" y="-11"/>
      <point x="387" y="21"/>
      <point x="387" y="68" type="curve" smooth="yes"/>
      <point x="387" y="90"/>
      <point x="374" y="101"/>
      <point x="362" y="101" type="curve" smooth="yes"/>
      <point x="349" y="101"/>
      <point x="337" y="90"/>
      <point x="337" y="68" type="curve" smooth="yes"/>
      <point x="337" y="21"/>
      <point x="305" y="-11"/>
    </contour>
    <contour>
      <point x="78" y="460" type="line"/>
      <point x="102" y="537"/>
      <point x="170" y="575"/>
      <point x="241" y="575" type="curve" smooth="yes"/>
      <point x="283" y="575"/>
      <point x="326" y="562"/>
      <point x="362" y="536" type="curve"/>
      <point x="398" y="562"/>
      <point x="441" y="575"/>
      <point x="483" y="575" type="curve" smooth="yes"/>
      <point x="554" y="575"/>
      <point x="622" y="537"/>
      <point x="646" y="460" type="curve"/>
      <point x="528" y="421" type="line"/>
      <point x="524" y="436"/>
      <point x="509" y="451"/>
      <point x="481" y="451" type="curve" smooth="yes"/>
      <point x="466" y="451"/>
      <point x="426" y="443"/>
      <point x="426" y="397" type="curve"/>
      <point x="426" y="378" type="line"/>
      <point x="298" y="378" type="line"/>
      <point x="298" y="397" type="line"/>
      <point x="298" y="443"/>
      <point x="258" y="451"/>
      <point x="243" y="451" type="curve" smooth="yes"/>
      <point x="215" y="451"/>
      <point x="200" y="436"/>
      <point x="196" y="421" type="curve"/>
    </contour>
    <contour>
      <point x="30" y="283" type="line"/>
      <point x="30" y="402" type="line"/>
      <point x="503" y="402" type="line" smooth="yes"/>
      <point x="565" y="402"/>
      <point x="657" y="392"/>
      <point x="657" y="279" type="curve" smooth="yes"/>
      <point x="657" y="251" type="line"/>
      <point x="518" y="251" type="line"/>
      <point x="518" y="251"/>
      <point x="518" y="251"/>
      <point x="518" y="251" type="curve" smooth="yes"/>
      <point x="518" y="266"/>
      <point x="509" y="283"/>
      <point x="481" y="283" type="curve" smooth="yes"/>
      <point x="246" y="283" type="line" smooth="yes"/>
      <point x="213" y="283"/>
      <point x="206" y="263"/>
      <point x="206" y="251" type="curve" smooth="yes"/>
      <point x="206" y="251"/>
      <point x="206" y="251"/>
      <point x="206" y="251" type="curve"/>
      <point x="67" y="251" type="line"/>
      <point x="67" y="254"/>
      <point x="68" y="265"/>
      <point x="68" y="273" type="curve" smooth="yes"/>
      <point x="69" y="278"/>
      <point x="70" y="282"/>
      <point x="71" y="283" type="curve"/>
    </contour>
  </outline>
</glyph>
<glyph name="si_Nga" format="1">
  <advance width="593"/>
  <unicode hex="0D9E"/>
  <outline>
    <contour>
      <point x="212" y="-8" type="curve" smooth="yes"/>
      <point x="105" y="-8"/>
      <point x="30" y="58"/>
      <point x="30" y="160" type="curve" smooth="yes"/>
      <point x="30" y="197" type="line" smooth="yes"/>
      <point x="30" y="279"/>
      <point x="32" y="351"/>
      <point x="168" y="351" type="curve"/>
      <point x="214" y="351" type="line"/>
      <point x="214" y="251" type="line"/>
      <point x="201" y="251" type="line"/>
      <point x="182" y="251"/>
      <point x="168" y="242"/>
      <point x="168" y="217" type="curve" smooth="yes"/>
      <point x="168" y="166" type="line" smooth="yes"/>
      <point x="168" y="154"/>
      <point x="177" y="132"/>
      <point x="207" y="132" type="curve" smooth="yes"/>
      <point x="237" y="132"/>
      <point x="245" y="153"/>
      <point x="245" y="166" type="curve" smooth="yes"/>
      <point x="245" y="202" type="line"/>
      <point x="345" y="202" type="line"/>
      <point x="345" y="166" type="line" smooth="yes"/>
      <point x="345" y="153"/>
      <point x="353" y="132"/>
      <point x="383" y="132" type="curve" smooth="yes"/>
      <point x="413" y="132"/>
      <point x="422" y="154"/>
      <point x="422" y="166" type="curve" smooth="yes"/>
      <point x="422" y="200" type="line"/>
      <point x="563" y="200" type="line"/>
      <point x="563" y="160" type="line" smooth="yes"/>
      <point x="563" y="58"/>
      <point x="496" y="-8"/>
      <point x="404" y="-8" type="curve" smooth="yes"/>
      <point x="370" y="-8"/>
      <point x="329" y="3"/>
      <point x="300" y="35" type="curve"/>
      <point x="276" y="3"/>
      <point x="240" y="-8"/>
    </contour>
    <contour>
      <point x="53" y="374" type="line" smooth="yes"/>
      <point x="53" y="436"/>
      <point x="93" y="497"/>
      <point x="173" y="497" type="curve"/>
      <point x="238" y="497" type="line"/>
      <point x="318" y="497"/>
      <point x="358" y="435"/>
      <point x="358" y="374" type="curve" smooth="yes"/>
      <point x="358" y="312"/>
      <point x="318" y="251"/>
      <point x="238" y="251" type="curve"/>
      <point x="214" y="251" type="line"/>
      <point x="214" y="351" type="line"/>
      <point x="229" y="351" type="line" smooth="yes"/>
      <point x="244" y="351"/>
      <point x="252" y="363"/>
      <point x="252" y="374" type="curve" smooth="yes"/>
      <point x="252" y="386"/>
      <point x="245" y="397"/>
      <point x="229" y="397" type="curve" smooth="yes"/>
      <point x="174" y="397" type="line"/>
      <point x="158" y="397"/>
      <point x="151" y="385"/>
      <point x="151" y="374" type="curve" smooth="yes"/>
    </contour>
    <contour>
      <point x="422" y="200" type="line"/>
      <point x="422" y="496" type="line" smooth="yes"/>
      <point x="422" y="581"/>
      <point x="411" y="614"/>
      <point x="327" y="614" type="curve"/>
      <point x="327" y="753" type="line"/>
      <point x="468" y="753"/>
      <point x="563" y="704"/>
      <point x="563" y="518" type="curve" smooth="yes"/>
      <point x="563" y="200" type="line"/>
    </contour>
    <contour>
      <point x="36" y="564" type="line"/>
      <point x="36" y="676"/>
      <point x="158" y="753"/>
      <point x="271" y="753" type="curve"/>
      <point x="271" y="615" type="line"/>
      <point x="223" y="615"/>
      <point x="173" y="600"/>
      <point x="173" y="528" type="curve"/>
    </contour>
  </outline>
</glyph>
<glyph name="si_Nnga" format="1">
  <advance width="911"/>
  <unicode hex="0D9F"/>
  <outline>
    <contour>
      <point x="30" y="209" type="curve" smooth="yes"/>
      <point x="30" y="287" type="line" smooth="yes"/>
      <point x="30" y="452"/>
      <point x="61" y="564"/>
      <point x="265" y="564" type="curve" smooth="yes"/>
      <point x="316" y="564"/>
      <point x="370" y="564"/>
      <point x="421" y="564" type="curve"/>
      <point x="421" y="421" type="line"/>
      <point x="224" y="421" type="line" smooth="yes"/>
      <point x="174" y="421"/>
      <point x="166" y="376"/>
      <point x="166" y="287" type="curve" smooth="yes"/>
      <point x="166" y="209" type="line" smooth="yes"/>
      <point x="166" y="128"/>
      <point x="169" y="88"/>
      <point x="233" y="11" type="curve"/>
      <point x="103" y="-29" type="line"/>
      <point x="43" y="48"/>
      <point x="30" y="118"/>
    </contour>
    <contour>
      <point x="465" y="241" type="line"/>
      <point x="465" y="347" type="line"/>
      <point x="565" y="347" type="line"/>
      <point x="601" y="347"/>
      <point x="655" y="325"/>
      <point x="655" y="216" type="curve" smooth="yes"/>
      <point x="655" y="166" type="line" smooth="yes"/>
      <point x="655" y="45"/>
      <point x="594" y="-8"/>
      <point x="477" y="-8" type="curve"/>
      <point x="477" y="135" type="line" smooth="yes"/>
      <point x="530" y="135"/>
      <point x="531" y="171"/>
      <point x="531" y="188" type="curve" smooth="yes"/>
      <point x="531" y="205"/>
      <point x="530" y="241"/>
      <point x="477" y="241" type="curve" smooth="yes"/>
    </contour>
    <contour>
      <point x="421" y="-8" type="line"/>
      <point x="282" y="-8"/>
      <point x="224" y="82"/>
      <point x="224" y="198" type="curve" smooth="yes"/>
      <point x="224" y="358" type="line" smooth="yes"/>
      <point x="224" y="474"/>
      <point x="282" y="564"/>
      <point x="421" y="564" type="curve"/>
      <point x="421" y="421" type="line"/>
      <point x="369" y="421"/>
      <point x="365" y="376"/>
      <point x="365" y="348" type="curve" smooth="yes"/>
      <point x="365" y="198" type="line" smooth="yes"/>
      <point x="365" y="174"/>
      <point x="369" y="135"/>
      <point x="421" y="135" type="curve"/>
    </contour>
    <contour>
      <point x="684" y="-8" type="curve"/>
      <point x="684" y="135" type="line"/>
      <point x="736" y="135"/>
      <point x="740" y="174"/>
      <point x="740" y="198" type="curve" smooth="yes"/>
      <point x="740" y="348" type="line" smooth="yes"/>
      <point x="740" y="376"/>
      <point x="736" y="421"/>
      <point x="684" y="421" type="curve"/>
      <point x="684" y="564" type="line"/>
      <point x="823" y="564"/>
      <point x="881" y="474"/>
      <point x="881" y="358" type="curve" smooth="yes"/>
      <point x="881" y="198" type="line" smooth="yes"/>
      <point x="881" y="82"/>
      <point x="823" y="-8"/>
    </contour>
    <contour>
      <point x="448" y="241" type="line" smooth="yes"/>
      <point x="448" y="350" type="line" smooth="yes"/>
      <point x="448" y="468"/>
      <point x="484" y="564"/>
      <point x="628" y="564" type="curve"/>
      <point x="628" y="421" type="line"/>
      <point x="582" y="421"/>
      <point x="587" y="376"/>
      <point x="587" y="350" type="curve" smooth="yes"/>
      <point x="587" y="241" type="line"/>
    </contour>
  </outline>
</glyph>
<glyph name="si_Ca" format="1">
  <advance width="604"/>
  <unicode hex="0DA0"/>
  <outline>
    <contour>
      <point x="283" y="-5" type="line"/>
      <point x="156" y="-5"/>
      <point x="69" y="87"/>
      <point x="69" y="192" type="curve" smooth="yes"/>
      <point x="69" y="212"/>
      <point x="71" y="233"/>
      <point x="80" y="252" type="curve"/>
      <point x="30" y="252" type="line"/>
      <point x="30" y="354" type="line"/>
      <point x="247" y="354" type="line"/>
      <point x="247" y="360" type="line"/>
      <point x="247" y="389"/>
      <point x="226" y="400"/>
      <point x="205" y="400" type="curve" smooth="yes"/>
      <point x="195" y="400"/>
      <point x="170" y="397"/>
      <point x="165" y="376" type="curve"/>
      <point x="66" y="402" type="line"/>
      <point x="92" y="490"/>
      <point x="169" y="503"/>
      <point x="205" y="503" type="curve" smooth="yes"/>
      <point x="249" y="503"/>
      <point x="294" y="486"/>
      <point x="317" y="459" type="curve" smooth="yes"/>
      <point x="340" y="432"/>
      <point x="350" y="406"/>
      <point x="350" y="350" type="curve" smooth="yes"/>
      <point x="350" y="252" type="line"/>
      <point x="266" y="252" type="line" smooth="yes"/>
      <point x="229" y="252"/>
      <point x="208" y="224"/>
      <point x="208" y="196" type="curve" smooth="yes"/>
      <point x="208" y="166"/>
      <point x="231" y="135"/>
      <point x="283" y="135" type="curve"/>
    </contour>
    <contour>
      <point x="339" y="-5" type="curve"/>
      <point x="339" y="135" type="line"/>
      <point x="381" y="135"/>
      <point x="434" y="149"/>
      <point x="434" y="250" type="curve" smooth="yes"/>
      <point x="434" y="498" type="line" smooth="yes"/>
      <point x="434" y="577"/>
      <point x="417" y="616"/>
      <point x="339" y="616" type="curve"/>
      <point x="339" y="755" type="line"/>
      <point x="473" y="755"/>
      <point x="574" y="700"/>
      <point x="574" y="520" type="curve" smooth="yes"/>
      <point x="574" y="250" type="line" smooth="yes"/>
      <point x="574" y="78"/>
      <point x="494" y="-5"/>
    </contour>
    <contour>
      <point x="203" y="530" type="curve"/>
      <point x="66" y="566" type="line"/>
      <point x="66" y="672"/>
      <point x="176" y="755"/>
      <point x="283" y="755" type="curve"/>
      <point x="283" y="617" type="line"/>
      <point x="243" y="617"/>
      <point x="203" y="596"/>
    </contour>
  </outline>
</glyph>
<glyph name="si_Cha" format="1">
  <advance width="655"/>
  <unicode hex="0DA1"/>
  <outline>
    <contour>
      <point x="289" y="-12" type="line" smooth="yes"/>
      <point x="112" y="-12"/>
      <point x="34" y="59"/>
      <point x="34" y="202" type="curve"/>
      <point x="174" y="202" type="line"/>
      <point x="174" y="149"/>
      <point x="215" y="123"/>
      <point x="278" y="123" type="curve" smooth="yes"/>
      <point x="350" y="123" type="line" smooth="yes"/>
      <point x="415" y="123"/>
      <point x="454" y="151"/>
      <point x="454" y="202" type="curve"/>
      <point x="454" y="236" type="line"/>
      <point x="417" y="235" type="line" smooth="yes"/>
      <point x="315" y="235"/>
      <point x="250" y="310"/>
      <point x="250" y="402" type="curve" smooth="yes"/>
      <point x="250" y="494"/>
      <point x="325" y="569"/>
      <point x="418" y="569" type="curve" smooth="yes"/>
      <point x="510" y="569"/>
      <point x="585" y="494"/>
      <point x="585" y="402" type="curve" smooth="yes"/>
      <point x="461" y="402" type="line" smooth="yes"/>
      <point x="461" y="425"/>
      <point x="442" y="444"/>
      <point x="419" y="444" type="curve" smooth="yes"/>
      <point x="396" y="444"/>
      <point x="377" y="425"/>
      <point x="377" y="402" type="curve" smooth="yes"/>
      <point x="377" y="379"/>
      <point x="396" y="360"/>
      <point x="419" y="360" type="curve" smooth="yes"/>
      <point x="434" y="360"/>
      <point x="448" y="360"/>
      <point x="496" y="360" type="curve"/>
      <point x="574" y="360"/>
      <point x="594" y="316"/>
      <point x="594" y="262" type="curve"/>
      <point x="594" y="202" type="line"/>
      <point x="594" y="64"/>
      <point x="511" y="-12"/>
      <point x="342" y="-12" type="curve" smooth="yes"/>
    </contour>
    <contour>
      <point x="35" y="251" type="line"/>
      <point x="35" y="373"/>
      <point x="101" y="402"/>
      <point x="198" y="402" type="curve" smooth="yes"/>
      <point x="250" y="402" type="line"/>
      <point x="250" y="442"/>
      <point x="210" y="451"/>
      <point x="195" y="451" type="curve" smooth="yes"/>
      <point x="167" y="451"/>
      <point x="152" y="436"/>
      <point x="148" y="421" type="curve"/>
      <point x="30" y="460" type="line"/>
      <point x="54" y="537"/>
      <point x="122" y="575"/>
      <point x="193" y="575" type="curve" smooth="yes"/>
      <point x="250" y="575"/>
      <point x="298" y="557"/>
      <point x="332" y="512" type="curve" smooth="yes"/>
      <point x="366" y="467"/>
      <point x="386" y="394"/>
      <point x="386" y="283" type="curve"/>
      <point x="209" y="283" type="line" smooth="yes"/>
      <point x="176" y="283"/>
      <point x="174" y="262"/>
      <point x="174" y="251" type="curve"/>
    </contour>
    <contour>
      <point x="438" y="470" type="line"/>
      <point x="304" y="522" type="line"/>
      <point x="510" y="793" type="line"/>
      <point x="655" y="755" type="line"/>
    </contour>
  </outline>
</glyph>
<glyph name="si_Ja" format="1">
  <advance width="653"/>
  <unicode hex="0DA2"/>
  <outline>
    <contour>
      <point x="30" y="460" type="line"/>
      <point x="54" y="537"/>
      <point x="122" y="575"/>
      <point x="193" y="575" type="curve" smooth="yes"/>
      <point x="235" y="575"/>
      <point x="278" y="562"/>
      <point x="314" y="536" type="curve"/>
      <point x="350" y="562"/>
      <point x="393" y="575"/>
      <point x="435" y="575" type="curve" smooth="yes"/>
      <point x="506" y="575"/>
      <point x="574" y="537"/>
      <point x="598" y="460" type="curve"/>
      <point x="480" y="421" type="line"/>
      <point x="476" y="436"/>
      <point x="461" y="451"/>
      <point x="433" y="451" type="curve" smooth="yes"/>
      <point x="418" y="451"/>
      <point x="378" y="443"/>
      <point x="378" y="397" type="curve"/>
      <point x="378" y="378" type="line"/>
      <point x="250" y="378" type="line"/>
      <point x="250" y="397" type="line"/>
      <point x="250" y="443"/>
      <point x="210" y="451"/>
      <point x="195" y="451" type="curve" smooth="yes"/>
      <point x="167" y="451"/>
      <point x="152" y="436"/>
      <point x="148" y="421" type="curve"/>
    </contour>
    <contour>
      <point x="289" y="-12" type="line" smooth="yes"/>
      <point x="112" y="-12"/>
      <point x="34" y="59"/>
      <point x="34" y="202" type="curve"/>
      <point x="174" y="202" type="line"/>
      <point x="174" y="149"/>
      <point x="215" y="123"/>
      <point x="278" y="123" type="curve" smooth="yes"/>
      <point x="350" y="123" type="line" smooth="yes"/>
      <point x="415" y="123"/>
      <point x="454" y="151"/>
      <point x="454" y="202" type="curve"/>
      <point x="594" y="202" type="line"/>
      <point x="594" y="64"/>
      <point x="511" y="-12"/>
      <point x="342" y="-12" type="curve" smooth="yes"/>
    </contour>
    <contour>
      <point x="35" y="251" type="line"/>
      <point x="35" y="373"/>
      <point x="101" y="402"/>
      <point x="198" y="402" type="curve" smooth="yes"/>
      <point x="423" y="402" type="line" smooth="yes"/>
      <point x="531" y="402"/>
      <point x="594" y="377"/>
      <point x="594" y="251" type="curve"/>
      <point x="455" y="251" type="line"/>
      <point x="455" y="263"/>
      <point x="455" y="283"/>
      <point x="426" y="283" type="curve" smooth="yes"/>
      <point x="209" y="283" type="line" smooth="yes"/>
      <point x="176" y="283"/>
      <point x="174" y="262"/>
      <point x="174" y="251" type="curve"/>
    </contour>
    <contour>
      <point x="302" y="522" type="line"/>
      <point x="508" y="793" type="line"/>
      <point x="653" y="755" type="line"/>
      <point x="436" y="470" type="line"/>
    </contour>
  </outline>
</glyph>
<glyph name="si_Jha" format="1">
  <advance width="1138"/>
  <unicode hex="0DA3"/>
  <outline>
    <contour>
      <point x="30" y="160" type="curve"/>
      <point x="147" y="255" type="line"/>
      <point x="166" y="239"/>
      <point x="181" y="221"/>
      <point x="181" y="202" type="curve"/>
      <point x="181" y="160" type="line" smooth="yes"/>
      <point x="181" y="141"/>
      <point x="196" y="132"/>
      <point x="211" y="132" type="curve" smooth="yes"/>
      <point x="225" y="132"/>
      <point x="240" y="141"/>
      <point x="240" y="160" type="curve" smooth="yes"/>
      <point x="240" y="202" type="line"/>
      <point x="340" y="202" type="line"/>
      <point x="340" y="162" type="line" smooth="yes"/>
      <point x="340" y="142"/>
      <point x="355" y="132"/>
      <point x="370" y="132" type="curve" smooth="yes"/>
      <point x="385" y="132"/>
      <point x="400" y="142"/>
      <point x="400" y="162" type="curve" smooth="yes"/>
      <point x="400" y="202" type="line" smooth="yes"/>
      <point x="400" y="233"/>
      <point x="394" y="259"/>
      <point x="351" y="276" type="curve"/>
      <point x="448" y="354" type="line"/>
      <point x="512" y="327"/>
      <point x="529" y="280"/>
      <point x="529" y="218" type="curve" smooth="yes"/>
      <point x="529" y="136" type="line" smooth="yes"/>
      <point x="529" y="47"/>
      <point x="455" y="-7"/>
      <point x="385" y="-7" type="curve" smooth="yes"/>
      <point x="349" y="-7"/>
      <point x="314" y="6"/>
      <point x="290" y="36" type="curve"/>
      <point x="270" y="6"/>
      <point x="237" y="-7"/>
      <point x="203" y="-7" type="curve" smooth="yes"/>
      <point x="137" y="-7"/>
      <point x="65" y="42"/>
      <point x="65" y="106" type="curve" smooth="yes"/>
      <point x="65" y="122" type="line" smooth="yes"/>
      <point x="65" y="142"/>
      <point x="64" y="162"/>
      <point x="41" y="162" type="curve" smooth="yes"/>
      <point x="38" y="162"/>
      <point x="34" y="161"/>
    </contour>
    <contour>
      <point x="757" y="-8" type="curve" smooth="yes"/>
      <point x="650" y="-8"/>
      <point x="575" y="58"/>
      <point x="575" y="160" type="curve" smooth="yes"/>
      <point x="575" y="262" type="line" smooth="yes"/>
      <point x="575" y="323"/>
      <point x="583" y="399"/>
      <point x="668" y="435" type="curve"/>
      <point x="746" y="454" type="line"/>
      <point x="808" y="336" type="line"/>
      <point x="786" y="336" type="line"/>
      <point x="746" y="336"/>
      <point x="713" y="322"/>
      <point x="713" y="262" type="curve" smooth="yes"/>
      <point x="713" y="166" type="line" smooth="yes"/>
      <point x="713" y="154"/>
      <point x="722" y="132"/>
      <point x="752" y="132" type="curve" smooth="yes"/>
      <point x="782" y="132"/>
      <point x="790" y="153"/>
      <point x="790" y="166" type="curve" smooth="yes"/>
      <point x="790" y="202" type="line"/>
      <point x="890" y="202" type="line"/>
      <point x="890" y="166" type="line" smooth="yes"/>
      <point x="890" y="153"/>
      <point x="898" y="132"/>
      <point x="928" y="132" type="curve" smooth="yes"/>
      <point x="958" y="132"/>
      <point x="967" y="154"/>
      <point x="967" y="166" type="curve" smooth="yes"/>
      <point x="967" y="202" type="line"/>
      <point x="1108" y="202" type="line"/>
      <point x="1108" y="160" type="line" smooth="yes"/>
      <point x="1108" y="58"/>
      <point x="1041" y="-8"/>
      <point x="949" y="-8" type="curve" smooth="yes"/>
      <point x="915" y="-8"/>
      <point x="874" y="3"/>
      <point x="845" y="35" type="curve"/>
      <point x="821" y="3"/>
      <point x="785" y="-8"/>
    </contour>
    <contour>
      <point x="30" y="160" type="line"/>
      <point x="30" y="259" type="line"/>
      <point x="335" y="509" type="line"/>
      <point x="398" y="556"/>
      <point x="477" y="578"/>
      <point x="551" y="578" type="curve" smooth="yes"/>
      <point x="686" y="578"/>
      <point x="808" y="509"/>
      <point x="808" y="336" type="curve"/>
      <point x="671" y="336" type="line"/>
      <point x="671" y="420"/>
      <point x="607" y="443"/>
      <point x="548" y="443" type="curve" smooth="yes"/>
      <point x="506" y="443"/>
      <point x="460" y="429"/>
      <point x="425" y="400" type="curve"/>
      <point x="155" y="181" type="line"/>
    </contour>
    <contour>
      <point x="967" y="202" type="line"/>
      <point x="967" y="498" type="line" smooth="yes"/>
      <point x="967" y="583"/>
      <point x="948" y="616"/>
      <point x="864" y="616" type="curve"/>
      <point x="864" y="755" type="line"/>
      <point x="1005" y="755"/>
      <point x="1108" y="706"/>
      <point x="1108" y="520" type="curve" smooth="yes"/>
      <point x="1108" y="202" type="line"/>
    </contour>
    <contour>
      <point x="30" y="439" type="line"/>
      <point x="44" y="537"/>
      <point x="137" y="567"/>
      <point x="198" y="567" type="curve" smooth="yes"/>
      <point x="271" y="567"/>
      <point x="320" y="533"/>
      <point x="337" y="502" type="curve"/>
      <point x="245" y="402" type="line"/>
      <point x="245" y="437"/>
      <point x="214" y="446"/>
      <point x="198" y="446" type="curve" smooth="yes"/>
      <point x="164" y="446"/>
      <point x="147" y="423"/>
      <point x="147" y="402" type="curve"/>
    </contour>
    <contour>
      <point x="598" y="637" type="line"/>
      <point x="635" y="711"/>
      <point x="719" y="755"/>
      <point x="808" y="755" type="curve"/>
      <point x="808" y="617" type="line"/>
      <point x="776" y="617"/>
      <point x="752" y="612"/>
      <point x="734" y="588" type="curve"/>
    </contour>
  </outline>
</glyph>
<glyph name="si_Jnya" format="1">
  <advance width="1083"/>
  <unicode hex="0DA5"/>
  <outline>
    <contour>
      <point x="790" y="-8" type="line" smooth="yes"/>
      <point x="652" y="-8"/>
      <point x="583" y="88"/>
      <point x="583" y="183" type="curve" smooth="yes"/>
      <point x="583" y="277"/>
      <point x="649" y="369"/>
      <point x="783" y="369" type="curve" smooth="yes"/>
      <point x="833" y="369" type="line"/>
      <point x="833" y="436"/>
      <point x="724" y="420"/>
      <point x="711" y="420" type="curve" smooth="yes"/>
      <point x="711" y="564" type="line"/>
      <point x="798" y="564"/>
      <point x="976" y="565"/>
      <point x="976" y="369" type="curve" smooth="yes"/>
      <point x="976" y="234" type="line"/>
      <point x="789" y="234" type="line" smooth="yes"/>
      <point x="741" y="234"/>
      <point x="719" y="208"/>
      <point x="719" y="182" type="curve" smooth="yes"/>
      <point x="719" y="155"/>
      <point x="743" y="128"/>
      <point x="790" y="128" type="curve" smooth="yes"/>
      <point x="812" y="128"/>
      <point x="823" y="128"/>
      <point x="827" y="128" type="curve" smooth="yes"/>
      <point x="860" y="128"/>
      <point x="889" y="132"/>
      <point x="902" y="164" type="curve"/>
      <point x="1030" y="130" type="line"/>
      <point x="1005" y="44"/>
      <point x="920" y="-8"/>
      <point x="827" y="-8" type="curve" smooth="yes"/>
    </contour>
    <contour>
      <point x="30" y="197" type="curve" smooth="yes"/>
      <point x="30" y="287" type="line" smooth="yes"/>
      <point x="30" y="452"/>
      <point x="61" y="564"/>
      <point x="265" y="564" type="curve" smooth="yes"/>
      <point x="316" y="564"/>
      <point x="370" y="564"/>
      <point x="421" y="564" type="curve"/>
      <point x="421" y="421" type="line"/>
      <point x="224" y="421" type="line" smooth="yes"/>
      <point x="174" y="421"/>
      <point x="166" y="376"/>
      <point x="166" y="287" type="curve" smooth="yes"/>
      <point x="166" y="197" type="line" smooth="yes"/>
      <point x="166" y="116"/>
      <point x="177" y="76"/>
      <point x="241" y="-1" type="curve"/>
      <point x="111" y="-41" type="line"/>
      <point x="51" y="36"/>
      <point x="30" y="106"/>
    </contour>
    <contour>
      <point x="465" y="241" type="line"/>
      <point x="465" y="347" type="line"/>
      <point x="565" y="347" type="line"/>
      <point x="601" y="347"/>
      <point x="655" y="304"/>
      <point x="655" y="195" type="curve" smooth="yes"/>
      <point x="655" y="166" type="line" smooth="yes"/>
      <point x="655" y="45"/>
      <point x="594" y="-8"/>
      <point x="477" y="-8" type="curve"/>
      <point x="477" y="135" type="line" smooth="yes"/>
      <point x="530" y="135"/>
      <point x="531" y="171"/>
      <point x="531" y="188" type="curve" smooth="yes"/>
      <point x="531" y="205"/>
      <point x="530" y="241"/>
      <point x="477" y="241" type="curve" smooth="yes"/>
    </contour>
    <contour>
      <point x="421" y="-8" type="line"/>
      <point x="282" y="-8"/>
      <point x="224" y="82"/>
      <point x="224" y="198" type="curve" smooth="yes"/>
      <point x="224" y="358" type="line" smooth="yes"/>
      <point x="224" y="474"/>
      <point x="282" y="564"/>
      <point x="421" y="564" type="curve"/>
      <point x="421" y="421" type="line"/>
      <point x="369" y="421"/>
      <point x="365" y="376"/>
      <point x="365" y="348" type="curve" smooth="yes"/>
      <point x="365" y="198" type="line" smooth="yes"/>
      <point x="365" y="174"/>
      <point x="369" y="135"/>
      <point x="421" y="135" type="curve"/>
    </contour>
    <contour>
      <point x="448" y="241" type="line" smooth="yes"/>
      <point x="448" y="350" type="line" smooth="yes"/>
      <point x="448" y="468"/>
      <point x="484" y="564"/>
      <point x="628" y="564" type="curve"/>
      <point x="656" y="564" type="line"/>
      <point x="656" y="421" type="line"/>
      <point x="628" y="421" type="line"/>
      <point x="582" y="421"/>
      <point x="587" y="376"/>
      <point x="587" y="350" type="curve" smooth="yes"/>
      <point x="587" y="241" type="line"/>
    </contour>
    <contour>
      <point x="900" y="-212" type="curve" smooth="yes"/>
      <point x="781" y="-212"/>
      <point x="714" y="-144"/>
      <point x="714" y="-53" type="curve"/>
      <point x="851" y="-53" type="line"/>
      <point x="851" y="-69"/>
      <point x="871" y="-86"/>
      <point x="900" y="-86" type="curve" smooth="yes"/>
      <point x="921" y="-86"/>
      <point x="945" y="-75"/>
      <point x="950" y="-55" type="curve"/>
      <point x="1083" y="-89" type="line"/>
      <point x="1061" y="-156"/>
      <point x="1006" y="-212"/>
    </contour>
  </outline>
</glyph>
<glyph name="si_Ndja" format="1">
  <advance width="828"/>
  <unicode hex="0DA6"/>
  <outline>
    <contour>
      <point x="106" y="-41" type="line"/>
      <point x="46" y="36"/>
      <point x="30" y="101"/>
      <point x="30" y="192" type="curve" smooth="yes"/>
      <point x="30" y="332" type="line" smooth="yes"/>
      <point x="30" y="467"/>
      <point x="124" y="572"/>
      <point x="245" y="572" type="curve" smooth="yes"/>
      <point x="271" y="572"/>
      <point x="354" y="569"/>
      <point x="321" y="553" type="curve"/>
      <point x="321" y="422" type="line"/>
      <point x="287" y="434"/>
      <point x="271" y="437"/>
      <point x="254" y="437" type="curve" smooth="yes"/>
      <point x="211" y="437"/>
      <point x="161" y="414"/>
      <point x="161" y="307" type="curve" smooth="yes"/>
      <point x="161" y="197" type="line" smooth="yes"/>
      <point x="161" y="116"/>
      <point x="172" y="76"/>
      <point x="236" y="-1" type="curve"/>
    </contour>
    <component base="si_Ja" xOffset="175"/>
  </outline>
</glyph>
<glyph name="si_Tta" format="1">
  <advance width="558"/>
  <unicode hex="0DA7"/>
  <outline>
    <contour>
      <point x="30" y="262" type="line" smooth="yes"/>
      <point x="30" y="344"/>
      <point x="45" y="474"/>
      <point x="241" y="474" type="curve"/>
      <point x="241" y="336" type="line"/>
      <point x="201" y="336"/>
      <point x="168" y="322"/>
      <point x="168" y="262" type="curve" smooth="yes"/>
      <point x="168" y="222" type="line" smooth="yes"/>
      <point x="168" y="183"/>
      <point x="189" y="135"/>
      <point x="241" y="135" type="curve"/>
      <point x="241" y="-5" type="line"/>
      <point x="97" y="-5"/>
      <point x="30" y="117"/>
      <point x="30" y="208" type="curve" smooth="yes"/>
    </contour>
    <contour>
      <point x="297" y="-5" type="curve"/>
      <point x="297" y="135" type="line"/>
      <point x="347" y="135"/>
      <point x="388" y="149"/>
      <point x="388" y="248" type="curve" smooth="yes"/>
      <point x="388" y="508" type="line" smooth="yes"/>
      <point x="388" y="603"/>
      <point x="347" y="616"/>
      <point x="297" y="616" type="curve"/>
      <point x="297" y="755" type="line"/>
      <point x="456" y="755"/>
      <point x="528" y="678"/>
      <point x="528" y="520" type="curve" smooth="yes"/>
      <point x="528" y="237" type="line" smooth="yes"/>
      <point x="528" y="138"/>
      <point x="493" y="-5"/>
    </contour>
    <contour>
      <point x="30" y="566" type="line"/>
      <point x="30" y="672"/>
      <point x="137" y="755"/>
      <point x="241" y="755" type="curve"/>
      <point x="241" y="617" type="line"/>
      <point x="203" y="617"/>
      <point x="167" y="596"/>
      <point x="167" y="530" type="curve"/>
    </contour>
  </outline>
</glyph>
<glyph name="si_Ttha" format="1">
  <advance width="593"/>
  <unicode hex="0DA8"/>
  <outline>
    <contour>
      <point x="212" y="-8" type="curve" smooth="yes"/>
      <point x="105" y="-8"/>
      <point x="30" y="58"/>
      <point x="30" y="160" type="curve" smooth="yes"/>
      <point x="30" y="262" type="line" smooth="yes"/>
      <point x="30" y="344"/>
      <point x="45" y="474"/>
      <point x="241" y="474" type="curve"/>
      <point x="263" y="474" type="line"/>
      <point x="263" y="336" type="line"/>
      <point x="241" y="336" type="line"/>
      <point x="201" y="336"/>
      <point x="168" y="322"/>
      <point x="168" y="262" type="curve" smooth="yes"/>
      <point x="168" y="262"/>
      <point x="168" y="166"/>
      <point x="168" y="166" type="curve" smooth="yes"/>
      <point x="168" y="154"/>
      <point x="177" y="132"/>
      <point x="207" y="132" type="curve" smooth="yes"/>
      <point x="237" y="132"/>
      <point x="245" y="153"/>
      <point x="245" y="166" type="curve" smooth="yes"/>
      <point x="245" y="202" type="line"/>
      <point x="345" y="202" type="line"/>
      <point x="345" y="166" type="line" smooth="yes"/>
      <point x="345" y="153"/>
      <point x="353" y="132"/>
      <point x="383" y="132" type="curve" smooth="yes"/>
      <point x="414" y="132"/>
      <point x="423" y="154"/>
      <point x="423" y="166" type="curve" smooth="yes"/>
      <point x="423" y="202" type="line"/>
      <point x="563" y="202" type="line"/>
      <point x="563" y="160" type="line" smooth="yes"/>
      <point x="563" y="58"/>
      <point x="496" y="-8"/>
      <point x="404" y="-8" type="curve" smooth="yes"/>
      <point x="370" y="-8"/>
      <point x="329" y="3"/>
      <point x="300" y="35" type="curve"/>
      <point x="276" y="3"/>
      <point x="240" y="-8"/>
    </contour>
    <contour>
      <point x="423" y="195" type="line"/>
      <point x="423" y="498" type="line" smooth="yes"/>
      <point x="423" y="577"/>
      <point x="406" y="616"/>
      <point x="328" y="616" type="curve"/>
      <point x="328" y="616"/>
      <point x="328" y="616"/>
      <point x="328" y="616" type="curve" smooth="yes"/>
      <point x="328" y="563"/>
      <point x="354" y="547"/>
      <point x="387" y="540" type="curve"/>
      <point x="387" y="454" type="line"/>
      <point x="284" y="474"/>
      <point x="248" y="544"/>
      <point x="248" y="617" type="curve" smooth="yes"/>
      <point x="248" y="755" type="line"/>
      <point x="328" y="755" type="line"/>
      <point x="462" y="755"/>
      <point x="563" y="700"/>
      <point x="563" y="517" type="curve" smooth="yes"/>
      <point x="563" y="195" type="line"/>
    </contour>
  </outline>
</glyph>
<glyph name="si_Dda" format="1">
  <advance width="632"/>
  <unicode hex="0DA9"/>
  <outline>
    <contour>
      <point x="251" y="-8" type="curve" smooth="yes"/>
      <point x="146" y="-8"/>
      <point x="72" y="58"/>
      <point x="72" y="160" type="curve" smooth="yes"/>
      <point x="72" y="219" type="line"/>
      <point x="72" y="226"/>
      <point x="72" y="246"/>
      <point x="80" y="251" type="curve"/>
      <point x="30" y="251" type="line"/>
      <point x="30" y="353" type="line"/>
      <point x="281" y="353" type="line"/>
      <point x="281" y="388"/>
      <point x="260" y="399"/>
      <point x="239" y="399" type="curve" smooth="yes"/>
      <point x="229" y="399"/>
      <point x="204" y="396"/>
      <point x="199" y="375" type="curve"/>
      <point x="100" y="401" type="line"/>
      <point x="126" y="489"/>
      <point x="203" y="502"/>
      <point x="239" y="502" type="curve" smooth="yes"/>
      <point x="283" y="502"/>
      <point x="328" y="485"/>
      <point x="351" y="458" type="curve" smooth="yes"/>
      <point x="374" y="431"/>
      <point x="384" y="405"/>
      <point x="384" y="349" type="curve" smooth="yes"/>
      <point x="384" y="251" type="line"/>
      <point x="242" y="251" type="line"/>
      <point x="211" y="251"/>
      <point x="207" y="231"/>
      <point x="207" y="219" type="curve"/>
      <point x="207" y="166" type="line" smooth="yes"/>
      <point x="207" y="154"/>
      <point x="216" y="132"/>
      <point x="246" y="132" type="curve" smooth="yes"/>
      <point x="276" y="132"/>
      <point x="284" y="153"/>
      <point x="284" y="166" type="curve" smooth="yes"/>
      <point x="284" y="202" type="line"/>
      <point x="384" y="202" type="line"/>
      <point x="384" y="166" type="line" smooth="yes"/>
      <point x="384" y="153"/>
      <point x="392" y="132"/>
      <point x="422" y="132" type="curve" smooth="yes"/>
      <point x="452" y="132"/>
      <point x="461" y="154"/>
      <point x="461" y="166" type="curve" smooth="yes"/>
      <point x="461" y="202" type="line"/>
      <point x="602" y="202" type="line"/>
      <point x="602" y="160" type="line" smooth="yes"/>
      <point x="602" y="58"/>
      <point x="535" y="-8"/>
      <point x="443" y="-8" type="curve" smooth="yes"/>
      <point x="409" y="-8"/>
      <point x="368" y="3"/>
      <point x="339" y="35" type="curve"/>
      <point x="315" y="3"/>
      <point x="279" y="-8"/>
    </contour>
    <contour>
      <point x="461" y="202" type="line"/>
      <point x="461" y="498" type="line" smooth="yes"/>
      <point x="461" y="583"/>
      <point x="450" y="616"/>
      <point x="366" y="616" type="curve"/>
      <point x="366" y="755" type="line"/>
      <point x="507" y="755"/>
      <point x="602" y="706"/>
      <point x="602" y="520" type="curve" smooth="yes"/>
      <point x="602" y="202" type="line"/>
    </contour>
    <contour>
      <point x="75" y="566" type="line"/>
      <point x="75" y="678"/>
      <point x="197" y="755"/>
      <point x="310" y="755" type="curve"/>
      <point x="310" y="617" type="line"/>
      <point x="262" y="617"/>
      <point x="212" y="602"/>
      <point x="212" y="530" type="curve"/>
    </contour>
  </outline>
</glyph>
<glyph name="si_Ddha" format="1">
  <advance width="632"/>
  <unicode hex="0DAA"/>
  <outline>
    <contour>
      <point x="251" y="-8" type="curve" smooth="yes"/>
      <point x="146" y="-8"/>
      <point x="72" y="58"/>
      <point x="72" y="160" type="curve" smooth="yes"/>
      <point x="72" y="219" type="line"/>
      <point x="72" y="226"/>
      <point x="72" y="246"/>
      <point x="80" y="251" type="curve"/>
      <point x="30" y="251" type="line"/>
      <point x="30" y="353" type="line"/>
      <point x="281" y="353" type="line"/>
      <point x="281" y="388"/>
      <point x="260" y="399"/>
      <point x="239" y="399" type="curve" smooth="yes"/>
      <point x="229" y="399"/>
      <point x="204" y="396"/>
      <point x="199" y="375" type="curve"/>
      <point x="100" y="401" type="line"/>
      <point x="126" y="489"/>
      <point x="203" y="502"/>
      <point x="239" y="502" type="curve" smooth="yes"/>
      <point x="283" y="502"/>
      <point x="328" y="485"/>
      <point x="351" y="458" type="curve" smooth="yes"/>
      <point x="374" y="431"/>
      <point x="384" y="405"/>
      <point x="384" y="349" type="curve" smooth="yes"/>
      <point x="384" y="251" type="line"/>
      <point x="242" y="251" type="line"/>
      <point x="211" y="251"/>
      <point x="207" y="231"/>
      <point x="207" y="219" type="curve"/>
      <point x="207" y="166" type="line" smooth="yes"/>
      <point x="207" y="154"/>
      <point x="216" y="132"/>
      <point x="246" y="132" type="curve" smooth="yes"/>
      <point x="276" y="132"/>
      <point x="284" y="153"/>
      <point x="284" y="166" type="curve" smooth="yes"/>
      <point x="284" y="202" type="line"/>
      <point x="384" y="202" type="line"/>
      <point x="384" y="166" type="line" smooth="yes"/>
      <point x="384" y="153"/>
      <point x="392" y="132"/>
      <point x="422" y="132" type="curve" smooth="yes"/>
      <point x="453" y="132"/>
      <point x="462" y="154"/>
      <point x="462" y="166" type="curve" smooth="yes"/>
      <point x="462" y="202" type="line"/>
      <point x="602" y="202" type="line"/>
      <point x="602" y="160" type="line" smooth="yes"/>
      <point x="602" y="58"/>
      <point x="535" y="-8"/>
      <point x="443" y="-8" type="curve" smooth="yes"/>
      <point x="409" y="-8"/>
      <point x="368" y="3"/>
      <point x="339" y="35" type="curve"/>
      <point x="315" y="3"/>
      <point x="279" y="-8"/>
    </contour>
    <contour>
      <point x="287" y="617" type="curve" smooth="yes"/>
      <point x="287" y="755" type="line"/>
      <point x="367" y="755" type="line"/>
      <point x="501" y="755"/>
      <point x="602" y="700"/>
      <point x="602" y="517" type="curve" smooth="yes"/>
      <point x="602" y="202" type="line"/>
      <point x="462" y="202" type="line"/>
      <point x="462" y="498" type="line" smooth="yes"/>
      <point x="462" y="577"/>
      <point x="445" y="616"/>
      <point x="367" y="616" type="curve"/>
      <point x="367" y="616" type="line"/>
      <point x="367" y="563"/>
      <point x="393" y="547"/>
      <point x="426" y="540" type="curve"/>
      <point x="426" y="454" type="line"/>
      <point x="323" y="474"/>
      <point x="287" y="544"/>
    </contour>
  </outline>
</glyph>
<glyph name="si_Nndda" format="1">
  <advance width="789"/>
  <unicode hex="0DAC"/>
  <outline>
    <contour>
      <point x="408" y="-8" type="curve" smooth="yes"/>
      <point x="303" y="-8"/>
      <point x="229" y="58"/>
      <point x="229" y="160" type="curve" smooth="yes"/>
      <point x="229" y="199" type="line"/>
      <point x="229" y="206"/>
      <point x="229" y="226"/>
      <point x="237" y="231" type="curve"/>
      <point x="207" y="231" type="line"/>
      <point x="207" y="333" type="line"/>
      <point x="423" y="333" type="line"/>
      <point x="423" y="368"/>
      <point x="395" y="385"/>
      <point x="372" y="385" type="curve" smooth="yes"/>
      <point x="357" y="385"/>
      <point x="331" y="384"/>
      <point x="316" y="361" type="curve"/>
      <point x="217" y="401" type="line"/>
      <point x="245" y="489"/>
      <point x="333" y="502"/>
      <point x="372" y="502" type="curve" smooth="yes"/>
      <point x="497" y="502"/>
      <point x="541" y="413"/>
      <point x="541" y="329" type="curve" smooth="yes"/>
      <point x="541" y="231" type="line"/>
      <point x="399" y="231" type="line"/>
      <point x="368" y="231"/>
      <point x="364" y="211"/>
      <point x="364" y="199" type="curve"/>
      <point x="364" y="166" type="line" smooth="yes"/>
      <point x="364" y="154"/>
      <point x="373" y="132"/>
      <point x="403" y="132" type="curve" smooth="yes"/>
      <point x="433" y="132"/>
      <point x="441" y="153"/>
      <point x="441" y="166" type="curve" smooth="yes"/>
      <point x="441" y="202" type="line"/>
      <point x="541" y="202" type="line"/>
      <point x="541" y="166" type="line" smooth="yes"/>
      <point x="541" y="153"/>
      <point x="549" y="132"/>
      <point x="579" y="132" type="curve" smooth="yes"/>
      <point x="609" y="132"/>
      <point x="618" y="154"/>
      <point x="618" y="166" type="curve" smooth="yes"/>
      <point x="618" y="202" type="line"/>
      <point x="759" y="202" type="line"/>
      <point x="759" y="160" type="line" smooth="yes"/>
      <point x="759" y="58"/>
      <point x="692" y="-8"/>
      <point x="600" y="-8" type="curve" smooth="yes"/>
      <point x="566" y="-8"/>
      <point x="525" y="3"/>
      <point x="496" y="35" type="curve"/>
      <point x="472" y="3"/>
      <point x="436" y="-8"/>
    </contour>
    <contour>
      <point x="103" y="-28" type="line"/>
      <point x="43" y="49"/>
      <point x="30" y="119"/>
      <point x="30" y="210" type="curve" smooth="yes"/>
      <point x="30" y="277" type="line" smooth="yes"/>
      <point x="30" y="415"/>
      <point x="129" y="505"/>
      <point x="241" y="505" type="curve" smooth="yes"/>
      <point x="266" y="505"/>
      <point x="291" y="501"/>
      <point x="316" y="492" type="curve"/>
      <point x="316" y="361" type="line"/>
      <point x="282" y="375"/>
      <point x="265" y="379"/>
      <point x="248" y="379" type="curve" smooth="yes"/>
      <point x="205" y="379"/>
      <point x="158" y="353"/>
      <point x="158" y="247" type="curve" smooth="yes"/>
      <point x="158" y="210" type="line" smooth="yes"/>
      <point x="158" y="129"/>
      <point x="169" y="89"/>
      <point x="233" y="12" type="curve"/>
    </contour>
    <contour>
      <point x="618" y="202" type="line"/>
      <point x="618" y="498" type="line" smooth="yes"/>
      <point x="618" y="583"/>
      <point x="607" y="616"/>
      <point x="523" y="616" type="curve"/>
      <point x="523" y="755" type="line"/>
      <point x="664" y="755"/>
      <point x="759" y="706"/>
      <point x="759" y="520" type="curve" smooth="yes"/>
      <point x="759" y="202" type="line"/>
    </contour>
    <contour>
      <point x="232" y="566" type="line"/>
      <point x="232" y="678"/>
      <point x="354" y="755"/>
      <point x="467" y="755" type="curve"/>
      <point x="467" y="617" type="line"/>
      <point x="419" y="617"/>
      <point x="369" y="602"/>
      <point x="369" y="530" type="curve"/>
    </contour>
  </outline>
</glyph>
<glyph name="si_Ta" format="1">
  <advance width="771"/>
  <unicode hex="0DAD"/>
  <outline>
    <contour>
      <point x="30" y="154" type="line"/>
      <point x="30" y="259" type="line"/>
      <point x="301" y="480" type="line" smooth="yes"/>
      <point x="363" y="530"/>
      <point x="412" y="568"/>
      <point x="502" y="568" type="curve" smooth="yes"/>
      <point x="624" y="568"/>
      <point x="740" y="485"/>
      <point x="740" y="321" type="curve" smooth="yes"/>
      <point x="740" y="205" type="line" smooth="yes"/>
      <point x="740" y="89"/>
      <point x="684" y="-1"/>
      <point x="544" y="-1" type="curve"/>
      <point x="544" y="142" type="line"/>
      <point x="596" y="142"/>
      <point x="600" y="181"/>
      <point x="600" y="205" type="curve" smooth="yes"/>
      <point x="600" y="307" type="line" smooth="yes"/>
      <point x="600" y="383"/>
      <point x="550" y="425"/>
      <point x="496" y="425" type="curve" smooth="yes"/>
      <point x="472" y="425"/>
      <point x="447" y="418"/>
      <point x="425" y="401" type="curve" smooth="yes"/>
      <point x="155" y="188" type="line"/>
    </contour>
    <contour>
      <point x="30" y="154" type="curve"/>
      <point x="74" y="249" type="line"/>
      <point x="88" y="253"/>
      <point x="100" y="255"/>
      <point x="111" y="255" type="curve" smooth="yes"/>
      <point x="202" y="255"/>
      <point x="200" y="127"/>
      <point x="292" y="127" type="curve" smooth="yes"/>
      <point x="335" y="127"/>
      <point x="373" y="154"/>
      <point x="373" y="194" type="curve" smooth="yes"/>
      <point x="373" y="220"/>
      <point x="362" y="244"/>
      <point x="324" y="260" type="curve"/>
      <point x="421" y="338" type="line"/>
      <point x="493" y="306"/>
      <point x="504" y="236"/>
      <point x="504" y="185" type="curve" smooth="yes"/>
      <point x="504" y="83"/>
      <point x="427" y="-8"/>
      <point x="296" y="-8" type="curve" smooth="yes"/>
      <point x="234" y="-8"/>
      <point x="163" y="25"/>
      <point x="111" y="101" type="curve" smooth="yes"/>
      <point x="93" y="127"/>
      <point x="79" y="156"/>
      <point x="47" y="156" type="curve" smooth="yes"/>
      <point x="42" y="156"/>
      <point x="36" y="155"/>
    </contour>
    <contour>
      <point x="37" y="439" type="line"/>
      <point x="51" y="537"/>
      <point x="144" y="567"/>
      <point x="205" y="567" type="curve" smooth="yes"/>
      <point x="274" y="567"/>
      <point x="337" y="524"/>
      <point x="344" y="507" type="curve"/>
      <point x="252" y="402" type="line"/>
      <point x="252" y="437"/>
      <point x="221" y="446"/>
      <point x="205" y="446" type="curve" smooth="yes"/>
      <point x="171" y="446"/>
      <point x="154" y="423"/>
      <point x="154" y="402" type="curve"/>
    </contour>
  </outline>
</glyph>
<glyph name="si_Tha" format="1">
  <advance width="561"/>
  <unicode hex="0DAE"/>
  <outline>
    <contour>
      <point x="216" y="617" type="curve" smooth="yes"/>
      <point x="216" y="755" type="line"/>
      <point x="296" y="755" type="line"/>
      <point x="430" y="755"/>
      <point x="531" y="700"/>
      <point x="531" y="517" type="curve" smooth="yes"/>
      <point x="531" y="250" type="line"/>
      <point x="391" y="250" type="line"/>
      <point x="391" y="498" type="line" smooth="yes"/>
      <point x="391" y="577"/>
      <point x="374" y="616"/>
      <point x="296" y="616" type="curve"/>
      <point x="296" y="616"/>
      <point x="296" y="616"/>
      <point x="296" y="616" type="curve" smooth="yes"/>
      <point x="296" y="563"/>
      <point x="322" y="547"/>
      <point x="355" y="540" type="curve"/>
      <point x="355" y="454" type="line"/>
      <point x="252" y="474"/>
      <point x="216" y="544"/>
    </contour>
    <contour>
      <point x="30" y="262" type="line" smooth="yes"/>
      <point x="30" y="344"/>
      <point x="45" y="474"/>
      <point x="241" y="474" type="curve"/>
      <point x="241" y="336" type="line"/>
      <point x="201" y="336"/>
      <point x="168" y="322"/>
      <point x="168" y="262" type="curve" smooth="yes"/>
      <point x="168" y="222" type="line" smooth="yes"/>
      <point x="168" y="185"/>
      <point x="189" y="140"/>
      <point x="241" y="140" type="curve"/>
      <point x="241" y="-5" type="line"/>
      <point x="97" y="-5"/>
      <point x="30" y="117"/>
      <point x="30" y="208" type="curve" smooth="yes"/>
    </contour>
    <contour>
      <point x="296" y="-5" type="curve"/>
      <point x="296" y="140" type="line"/>
      <point x="338" y="140"/>
      <point x="391" y="154"/>
      <point x="391" y="250" type="curve" smooth="yes"/>
      <point x="531" y="250" type="line" smooth="yes"/>
      <point x="531" y="78"/>
      <point x="451" y="-5"/>
    </contour>
  </outline>
</glyph>
<glyph name="si_Da" format="1">
  <advance width="552"/>
  <unicode hex="0DAF"/>
  <outline>
    <contour>
      <point x="369" y="-204" type="curve" smooth="yes"/>
      <point x="250" y="-204"/>
      <point x="183" y="-136"/>
      <point x="183" y="-45" type="curve"/>
      <point x="320" y="-45" type="line"/>
      <point x="320" y="-61"/>
      <point x="340" y="-78"/>
      <point x="369" y="-78" type="curve" smooth="yes"/>
      <point x="390" y="-78"/>
      <point x="414" y="-67"/>
      <point x="419" y="-47" type="curve"/>
      <point x="552" y="-81" type="line"/>
      <point x="530" y="-148"/>
      <point x="475" y="-204"/>
    </contour>
    <contour>
      <point x="30" y="198" type="curve" smooth="yes"/>
      <point x="30" y="334"/>
      <point x="123" y="402"/>
      <point x="256" y="402" type="curve" smooth="yes"/>
      <point x="313" y="402" type="line"/>
      <point x="313" y="440"/>
      <point x="279" y="457"/>
      <point x="244" y="457" type="curve" smooth="yes"/>
      <point x="214" y="457"/>
      <point x="183" y="444"/>
      <point x="176" y="420" type="curve"/>
      <point x="58" y="459" type="line"/>
      <point x="79" y="539"/>
      <point x="158" y="578"/>
      <point x="239" y="578" type="curve" smooth="yes"/>
      <point x="339" y="578"/>
      <point x="442" y="518"/>
      <point x="442" y="399" type="curve" smooth="yes"/>
      <point x="442" y="263" type="line"/>
      <point x="256" y="263" type="line" smooth="yes"/>
      <point x="217" y="263"/>
      <point x="173" y="257"/>
      <point x="173" y="198" type="curve" smooth="yes"/>
      <point x="173" y="146"/>
      <point x="220" y="136"/>
      <point x="257" y="136" type="curve" smooth="yes"/>
      <point x="294" y="136" type="line" smooth="yes"/>
      <point x="327" y="136"/>
      <point x="356" y="140"/>
      <point x="369" y="172" type="curve"/>
      <point x="497" y="138" type="line"/>
      <point x="472" y="52"/>
      <point x="387" y="0"/>
      <point x="294" y="0" type="curve" smooth="yes"/>
      <point x="257" y="0" type="line" smooth="yes"/>
      <point x="137" y="0"/>
      <point x="30" y="59"/>
    </contour>
  </outline>
</glyph>
<glyph name="si_Dha" format="1">
  <advance width="593"/>
  <unicode hex="0DB0"/>
  <outline>
    <contour>
      <point x="212" y="-8" type="curve" smooth="yes"/>
      <point x="105" y="-8"/>
      <point x="30" y="58"/>
      <point x="30" y="160" type="curve" smooth="yes"/>
      <point x="30" y="262" type="line" smooth="yes"/>
      <point x="30" y="344"/>
      <point x="45" y="474"/>
      <point x="241" y="474" type="curve"/>
      <point x="263" y="474" type="line"/>
      <point x="263" y="336" type="line"/>
      <point x="241" y="336" type="line"/>
      <point x="201" y="336"/>
      <point x="168" y="322"/>
      <point x="168" y="262" type="curve" smooth="yes"/>
      <point x="168" y="166" type="line" smooth="yes"/>
      <point x="168" y="154"/>
      <point x="177" y="132"/>
      <point x="207" y="132" type="curve" smooth="yes"/>
      <point x="237" y="132"/>
      <point x="245" y="153"/>
      <point x="245" y="166" type="curve" smooth="yes"/>
      <point x="245" y="202" type="line"/>
      <point x="345" y="202" type="line"/>
      <point x="345" y="166" type="line" smooth="yes"/>
      <point x="345" y="153"/>
      <point x="353" y="132"/>
      <point x="383" y="132" type="curve" smooth="yes"/>
      <point x="413" y="132"/>
      <point x="422" y="154"/>
      <point x="422" y="166" type="curve" smooth="yes"/>
      <point x="422" y="202" type="line"/>
      <point x="563" y="202" type="line"/>
      <point x="563" y="160" type="line" smooth="yes"/>
      <point x="563" y="58"/>
      <point x="496" y="-8"/>
      <point x="404" y="-8" type="curve" smooth="yes"/>
      <point x="370" y="-8"/>
      <point x="329" y="3"/>
      <point x="300" y="35" type="curve"/>
      <point x="276" y="3"/>
      <point x="240" y="-8"/>
    </contour>
    <contour>
      <point x="422" y="202" type="line"/>
      <point x="422" y="498" type="line" smooth="yes"/>
      <point x="422" y="583"/>
      <point x="411" y="616"/>
      <point x="327" y="616" type="curve"/>
      <point x="327" y="755" type="line"/>
      <point x="468" y="755"/>
      <point x="563" y="706"/>
      <point x="563" y="520" type="curve" smooth="yes"/>
      <point x="563" y="202" type="line"/>
    </contour>
    <contour>
      <point x="36" y="566" type="line"/>
      <point x="36" y="678"/>
      <point x="158" y="755"/>
      <point x="271" y="755" type="curve"/>
      <point x="271" y="617" type="line"/>
      <point x="223" y="617"/>
      <point x="173" y="602"/>
      <point x="173" y="530" type="curve"/>
    </contour>
  </outline>
</glyph>
<glyph name="si_Na" format="1">
  <advance width="758"/>
  <unicode hex="0DB1"/>
  <outline>
    <contour>
      <point x="532" y="-8" type="curve"/>
      <point x="532" y="135" type="line"/>
      <point x="584" y="135"/>
      <point x="588" y="174"/>
      <point x="588" y="198" type="curve" smooth="yes"/>
      <point x="588" y="317" type="line" smooth="yes"/>
      <point x="588" y="391"/>
      <point x="530" y="436"/>
      <point x="471" y="436" type="curve" smooth="yes"/>
      <point x="435" y="436"/>
      <point x="399" y="419"/>
      <point x="373" y="384" type="curve" smooth="yes"/>
      <point x="295" y="281" type="line"/>
      <point x="240" y="208"/>
      <point x="202" y="165"/>
      <point x="154" y="165" type="curve"/>
      <point x="125" y="165" type="line"/>
      <point x="125" y="304" type="line" smooth="yes"/>
      <point x="150" y="304" type="line" smooth="yes"/>
      <point x="163" y="304"/>
      <point x="188" y="337"/>
      <point x="214" y="375" type="curve" smooth="yes"/>
      <point x="241" y="414"/>
      <point x="267" y="457"/>
      <point x="283" y="479" type="curve"/>
      <point x="326" y="543"/>
      <point x="400" y="574"/>
      <point x="476" y="574" type="curve" smooth="yes"/>
      <point x="600" y="574"/>
      <point x="728" y="492"/>
      <point x="728" y="337" type="curve" smooth="yes"/>
      <point x="728" y="198" type="line" smooth="yes"/>
      <point x="728" y="82"/>
      <point x="671" y="-8"/>
    </contour>
    <contour>
      <point x="30" y="256" type="curve"/>
      <point x="30" y="344" type="line"/>
      <point x="148" y="344" type="line"/>
      <point x="148" y="313"/>
      <point x="148" y="301"/>
      <point x="148" y="270" type="curve" smooth="yes"/>
      <point x="148" y="150"/>
      <point x="209" y="127"/>
      <point x="278" y="127" type="curve" smooth="yes"/>
      <point x="331" y="127"/>
      <point x="362" y="167"/>
      <point x="362" y="203" type="curve" smooth="yes"/>
      <point x="362" y="222"/>
      <point x="354" y="240"/>
      <point x="336" y="251" type="curve"/>
      <point x="412" y="354" type="line"/>
      <point x="473" y="322"/>
      <point x="502" y="261"/>
      <point x="502" y="198" type="curve" smooth="yes"/>
      <point x="502" y="97"/>
      <point x="427" y="-8"/>
      <point x="282" y="-8" type="curve" smooth="yes"/>
      <point x="134" y="-8"/>
      <point x="30" y="85"/>
    </contour>
    <contour>
      <point x="32" y="439" type="line"/>
      <point x="46" y="537"/>
      <point x="139" y="567"/>
      <point x="200" y="567" type="curve" smooth="yes"/>
      <point x="269" y="567"/>
      <point x="331" y="522"/>
      <point x="331" y="506" type="curve"/>
      <point x="247" y="402" type="line"/>
      <point x="247" y="437"/>
      <point x="216" y="446"/>
      <point x="200" y="446" type="curve" smooth="yes"/>
      <point x="166" y="446"/>
      <point x="149" y="423"/>
      <point x="149" y="402" type="curve"/>
    </contour>
  </outline>
</glyph>
<glyph name="si_Nda" format="1">
  <advance width="742"/>
  <unicode hex="0DB3"/>
  <outline>
    <contour>
      <point x="449" y="0" type="line" smooth="yes"/>
      <point x="329" y="0"/>
      <point x="222" y="59"/>
      <point x="222" y="198" type="curve" smooth="yes"/>
      <point x="222" y="334"/>
      <point x="315" y="398"/>
      <point x="448" y="398" type="curve" smooth="yes"/>
      <point x="505" y="398" type="line"/>
      <point x="505" y="446"/>
      <point x="451" y="454"/>
      <point x="433" y="454" type="curve" smooth="yes"/>
      <point x="418" y="454"/>
      <point x="375" y="454"/>
      <point x="364" y="420" type="curve"/>
      <point x="241" y="468" type="line"/>
      <point x="277" y="551"/>
      <point x="355" y="575"/>
      <point x="433" y="575" type="curve" smooth="yes"/>
      <point x="542" y="575"/>
      <point x="635" y="520"/>
      <point x="635" y="385" type="curve" smooth="yes"/>
      <point x="634" y="263" type="line"/>
      <point x="448" y="263" type="line" smooth="yes"/>
      <point x="409" y="263"/>
      <point x="365" y="257"/>
      <point x="365" y="198" type="curve" smooth="yes"/>
      <point x="365" y="146"/>
      <point x="412" y="136"/>
      <point x="449" y="136" type="curve" smooth="yes"/>
      <point x="486" y="136" type="line" smooth="yes"/>
      <point x="519" y="136"/>
      <point x="548" y="140"/>
      <point x="561" y="172" type="curve"/>
      <point x="689" y="138" type="line"/>
      <point x="664" y="52"/>
      <point x="579" y="0"/>
      <point x="486" y="0" type="curve" smooth="yes"/>
    </contour>
    <contour>
      <point x="103" y="-29" type="line"/>
      <point x="43" y="48"/>
      <point x="30" y="118"/>
      <point x="30" y="209" type="curve" smooth="yes"/>
      <point x="30" y="294" type="line" smooth="yes"/>
      <point x="30" y="474"/>
      <point x="142" y="567"/>
      <point x="268" y="567" type="curve" smooth="yes"/>
      <point x="300" y="567"/>
      <point x="332" y="561"/>
      <point x="364" y="549" type="curve"/>
      <point x="364" y="420" type="line"/>
      <point x="343" y="428"/>
      <point x="318" y="434"/>
      <point x="292" y="434" type="curve" smooth="yes"/>
      <point x="230" y="434"/>
      <point x="166" y="401"/>
      <point x="166" y="294" type="curve" smooth="yes"/>
      <point x="166" y="209" type="line" smooth="yes"/>
      <point x="166" y="128"/>
      <point x="169" y="88"/>
      <point x="233" y="11" type="curve"/>
    </contour>
    <contour>
      <point x="559" y="-204" type="curve" smooth="yes"/>
      <point x="440" y="-204"/>
      <point x="373" y="-136"/>
      <point x="373" y="-45" type="curve"/>
      <point x="510" y="-45" type="line"/>
      <point x="510" y="-61"/>
      <point x="530" y="-78"/>
      <point x="559" y="-78" type="curve" smooth="yes"/>
      <point x="580" y="-78"/>
      <point x="604" y="-67"/>
      <point x="609" y="-47" type="curve"/>
      <point x="742" y="-81" type="line"/>
      <point x="720" y="-148"/>
      <point x="665" y="-204"/>
    </contour>
  </outline>
</glyph>
<glyph name="si_Pha" format="1">
  <advance width="568"/>
  <unicode hex="0DB5"/>
  <outline>
    <contour>
      <point x="247" y="-5" type="line"/>
      <point x="120" y="-5"/>
      <point x="33" y="87"/>
      <point x="33" y="192" type="curve" smooth="yes"/>
      <point x="33" y="241"/>
      <point x="34" y="291"/>
      <point x="91" y="333" type="curve" smooth="yes"/>
      <point x="124" y="357"/>
      <point x="159" y="369"/>
      <point x="211" y="369" type="curve"/>
      <point x="211" y="388"/>
      <point x="194" y="399"/>
      <point x="170" y="399" type="curve" smooth="yes"/>
      <point x="153" y="399"/>
      <point x="133" y="393"/>
      <point x="129" y="375" type="curve"/>
      <point x="30" y="401" type="line"/>
      <point x="55" y="480"/>
      <point x="116" y="502"/>
      <point x="170" y="502" type="curve" smooth="yes"/>
      <point x="252" y="502"/>
      <point x="314" y="450"/>
      <point x="314" y="369" type="curve" smooth="yes"/>
      <point x="314" y="252" type="line"/>
      <point x="230" y="252" type="line" smooth="yes"/>
      <point x="200" y="252"/>
      <point x="171" y="242"/>
      <point x="171" y="195" type="curve" smooth="yes"/>
      <point x="171" y="168"/>
      <point x="194" y="140"/>
      <point x="247" y="140" type="curve"/>
    </contour>
    <contour>
      <point x="223" y="617" type="curve" smooth="yes"/>
      <point x="223" y="755" type="line"/>
      <point x="303" y="755" type="line"/>
      <point x="437" y="755"/>
      <point x="538" y="700"/>
      <point x="538" y="517" type="curve" smooth="yes"/>
      <point x="538" y="250" type="line"/>
      <point x="398" y="250" type="line"/>
      <point x="398" y="498" type="line" smooth="yes"/>
      <point x="398" y="577"/>
      <point x="381" y="616"/>
      <point x="303" y="616" type="curve"/>
      <point x="303" y="616"/>
      <point x="303" y="616"/>
      <point x="303" y="616" type="curve" smooth="yes"/>
      <point x="303" y="563"/>
      <point x="329" y="547"/>
      <point x="362" y="540" type="curve"/>
      <point x="362" y="454" type="line"/>
      <point x="259" y="474"/>
      <point x="223" y="544"/>
    </contour>
    <contour>
      <point x="303" y="-5" type="curve"/>
      <point x="303" y="140" type="line"/>
      <point x="345" y="140"/>
      <point x="398" y="154"/>
      <point x="398" y="250" type="curve" smooth="yes"/>
      <point x="538" y="250" type="line" smooth="yes"/>
      <point x="538" y="78"/>
      <point x="458" y="-5"/>
    </contour>
  </outline>
</glyph>
<glyph name="si_Ba" format="1">
  <advance width="609"/>
  <unicode hex="0DB6"/>
  <outline>
    <contour>
      <point x="30" y="187" type="curve" smooth="yes"/>
      <point x="30" y="283" type="line" smooth="yes"/>
      <point x="30" y="391"/>
      <point x="122" y="452"/>
      <point x="212" y="452" type="curve" smooth="yes"/>
      <point x="298" y="452"/>
      <point x="382" y="396"/>
      <point x="382" y="272" type="curve" smooth="yes"/>
      <point x="382" y="174" type="line" smooth="yes"/>
      <point x="382" y="150"/>
      <point x="396" y="138"/>
      <point x="410" y="138" type="curve" smooth="yes"/>
      <point x="425" y="138"/>
      <point x="439" y="150"/>
      <point x="439" y="174" type="curve"/>
      <point x="439" y="214" type="line"/>
      <point x="579" y="214" type="line"/>
      <point x="579" y="174" type="line"/>
      <point x="579" y="52"/>
      <point x="488" y="-8"/>
      <point x="401" y="-8" type="curve" smooth="yes"/>
      <point x="322" y="-8"/>
      <point x="247" y="41"/>
      <point x="247" y="138" type="curve" smooth="yes"/>
      <point x="247" y="267" type="line" smooth="yes"/>
      <point x="247" y="298"/>
      <point x="226" y="313"/>
      <point x="204" y="313" type="curve" smooth="yes"/>
      <point x="183" y="313"/>
      <point x="162" y="298"/>
      <point x="162" y="267" type="curve" smooth="yes"/>
      <point x="162" y="193" type="line" smooth="yes"/>
      <point x="162" y="151"/>
      <point x="180" y="140"/>
      <point x="211" y="140" type="curve"/>
      <point x="211" y="0" type="line"/>
      <point x="91" y="0"/>
      <point x="30" y="55"/>
    </contour>
    <contour>
      <point x="439" y="214" type="line"/>
      <point x="439" y="478" type="line" smooth="yes"/>
      <point x="439" y="557"/>
      <point x="422" y="616"/>
      <point x="345" y="616" type="curve"/>
      <point x="324" y="616" type="line"/>
      <point x="324" y="755" type="line"/>
      <point x="345" y="755" type="line"/>
      <point x="479" y="755"/>
      <point x="579" y="680"/>
      <point x="579" y="500" type="curve" smooth="yes"/>
      <point x="579" y="214" type="line"/>
    </contour>
    <contour>
      <point x="41" y="566" type="line"/>
      <point x="41" y="678"/>
      <point x="155" y="755"/>
      <point x="268" y="755" type="curve"/>
      <point x="268" y="617" type="line"/>
      <point x="220" y="617"/>
      <point x="178" y="602"/>
      <point x="178" y="530" type="curve"/>
    </contour>
  </outline>
</glyph>
<glyph name="si_Bha" format="1">
  <advance width="754"/>
  <unicode hex="0DB7"/>
  <outline>
    <contour>
      <point x="430" y="344" type="curve"/>
      <point x="463" y="339"/>
      <point x="498" y="305"/>
      <point x="498" y="216" type="curve" smooth="yes"/>
      <point x="498" y="166" type="line" smooth="yes"/>
      <point x="498" y="45"/>
      <point x="437" y="-8"/>
      <point x="320" y="-8" type="curve"/>
      <point x="320" y="135" type="line"/>
      <point x="373" y="135"/>
      <point x="374" y="171"/>
      <point x="374" y="188" type="curve" smooth="yes"/>
      <point x="374" y="204"/>
      <point x="373" y="239"/>
      <point x="325" y="241" type="curve" smooth="yes"/>
      <point x="291" y="241" type="line"/>
      <point x="291" y="350" type="line" smooth="yes"/>
      <point x="291" y="468"/>
      <point x="327" y="564"/>
      <point x="471" y="564" type="curve"/>
      <point x="471" y="421" type="line"/>
      <point x="428" y="421"/>
      <point x="429" y="380"/>
      <point x="430" y="351" type="curve" smooth="yes"/>
      <point x="430" y="349"/>
      <point x="430" y="346"/>
    </contour>
    <contour>
      <point x="527" y="-8" type="curve"/>
      <point x="527" y="135" type="line"/>
      <point x="579" y="135"/>
      <point x="583" y="174"/>
      <point x="583" y="198" type="curve" smooth="yes"/>
      <point x="583" y="353" type="line" smooth="yes"/>
      <point x="583" y="381"/>
      <point x="579" y="421"/>
      <point x="527" y="421" type="curve"/>
      <point x="527" y="564" type="line"/>
      <point x="666" y="564"/>
      <point x="724" y="475"/>
      <point x="724" y="353" type="curve" smooth="yes"/>
      <point x="724" y="198" type="line" smooth="yes"/>
      <point x="724" y="82"/>
      <point x="666" y="-8"/>
    </contour>
    <contour>
      <point x="265" y="-8" type="line"/>
      <point x="126" y="-8"/>
      <point x="68" y="82"/>
      <point x="68" y="198" type="curve" smooth="yes"/>
      <point x="68" y="254" type="line" smooth="yes"/>
      <point x="68" y="269"/>
      <point x="70" y="283"/>
      <point x="75" y="297" type="curve"/>
      <point x="30" y="297" type="line"/>
      <point x="30" y="415" type="line"/>
      <point x="241" y="415" type="line"/>
      <point x="241" y="446"/>
      <point x="229" y="462"/>
      <point x="198" y="462" type="curve" smooth="yes"/>
      <point x="180" y="462"/>
      <point x="163" y="454"/>
      <point x="159" y="437" type="curve"/>
      <point x="60" y="463" type="line"/>
      <point x="83" y="532"/>
      <point x="142" y="564"/>
      <point x="201" y="564" type="curve" smooth="yes"/>
      <point x="273" y="564"/>
      <point x="344" y="516"/>
      <point x="344" y="433" type="curve" smooth="yes"/>
      <point x="344" y="297" type="line"/>
      <point x="265" y="297" type="line" smooth="yes"/>
      <point x="213" y="297"/>
      <point x="209" y="264"/>
      <point x="209" y="243" type="curve" smooth="yes"/>
      <point x="209" y="199" type="line" smooth="yes"/>
      <point x="209" y="175"/>
      <point x="213" y="135"/>
      <point x="265" y="135" type="curve"/>
    </contour>
  </outline>
</glyph>
<glyph name="si_Mba" format="1">
  <advance width="607"/>
  <unicode hex="0DB9"/>
  <outline>
    <contour>
      <point x="190" y="-11" type="curve" smooth="yes"/>
      <point x="95" y="-11"/>
      <point x="30" y="55"/>
      <point x="30" y="157" type="curve" smooth="yes"/>
      <point x="30" y="339" type="line" smooth="yes"/>
      <point x="30" y="428"/>
      <point x="99" y="473"/>
      <point x="164" y="473" type="curve" smooth="yes"/>
      <point x="223" y="473"/>
      <point x="280" y="437"/>
      <point x="280" y="364" type="curve" smooth="yes"/>
      <point x="280" y="348" type="line" smooth="yes"/>
      <point x="280" y="337"/>
      <point x="288" y="331"/>
      <point x="295" y="331" type="curve" smooth="yes"/>
      <point x="303" y="331"/>
      <point x="311" y="337"/>
      <point x="311" y="348" type="curve" smooth="yes"/>
      <point x="311" y="469" type="line"/>
      <point x="403" y="469" type="line"/>
      <point x="403" y="340" type="line" smooth="yes"/>
      <point x="403" y="263"/>
      <point x="350" y="229"/>
      <point x="298" y="229" type="curve" smooth="yes"/>
      <point x="247" y="229"/>
      <point x="197" y="262"/>
      <point x="197" y="320" type="curve" smooth="yes"/>
      <point x="197" y="328" type="line" smooth="yes"/>
      <point x="197" y="341"/>
      <point x="189" y="348"/>
      <point x="181" y="348" type="curve" smooth="yes"/>
      <point x="174" y="348"/>
      <point x="166" y="341"/>
      <point x="166" y="328" type="curve" smooth="yes"/>
      <point x="166" y="166" type="line" smooth="yes"/>
      <point x="166" y="145"/>
      <point x="180" y="135"/>
      <point x="195" y="135" type="curve" smooth="yes"/>
      <point x="209" y="135"/>
      <point x="223" y="145"/>
      <point x="223" y="166" type="curve" smooth="yes"/>
      <point x="223" y="181"/>
      <point x="230" y="204"/>
      <point x="257" y="204" type="curve" smooth="yes"/>
      <point x="346" y="204" type="line" smooth="yes"/>
      <point x="373" y="204"/>
      <point x="380" y="181"/>
      <point x="380" y="166" type="curve" smooth="yes"/>
      <point x="380" y="145"/>
      <point x="394" y="135"/>
      <point x="408" y="135" type="curve" smooth="yes"/>
      <point x="423" y="135"/>
      <point x="437" y="145"/>
      <point x="437" y="167" type="curve" smooth="yes"/>
      <point x="437" y="500" type="line" smooth="yes"/>
      <point x="437" y="608"/>
      <point x="382" y="616"/>
      <point x="330" y="616" type="curve"/>
      <point x="330" y="755" type="line"/>
      <point x="486" y="755"/>
      <point x="577" y="687"/>
      <point x="577" y="512" type="curve" smooth="yes"/>
      <point x="577" y="157" type="line" smooth="yes"/>
      <point x="577" y="55"/>
      <point x="511" y="-11"/>
      <point x="414" y="-11" type="curve" smooth="yes"/>
      <point x="383" y="-11"/>
      <point x="362" y="-3"/>
      <point x="348" y="11" type="curve" smooth="yes"/>
      <point x="333" y="25"/>
      <point x="327" y="44"/>
      <point x="327" y="67" type="curve" smooth="yes"/>
      <point x="327" y="89"/>
      <point x="314" y="100"/>
      <point x="302" y="100" type="curve" smooth="yes"/>
      <point x="289" y="100"/>
      <point x="277" y="89"/>
      <point x="277" y="67" type="curve" smooth="yes"/>
      <point x="277" y="44"/>
      <point x="271" y="25"/>
      <point x="256" y="11" type="curve" smooth="yes"/>
      <point x="242" y="-3"/>
      <point x="221" y="-11"/>
    </contour>
    <contour>
      <point x="183" y="530" type="curve"/>
      <point x="46" y="566" type="line"/>
      <point x="46" y="678"/>
      <point x="160" y="755"/>
      <point x="273" y="755" type="curve"/>
      <point x="273" y="617" type="line"/>
      <point x="225" y="617"/>
      <point x="183" y="602"/>
    </contour>
  </outline>
</glyph>
<glyph name="si_Ya" format="1">
  <advance width="655"/>
  <unicode hex="0DBA"/>
  <outline>
    <contour>
      <point x="30" y="160" type="curve" smooth="yes"/>
      <point x="30" y="202" type="line"/>
      <point x="169" y="202" type="line"/>
      <point x="169" y="171" type="line" smooth="yes"/>
      <point x="169" y="145"/>
      <point x="192" y="131"/>
      <point x="215" y="131" type="curve" smooth="yes"/>
      <point x="238" y="131"/>
      <point x="261" y="145"/>
      <point x="261" y="173" type="curve" smooth="yes"/>
      <point x="261" y="202" type="line"/>
      <point x="389" y="202" type="line"/>
      <point x="389" y="173" type="line" smooth="yes"/>
      <point x="389" y="145"/>
      <point x="412" y="131"/>
      <point x="435" y="131" type="curve" smooth="yes"/>
      <point x="458" y="131"/>
      <point x="481" y="145"/>
      <point x="481" y="171" type="curve" smooth="yes"/>
      <point x="481" y="202" type="line"/>
      <point x="620" y="202" type="line"/>
      <point x="620" y="160" type="line" smooth="yes"/>
      <point x="620" y="50"/>
      <point x="548" y="-8"/>
      <point x="438" y="-8" type="curve" smooth="yes"/>
      <point x="395" y="-8"/>
      <point x="352" y="4"/>
      <point x="322" y="36" type="curve"/>
      <point x="293" y="4"/>
      <point x="254" y="-8"/>
      <point x="213" y="-8" type="curve" smooth="yes"/>
      <point x="104" y="-8"/>
      <point x="30" y="58"/>
    </contour>
    <contour>
      <point x="293" y="283" type="line"/>
      <point x="293" y="366" type="line" smooth="yes"/>
      <point x="293" y="490"/>
      <point x="341" y="566"/>
      <point x="467" y="566" type="curve" smooth="yes"/>
      <point x="523" y="566"/>
      <point x="589" y="543"/>
      <point x="625" y="458" type="curve"/>
      <point x="515" y="421" type="line"/>
      <point x="503" y="442"/>
      <point x="485" y="446"/>
      <point x="467" y="446" type="curve" smooth="yes"/>
      <point x="443" y="446"/>
      <point x="423" y="433"/>
      <point x="423" y="402" type="curve"/>
      <point x="479" y="402" type="line" smooth="yes"/>
      <point x="587" y="402"/>
      <point x="620" y="339"/>
      <point x="620" y="269" type="curve" smooth="yes"/>
      <point x="620" y="251" type="line"/>
      <point x="480" y="251" type="line"/>
      <point x="480" y="254" type="line" smooth="yes"/>
      <point x="480" y="268"/>
      <point x="478" y="283"/>
      <point x="437" y="283" type="curve" smooth="yes"/>
    </contour>
    <contour>
      <point x="30" y="251" type="line"/>
      <point x="30" y="340" type="line" smooth="yes"/>
      <point x="30" y="493"/>
      <point x="132" y="563"/>
      <point x="248" y="563" type="curve" smooth="yes"/>
      <point x="265" y="563" type="line"/>
      <point x="265" y="433" type="line"/>
      <point x="245" y="433" type="line" smooth="yes"/>
      <point x="191" y="433"/>
      <point x="169" y="390"/>
      <point x="169" y="317" type="curve" smooth="yes"/>
      <point x="169" y="251" type="line"/>
    </contour>
  </outline>
</glyph>
<glyph name="si_La" format="1">
  <advance width="626"/>
  <unicode hex="0DBD"/>
  <outline>
    <contour>
      <point x="248" y="215" type="curve" smooth="yes"/>
      <point x="248" y="215"/>
      <point x="248" y="311"/>
      <point x="248" y="323" type="curve"/>
      <point x="376" y="323" type="line"/>
      <point x="376" y="235" type="line" smooth="yes"/>
      <point x="376" y="216"/>
      <point x="383" y="194"/>
      <point x="417" y="194" type="curve" smooth="yes"/>
      <point x="454" y="194"/>
      <point x="458" y="223"/>
      <point x="458" y="240" type="curve" smooth="yes"/>
      <point x="458" y="322" type="line" smooth="yes"/>
      <point x="458" y="397"/>
      <point x="409" y="426"/>
      <point x="344" y="426" type="curve"/>
      <point x="344" y="566" type="line"/>
      <point x="458" y="566"/>
      <point x="596" y="522"/>
      <point x="596" y="322" type="curve" smooth="yes"/>
      <point x="596" y="240" type="line" smooth="yes"/>
      <point x="596" y="122"/>
      <point x="530" y="54"/>
      <point x="417" y="54" type="curve" smooth="yes"/>
      <point x="277" y="54"/>
      <point x="248" y="138"/>
    </contour>
    <contour>
      <point x="283" y="-171" type="line"/>
      <point x="173" y="-171"/>
      <point x="30" y="-123"/>
      <point x="30" y="74" type="curve" smooth="yes"/>
      <point x="30" y="322" type="line" smooth="yes"/>
      <point x="30" y="522"/>
      <point x="168" y="566"/>
      <point x="283" y="566" type="curve"/>
      <point x="283" y="426" type="line"/>
      <point x="218" y="426"/>
      <point x="169" y="397"/>
      <point x="169" y="322" type="curve" smooth="yes"/>
      <point x="169" y="74" type="line" smooth="yes"/>
      <point x="169" y="-2"/>
      <point x="218" y="-31"/>
      <point x="283" y="-31" type="curve"/>
    </contour>
    <contour>
      <point x="206" y="251" type="line"/>
      <point x="206" y="365" type="line"/>
      <point x="418" y="365" type="line"/>
      <point x="418" y="251" type="line"/>
    </contour>
    <contour>
      <point x="344" y="-33" type="curve"/>
      <point x="344" y="-173" type="line"/>
      <point x="443" y="-173"/>
      <point x="560" y="-140"/>
      <point x="589" y="-1" type="curve"/>
      <point x="454" y="37" type="line"/>
      <point x="441" y="-13"/>
      <point x="398" y="-33"/>
    </contour>
  </outline>
</glyph>
<glyph name="si_Va" format="1">
  <advance width="568"/>
  <unicode hex="0DC0"/>
  <outline>
    <contour>
      <point x="247" y="-5" type="line"/>
      <point x="120" y="-5"/>
      <point x="33" y="87"/>
      <point x="33" y="192" type="curve" smooth="yes"/>
      <point x="33" y="241"/>
      <point x="34" y="291"/>
      <point x="91" y="333" type="curve" smooth="yes"/>
      <point x="124" y="357"/>
      <point x="159" y="369"/>
      <point x="211" y="369" type="curve"/>
      <point x="211" y="388"/>
      <point x="194" y="399"/>
      <point x="170" y="399" type="curve" smooth="yes"/>
      <point x="153" y="399"/>
      <point x="133" y="393"/>
      <point x="129" y="375" type="curve"/>
      <point x="30" y="401" type="line"/>
      <point x="55" y="480"/>
      <point x="116" y="502"/>
      <point x="170" y="502" type="curve" smooth="yes"/>
      <point x="252" y="502"/>
      <point x="314" y="450"/>
      <point x="314" y="369" type="curve" smooth="yes"/>
      <point x="314" y="252" type="line"/>
      <point x="230" y="252" type="line" smooth="yes"/>
      <point x="200" y="252"/>
      <point x="171" y="242"/>
      <point x="171" y="195" type="curve" smooth="yes"/>
      <point x="171" y="166"/>
      <point x="194" y="135"/>
      <point x="247" y="135" type="curve"/>
    </contour>
    <contour>
      <point x="303" y="-5" type="curve"/>
      <point x="303" y="135" type="line"/>
      <point x="345" y="135"/>
      <point x="398" y="149"/>
      <point x="398" y="250" type="curve" smooth="yes"/>
      <point x="398" y="498" type="line" smooth="yes"/>
      <point x="398" y="577"/>
      <point x="381" y="616"/>
      <point x="303" y="616" type="curve"/>
      <point x="303" y="755" type="line"/>
      <point x="437" y="755"/>
      <point x="538" y="700"/>
      <point x="538" y="520" type="curve" smooth="yes"/>
      <point x="538" y="250" type="line" smooth="yes"/>
      <point x="538" y="78"/>
      <point x="458" y="-5"/>
    </contour>
    <contour>
      <point x="30" y="566" type="line"/>
      <point x="30" y="672"/>
      <point x="140" y="755"/>
      <point x="247" y="755" type="curve"/>
      <point x="247" y="617" type="line"/>
      <point x="207" y="617"/>
      <point x="167" y="596"/>
      <point x="167" y="530" type="curve"/>
    </contour>
    <contour>
      <point x="303" y="-6" type="move" name="si_rakar"/>
    </contour>
  </outline>
</glyph>
<glyph name="si_Sha" format="1">
  <advance width="717"/>
  <unicode hex="0DC1"/>
  <outline>
    <contour>
      <point x="373" y="168" type="line"/>
      <point x="373" y="314"/>
      <point x="442" y="338"/>
      <point x="546" y="338" type="curve"/>
      <point x="546" y="235" type="line"/>
      <point x="496" y="235"/>
      <point x="461" y="219"/>
      <point x="461" y="169" type="curve"/>
    </contour>
    <contour>
      <point x="490" y="-8" type="curve"/>
      <point x="490" y="135" type="line"/>
      <point x="542" y="135"/>
      <point x="546" y="174"/>
      <point x="546" y="198" type="curve" smooth="yes"/>
      <point x="546" y="348" type="line" smooth="yes"/>
      <point x="546" y="376"/>
      <point x="542" y="421"/>
      <point x="490" y="421" type="curve"/>
      <point x="490" y="564" type="line"/>
      <point x="629" y="564"/>
      <point x="687" y="474"/>
      <point x="687" y="358" type="curve" smooth="yes"/>
      <point x="687" y="198" type="line" smooth="yes"/>
      <point x="687" y="82"/>
      <point x="629" y="-8"/>
    </contour>
    <contour>
      <point x="227" y="-8" type="line"/>
      <point x="88" y="-8"/>
      <point x="30" y="82"/>
      <point x="30" y="198" type="curve" smooth="yes"/>
      <point x="30" y="358" type="line" smooth="yes"/>
      <point x="30" y="474"/>
      <point x="88" y="564"/>
      <point x="227" y="564" type="curve"/>
      <point x="227" y="421" type="line"/>
      <point x="175" y="421"/>
      <point x="171" y="376"/>
      <point x="171" y="348" type="curve" smooth="yes"/>
      <point x="171" y="198" type="line" smooth="yes"/>
      <point x="171" y="174"/>
      <point x="175" y="135"/>
      <point x="227" y="135" type="curve"/>
    </contour>
    <contour>
      <point x="254" y="241" type="line"/>
      <point x="254" y="350" type="line" smooth="yes"/>
      <point x="254" y="468"/>
      <point x="290" y="564"/>
      <point x="434" y="564" type="curve"/>
      <point x="434" y="421" type="line"/>
      <point x="394" y="421"/>
      <point x="392" y="384"/>
      <point x="393" y="350" type="curve" smooth="yes"/>
      <point x="393" y="343"/>
      <point x="393" y="337"/>
      <point x="393" y="331" type="curve"/>
      <point x="393" y="331"/>
      <point x="393" y="331"/>
      <point x="393" y="331" type="curve" smooth="yes"/>
      <point x="443" y="317"/>
      <point x="457" y="266"/>
      <point x="461" y="196" type="curve" smooth="yes"/>
      <point x="461" y="190"/>
      <point x="461" y="183"/>
      <point x="461" y="176" type="curve" smooth="yes"/>
      <point x="461" y="48"/>
      <point x="400" y="-8"/>
      <point x="283" y="-8" type="curve"/>
      <point x="283" y="135" type="line"/>
      <point x="336" y="135"/>
      <point x="337" y="171"/>
      <point x="337" y="188" type="curve" smooth="yes"/>
      <point x="337" y="230"/>
      <point x="316" y="241"/>
      <point x="288" y="241" type="curve" smooth="yes"/>
    </contour>
  </outline>
</glyph>
<glyph name="si_Ssa" format="1">
  <advance width="660"/>
  <unicode hex="0DC2"/>
  <outline>
    <contour>
      <point x="48" y="460" type="line"/>
      <point x="72" y="537"/>
      <point x="140" y="575"/>
      <point x="211" y="575" type="curve" smooth="yes"/>
      <point x="253" y="575"/>
      <point x="296" y="562"/>
      <point x="332" y="536" type="curve"/>
      <point x="368" y="562"/>
      <point x="411" y="575"/>
      <point x="453" y="575" type="curve" smooth="yes"/>
      <point x="524" y="575"/>
      <point x="592" y="537"/>
      <point x="616" y="460" type="curve"/>
      <point x="498" y="421" type="line"/>
      <point x="494" y="436"/>
      <point x="479" y="451"/>
      <point x="451" y="451" type="curve" smooth="yes"/>
      <point x="436" y="451"/>
      <point x="396" y="443"/>
      <point x="396" y="397" type="curve"/>
      <point x="396" y="378" type="line"/>
      <point x="268" y="378" type="line"/>
      <point x="268" y="397" type="line"/>
      <point x="268" y="443"/>
      <point x="228" y="451"/>
      <point x="213" y="451" type="curve" smooth="yes"/>
      <point x="185" y="451"/>
      <point x="170" y="436"/>
      <point x="166" y="421" type="curve"/>
    </contour>
    <contour>
      <point x="285" y="-12" type="line" smooth="yes"/>
      <point x="108" y="-12"/>
      <point x="30" y="59"/>
      <point x="30" y="202" type="curve"/>
      <point x="170" y="202" type="line"/>
      <point x="170" y="149"/>
      <point x="211" y="123"/>
      <point x="274" y="123" type="curve" smooth="yes"/>
      <point x="386" y="123" type="line" smooth="yes"/>
      <point x="451" y="123"/>
      <point x="490" y="151"/>
      <point x="490" y="202" type="curve"/>
      <point x="630" y="202" type="line"/>
      <point x="630" y="64"/>
      <point x="547" y="-12"/>
      <point x="378" y="-12" type="curve" smooth="yes"/>
    </contour>
    <contour>
      <point x="31" y="251" type="line"/>
      <point x="31" y="377"/>
      <point x="97" y="407"/>
      <point x="194" y="407" type="curve" smooth="yes"/>
      <point x="459" y="407" type="line" smooth="yes"/>
      <point x="567" y="407"/>
      <point x="630" y="381"/>
      <point x="630" y="251" type="curve"/>
      <point x="491" y="251" type="line"/>
      <point x="491" y="265"/>
      <point x="491" y="288"/>
      <point x="462" y="288" type="curve" smooth="yes"/>
      <point x="205" y="288" type="line" smooth="yes"/>
      <point x="172" y="288"/>
      <point x="170" y="264"/>
      <point x="170" y="251" type="curve"/>
    </contour>
    <contour>
      <point x="244" y="168" type="line"/>
      <point x="244" y="277"/>
      <point x="330" y="345"/>
      <point x="392" y="367" type="curve"/>
      <point x="558" y="367" type="line"/>
      <point x="483" y="342"/>
      <point x="378" y="260"/>
      <point x="378" y="170" type="curve"/>
    </contour>
  </outline>
</glyph>
<glyph name="si_Sa" format="1">
  <advance width="687"/>
  <unicode hex="0DC3"/>
  <outline>
    <contour>
      <point x="67" y="160" type="curve" smooth="yes"/>
      <point x="67" y="202" type="line"/>
      <point x="206" y="202" type="line"/>
      <point x="206" y="171" type="line" smooth="yes"/>
      <point x="206" y="145"/>
      <point x="229" y="131"/>
      <point x="252" y="131" type="curve" smooth="yes"/>
      <point x="275" y="131"/>
      <point x="298" y="145"/>
      <point x="298" y="173" type="curve" smooth="yes"/>
      <point x="298" y="202" type="line"/>
      <point x="426" y="202" type="line"/>
      <point x="426" y="173" type="line" smooth="yes"/>
      <point x="426" y="145"/>
      <point x="449" y="131"/>
      <point x="472" y="131" type="curve" smooth="yes"/>
      <point x="495" y="131"/>
      <point x="518" y="145"/>
      <point x="518" y="171" type="curve" smooth="yes"/>
      <point x="518" y="202" type="line"/>
      <point x="657" y="202" type="line"/>
      <point x="657" y="160" type="line" smooth="yes"/>
      <point x="657" y="50"/>
      <point x="585" y="-8"/>
      <point x="475" y="-8" type="curve" smooth="yes"/>
      <point x="432" y="-8"/>
      <point x="389" y="4"/>
      <point x="359" y="36" type="curve"/>
      <point x="330" y="4"/>
      <point x="291" y="-8"/>
      <point x="250" y="-8" type="curve" smooth="yes"/>
      <point x="141" y="-8"/>
      <point x="67" y="58"/>
    </contour>
    <contour>
      <point x="78" y="460" type="line"/>
      <point x="102" y="537"/>
      <point x="170" y="575"/>
      <point x="241" y="575" type="curve" smooth="yes"/>
      <point x="283" y="575"/>
      <point x="326" y="562"/>
      <point x="362" y="536" type="curve"/>
      <point x="398" y="562"/>
      <point x="441" y="575"/>
      <point x="483" y="575" type="curve" smooth="yes"/>
      <point x="554" y="575"/>
      <point x="622" y="537"/>
      <point x="646" y="460" type="curve"/>
      <point x="528" y="421" type="line"/>
      <point x="524" y="436"/>
      <point x="509" y="451"/>
      <point x="481" y="451" type="curve" smooth="yes"/>
      <point x="466" y="451"/>
      <point x="426" y="443"/>
      <point x="426" y="397" type="curve"/>
      <point x="426" y="378" type="line"/>
      <point x="298" y="378" type="line"/>
      <point x="298" y="397" type="line"/>
      <point x="298" y="443"/>
      <point x="258" y="451"/>
      <point x="243" y="451" type="curve" smooth="yes"/>
      <point x="215" y="451"/>
      <point x="200" y="436"/>
      <point x="196" y="421" type="curve"/>
    </contour>
    <contour>
      <point x="30" y="283" type="line"/>
      <point x="30" y="402" type="line"/>
      <point x="503" y="402" type="line" smooth="yes"/>
      <point x="565" y="402"/>
      <point x="657" y="392"/>
      <point x="657" y="279" type="curve" smooth="yes"/>
      <point x="657" y="251" type="line"/>
      <point x="518" y="251" type="line"/>
      <point x="518" y="259"/>
      <point x="516" y="267"/>
      <point x="510" y="273" type="curve" smooth="yes"/>
      <point x="504" y="279"/>
      <point x="495" y="283"/>
      <point x="481" y="283" type="curve" smooth="yes"/>
      <point x="246" y="283" type="line" smooth="yes"/>
      <point x="230" y="283"/>
      <point x="220" y="278"/>
      <point x="214" y="272" type="curve" smooth="yes"/>
      <point x="208" y="265"/>
      <point x="206" y="257"/>
      <point x="206" y="251" type="curve"/>
      <point x="67" y="251" type="line"/>
      <point x="67" y="254"/>
      <point x="67" y="261"/>
      <point x="68" y="268" type="curve" smooth="yes"/>
      <point x="69" y="275"/>
      <point x="70" y="282"/>
      <point x="71" y="283" type="curve"/>
    </contour>
  </outline>
</glyph>
<glyph name="si_Ha" format="1">
  <advance width="716"/>
  <unicode hex="0DC4"/>
  <outline>
    <contour>
      <point x="392" y="344" type="curve"/>
      <point x="425" y="339"/>
      <point x="460" y="305"/>
      <point x="460" y="216" type="curve" smooth="yes"/>
      <point x="460" y="166" type="line" smooth="yes"/>
      <point x="460" y="45"/>
      <point x="399" y="-8"/>
      <point x="282" y="-8" type="curve"/>
      <point x="282" y="135" type="line"/>
      <point x="335" y="135"/>
      <point x="336" y="171"/>
      <point x="336" y="188" type="curve" smooth="yes"/>
      <point x="336" y="204"/>
      <point x="335" y="239"/>
      <point x="287" y="241" type="curve" smooth="yes"/>
      <point x="253" y="241" type="line"/>
      <point x="253" y="350" type="line" smooth="yes"/>
      <point x="253" y="468"/>
      <point x="289" y="564"/>
      <point x="433" y="564" type="curve"/>
      <point x="433" y="421" type="line"/>
      <point x="391" y="421"/>
      <point x="391" y="382"/>
      <point x="392" y="353" type="curve" smooth="yes"/>
      <point x="392" y="350"/>
      <point x="392" y="347"/>
    </contour>
    <contour>
      <point x="489" y="-8" type="curve"/>
      <point x="489" y="135" type="line"/>
      <point x="541" y="135"/>
      <point x="545" y="174"/>
      <point x="545" y="198" type="curve" smooth="yes"/>
      <point x="545" y="348" type="line" smooth="yes"/>
      <point x="545" y="376"/>
      <point x="541" y="421"/>
      <point x="489" y="421" type="curve"/>
      <point x="489" y="564" type="line"/>
      <point x="628" y="564"/>
      <point x="686" y="474"/>
      <point x="686" y="358" type="curve" smooth="yes"/>
      <point x="686" y="198" type="line" smooth="yes"/>
      <point x="686" y="82"/>
      <point x="628" y="-8"/>
    </contour>
    <contour>
      <point x="227" y="-8" type="line"/>
      <point x="88" y="-8"/>
      <point x="30" y="82"/>
      <point x="30" y="198" type="curve" smooth="yes"/>
      <point x="30" y="238" type="line" smooth="yes"/>
      <point x="30" y="339"/>
      <point x="84" y="418"/>
      <point x="213" y="424" type="curve" smooth="yes"/>
      <point x="213" y="424"/>
      <point x="213" y="424"/>
      <point x="213" y="424" type="curve"/>
      <point x="213" y="449"/>
      <point x="201" y="462"/>
      <point x="170" y="462" type="curve" smooth="yes"/>
      <point x="152" y="462"/>
      <point x="135" y="454"/>
      <point x="131" y="437" type="curve"/>
      <point x="32" y="463" type="line"/>
      <point x="55" y="532"/>
      <point x="114" y="564"/>
      <point x="173" y="564" type="curve" smooth="yes"/>
      <point x="245" y="564"/>
      <point x="316" y="516"/>
      <point x="316" y="433" type="curve" smooth="yes"/>
      <point x="316" y="281" type="line"/>
      <point x="227" y="281" type="line" smooth="yes"/>
      <point x="175" y="281"/>
      <point x="171" y="248"/>
      <point x="171" y="228" type="curve" smooth="yes"/>
      <point x="171" y="198" type="line" smooth="yes"/>
      <point x="171" y="174"/>
      <point x="175" y="135"/>
      <point x="227" y="135" type="curve"/>
    </contour>
  </outline>
</glyph>
<glyph name="si_Lla" format="1">
  <advance width="609"/>
  <unicode hex="0DC5"/>
  <outline>
    <contour>
      <point x="115" y="421" type="line"/>
      <point x="115" y="446" type="line"/>
      <point x="115" y="525"/>
      <point x="169" y="575"/>
      <point x="254" y="575" type="curve" smooth="yes"/>
      <point x="285" y="575"/>
      <point x="311" y="565"/>
      <point x="330" y="548" type="curve"/>
      <point x="350" y="570"/>
      <point x="379" y="575"/>
      <point x="401" y="575" type="curve" smooth="yes"/>
      <point x="490" y="575"/>
      <point x="540" y="517"/>
      <point x="540" y="437" type="curve"/>
      <point x="424" y="437" type="line"/>
      <point x="424" y="454"/>
      <point x="413" y="464"/>
      <point x="397" y="464" type="curve" smooth="yes"/>
      <point x="379" y="464"/>
      <point x="371" y="450"/>
      <point x="371" y="437" type="curve"/>
      <point x="286" y="437" type="line"/>
      <point x="285" y="451"/>
      <point x="281" y="465"/>
      <point x="259" y="465" type="curve" smooth="yes"/>
      <point x="237" y="465"/>
      <point x="231" y="449"/>
      <point x="231" y="435" type="curve"/>
    </contour>
    <contour>
      <point x="30" y="77" type="curve" smooth="yes"/>
      <point x="30" y="194" type="line" smooth="yes"/>
      <point x="30" y="322"/>
      <point x="133" y="387"/>
      <point x="216" y="387" type="curve" smooth="yes"/>
      <point x="541" y="388" type="line"/>
      <point x="541" y="256" type="line"/>
      <point x="248" y="256" type="line" smooth="yes"/>
      <point x="203" y="256"/>
      <point x="169" y="228"/>
      <point x="169" y="146" type="curve" smooth="yes"/>
      <point x="169" y="75" type="line" smooth="yes"/>
      <point x="169" y="3"/>
      <point x="210" y="-30"/>
      <point x="283" y="-30" type="curve" smooth="yes"/>
      <point x="283" y="-170" type="line" smooth="yes"/>
      <point x="132" y="-170"/>
      <point x="30" y="-90"/>
    </contour>
    <contour>
      <point x="144" y="216" type="curve"/>
      <point x="235" y="301" type="line"/>
      <point x="235" y="196"/>
      <point x="309" y="185"/>
      <point x="334" y="185" type="curve" smooth="yes"/>
      <point x="354" y="185" type="line" smooth="yes"/>
      <point x="390" y="185"/>
      <point x="419" y="201"/>
      <point x="429" y="222" type="curve"/>
      <point x="542" y="193" type="line"/>
      <point x="499" y="82"/>
      <point x="407" y="67"/>
      <point x="358" y="67" type="curve" smooth="yes"/>
      <point x="325" y="67" type="line" smooth="yes"/>
      <point x="217" y="67"/>
      <point x="144" y="142"/>
    </contour>
    <contour>
      <point x="344" y="-30" type="curve"/>
      <point x="344" y="-170" type="line"/>
      <point x="443" y="-170"/>
      <point x="560" y="-137"/>
      <point x="589" y="2" type="curve"/>
      <point x="454" y="40" type="line"/>
      <point x="441" y="-10"/>
      <point x="398" y="-30"/>
    </contour>
  </outline>
</glyph>
<glyph name="si_Fa" format="1">
  <advance width="650"/>
  <unicode hex="0DC6"/>
  <outline>
    <contour>
      <point x="30" y="251" type="line"/>
      <point x="30" y="396" type="line" smooth="yes"/>
      <point x="30" y="506"/>
      <point x="102" y="564"/>
      <point x="212" y="564" type="curve" smooth="yes"/>
      <point x="255" y="564"/>
      <point x="298" y="552"/>
      <point x="328" y="520" type="curve"/>
      <point x="357" y="552"/>
      <point x="396" y="564"/>
      <point x="437" y="564" type="curve" smooth="yes"/>
      <point x="546" y="564"/>
      <point x="620" y="498"/>
      <point x="620" y="396" type="curve" smooth="yes"/>
      <point x="620" y="396"/>
      <point x="620" y="251"/>
      <point x="620" y="251" type="curve"/>
      <point x="481" y="251" type="line"/>
      <point x="481" y="385" type="line" smooth="yes"/>
      <point x="481" y="411"/>
      <point x="458" y="425"/>
      <point x="435" y="425" type="curve" smooth="yes"/>
      <point x="412" y="425"/>
      <point x="389" y="411"/>
      <point x="389" y="383" type="curve" smooth="yes"/>
      <point x="389" y="383"/>
      <point x="389" y="251"/>
      <point x="389" y="251" type="curve"/>
      <point x="261" y="251" type="line"/>
      <point x="261" y="383" type="line" smooth="yes"/>
      <point x="261" y="411"/>
      <point x="238" y="425"/>
      <point x="215" y="425" type="curve" smooth="yes"/>
      <point x="192" y="425"/>
      <point x="169" y="411"/>
      <point x="169" y="385" type="curve" smooth="yes"/>
      <point x="169" y="385"/>
      <point x="169" y="251"/>
      <point x="169" y="251" type="curve"/>
    </contour>
    <contour>
      <point x="30" y="202" type="curve" smooth="yes"/>
      <point x="169" y="202" type="line" smooth="yes"/>
      <point x="169" y="178"/>
      <point x="173" y="143"/>
      <point x="225" y="143" type="curve"/>
      <point x="225" y="0" type="line"/>
      <point x="86" y="0"/>
      <point x="30" y="86"/>
    </contour>
    <contour>
      <point x="425" y="0" type="curve"/>
      <point x="425" y="143" type="line"/>
      <point x="477" y="143"/>
      <point x="481" y="178"/>
      <point x="481" y="202" type="curve" smooth="yes"/>
      <point x="620" y="202" type="line" smooth="yes"/>
      <point x="620" y="86"/>
      <point x="564" y="0"/>
    </contour>
  </outline>
</glyph>
<glyph name="si_Halant" format="1">
  <advance width="196"/>
  <unicode hex="0DCA"/>
  <outline>
    <contour>
      <point x="30" y="619" type="line"/>
      <point x="30" y="819" type="line"/>
      <point x="166" y="819" type="line"/>
      <point x="166" y="619" type="line"/>
    </contour>
  </outline>
</glyph>
<glyph name="si_MatraAa" format="1">
  <advance width="277"/>
  <unicode hex="0DCF"/>
  <outline>
    <contour>
      <point x="30" y="0" type="line"/>
      <point x="30" y="143" type="line"/>
      <point x="50" y="143" type="line"/>
      <point x="102" y="143"/>
      <point x="106" y="182"/>
      <point x="106" y="206" type="curve" smooth="yes"/>
      <point x="106" y="358" type="line" smooth="yes"/>
      <point x="106" y="386"/>
      <point x="102" y="431"/>
      <point x="50" y="431" type="curve"/>
      <point x="30" y="431" type="line"/>
      <point x="30" y="574" type="line"/>
      <point x="50" y="574" type="line"/>
      <point x="189" y="574"/>
      <point x="247" y="484"/>
      <point x="247" y="368" type="curve" smooth="yes"/>
      <point x="247" y="206" type="line" smooth="yes"/>
      <point x="247" y="90"/>
      <point x="189" y="0"/>
      <point x="50" y="0" type="curve"/>
    </contour>
  </outline>
</glyph>
<glyph name="si_MatraAae" format="1">
  <advance width="277"/>
  <unicode hex="0DD1"/>
  <outline>
    <contour>
      <point x="30" y="216" type="line" smooth="yes"/>
      <point x="30" y="250"/>
      <point x="30" y="262"/>
      <point x="74" y="302" type="curve"/>
      <point x="247" y="302" type="line"/>
      <point x="179" y="250"/>
      <point x="171" y="251"/>
      <point x="171" y="216" type="curve" smooth="yes"/>
      <point x="171" y="202" type="line" smooth="yes"/>
      <point x="171" y="153"/>
      <point x="202" y="143"/>
      <point x="226" y="143" type="curve" smooth="yes"/>
      <point x="235" y="143"/>
      <point x="243" y="143"/>
      <point x="247" y="143" type="curve"/>
      <point x="247" y="0" type="line"/>
      <point x="240" y="0"/>
      <point x="232" y="0"/>
      <point x="225" y="0" type="curve" smooth="yes"/>
      <point x="118" y="0"/>
      <point x="30" y="50"/>
      <point x="30" y="178" type="curve" smooth="yes"/>
    </contour>
    <contour>
      <point x="30" y="412" type="line"/>
      <point x="87" y="464" type="line"/>
      <point x="247" y="464" type="line"/>
      <point x="188" y="412" type="line"/>
    </contour>
    <contour>
      <point x="30" y="464" type="line"/>
      <point x="30" y="574" type="line"/>
      <point x="247" y="574" type="line"/>
      <point x="247" y="464" type="line"/>
    </contour>
    <contour>
      <point x="30" y="302" type="line"/>
      <point x="30" y="412" type="line"/>
      <point x="247" y="412" type="line"/>
      <point x="247" y="302" type="line"/>
    </contour>
  </outline>
</glyph>
<glyph name="si_MatraI" format="1">
  <advance width="0"/>
  <unicode hex="0DD2"/>
  <outline>
    <contour>
      <point x="-573" y="602" type="line"/>
      <point x="-573" y="630" type="line"/>
      <point x="-573" y="723"/>
      <point x="-496" y="789"/>
      <point x="-397" y="789" type="curve"/>
      <point x="-226" y="789" type="line"/>
      <point x="-127" y="789"/>
      <point x="-50" y="723"/>
      <point x="-50" y="630" type="curve"/>
      <point x="-50" y="602" type="line"/>
      <point x="-180" y="602" type="line"/>
      <point x="-180" y="654"/>
      <point x="-215" y="658"/>
      <point x="-242" y="659" type="curve"/>
      <point x="-381" y="659" type="line"/>
      <point x="-408" y="658"/>
      <point x="-443" y="654"/>
      <point x="-443" y="602" type="curve"/>
    </contour>
  </outline>
</glyph>
<glyph name="si_MatraIi" format="1">
  <advance width="0"/>
  <unicode hex="0DD3"/>
  <outline>
    <contour>
      <point x="-168" y="553" type="curve" smooth="yes"/>
      <point x="-233" y="553"/>
      <point x="-286" y="606"/>
      <point x="-286" y="671" type="curve" smooth="yes"/>
      <point x="-286" y="736"/>
      <point x="-233" y="789"/>
      <point x="-168" y="789" type="curve" smooth="yes"/>
      <point x="-103" y="789"/>
      <point x="-50" y="736"/>
      <point x="-50" y="671" type="curve" smooth="yes"/>
      <point x="-50" y="606"/>
      <point x="-103" y="553"/>
    </contour>
    <contour>
      <point x="-609" y="602" type="line"/>
      <point x="-609" y="630" type="line" smooth="yes"/>
      <point x="-609" y="723"/>
      <point x="-532" y="789"/>
      <point x="-433" y="789" type="curve" smooth="yes"/>
      <point x="-168" y="789" type="line" smooth="yes"/>
      <point x="-104" y="789"/>
      <point x="-50" y="737"/>
      <point x="-50" y="671" type="curve"/>
      <point x="-204" y="622" type="line"/>
      <point x="-204" y="657"/>
      <point x="-219" y="659"/>
      <point x="-246" y="659" type="curve" smooth="yes"/>
      <point x="-417" y="659" type="line" smooth="yes"/>
      <point x="-444" y="659"/>
      <point x="-479" y="654"/>
      <point x="-479" y="602" type="curve"/>
    </contour>
  </outline>
</glyph>
<glyph name="si_MatraU" format="1">
  <advance width="0"/>
  <unicode hex="0DD4"/>
  <outline>
    <contour>
      <point x="-170" y="123" type="line"/>
      <point x="-30" y="123" type="line"/>
      <point x="-30" y="-205" type="line"/>
      <point x="-170" y="-205" type="line"/>
    </contour>
    <contour>
      <point x="-240" y="-65" type="line"/>
      <point x="-160" y="-65" type="line"/>
      <point x="-160" y="-205" type="line"/>
      <point x="-240" y="-205" type="line"/>
    </contour>
    <contour>
      <point x="-478" y="-65" type="line"/>
      <point x="-296" y="-65" type="line"/>
      <point x="-296" y="-205" type="line"/>
      <point x="-478" y="-205" type="line"/>
    </contour>
  </outline>
</glyph>
<glyph name="si_MatraUu" format="1">
  <advance width="0"/>
  <unicode hex="0DD6"/>
  <outline>
    <contour>
      <point x="-486" y="-39" type="line"/>
      <point x="-460" y="-58"/>
      <point x="-437" y="-65"/>
      <point x="-415" y="-65" type="curve" smooth="yes"/>
      <point x="-373" y="-65"/>
      <point x="-337" y="-42"/>
      <point x="-298" y="-42" type="curve"/>
      <point x="-298" y="-182" type="line"/>
      <point x="-337" y="-182"/>
      <point x="-373" y="-205"/>
      <point x="-415" y="-205" type="curve" smooth="yes"/>
      <point x="-437" y="-205"/>
      <point x="-460" y="-198"/>
      <point x="-486" y="-179" type="curve"/>
    </contour>
    <contour>
      <point x="-172" y="-205" type="line"/>
      <point x="-172" y="123" type="line"/>
      <point x="-32" y="123" type="line"/>
      <point x="-32" y="-205" type="line"/>
    </contour>
    <contour>
      <point x="-242" y="-42" type="line"/>
      <point x="-225" y="-42"/>
      <point x="-195" y="-46"/>
      <point x="-172" y="-61" type="curve"/>
      <point x="-172" y="-205" type="line"/>
      <point x="-198" y="-187"/>
      <point x="-221" y="-182"/>
      <point x="-242" y="-182" type="curve"/>
    </contour>
  </outline>
</glyph>
<glyph name="si_MatraR" format="1">
  <advance width="375"/>
  <unicode hex="0DD8"/>
  <outline>
    <contour>
      <point x="188" y="0" type="curve" smooth="yes"/>
      <point x="108" y="0"/>
      <point x="30" y="54"/>
      <point x="30" y="157" type="curve" smooth="yes"/>
      <point x="30" y="236"/>
      <point x="74" y="310"/>
      <point x="188" y="310" type="curve" smooth="yes"/>
      <point x="188" y="310"/>
      <point x="188" y="310"/>
      <point x="188" y="310" type="curve"/>
      <point x="188" y="196" type="line"/>
      <point x="188" y="196"/>
      <point x="188" y="196"/>
      <point x="188" y="196" type="curve" smooth="yes"/>
      <point x="164" y="196"/>
      <point x="147" y="183"/>
      <point x="147" y="157" type="curve" smooth="yes"/>
      <point x="147" y="137"/>
      <point x="164" y="118"/>
      <point x="188" y="118" type="curve" smooth="yes"/>
      <point x="208" y="118"/>
      <point x="225" y="133"/>
      <point x="225" y="157" type="curve" smooth="yes"/>
      <point x="225" y="382" type="line"/>
      <point x="224" y="409"/>
      <point x="220" y="444"/>
      <point x="168" y="444" type="curve"/>
      <point x="78" y="444" type="line"/>
      <point x="78" y="574" type="line"/>
      <point x="186" y="574" type="line"/>
      <point x="276" y="574"/>
      <point x="345" y="498"/>
      <point x="345" y="398" type="curve"/>
      <point x="345" y="157" type="line" smooth="yes"/>
      <point x="345" y="50"/>
      <point x="265" y="0"/>
    </contour>
  </outline>
</glyph>
<glyph name="si_MatraLs" format="1">
  <advance width="610"/>
  <unicode hex="0DDF"/>
  <outline>
    <contour>
      <point x="188" y="-8" type="curve" smooth="yes"/>
      <point x="99" y="-8"/>
      <point x="10" y="49"/>
      <point x="10" y="166" type="curve" smooth="yes"/>
      <point x="10" y="202" type="line"/>
      <point x="137" y="202" type="line"/>
      <point x="137" y="166" type="line" smooth="yes"/>
      <point x="137" y="130"/>
      <point x="166" y="111"/>
      <point x="194" y="111" type="curve" smooth="yes"/>
      <point x="221" y="111"/>
      <point x="247" y="129"/>
      <point x="247" y="166" type="curve" smooth="yes"/>
      <point x="247" y="423" type="line" smooth="yes"/>
      <point x="247" y="436"/>
      <point x="239" y="443"/>
      <point x="232" y="443" type="curve" smooth="yes"/>
      <point x="224" y="443"/>
      <point x="216" y="436"/>
      <point x="216" y="423" type="curve" smooth="yes"/>
      <point x="216" y="375" type="line" smooth="yes"/>
      <point x="216" y="319"/>
      <point x="169" y="288"/>
      <point x="120" y="288" type="curve" smooth="yes"/>
      <point x="66" y="288"/>
      <point x="10" y="325"/>
      <point x="10" y="405" type="curve" smooth="yes"/>
      <point x="10" y="564" type="line"/>
      <point x="102" y="564" type="line"/>
      <point x="102" y="443" type="line" smooth="yes"/>
      <point x="102" y="432"/>
      <point x="110" y="426"/>
      <point x="118" y="426" type="curve" smooth="yes"/>
      <point x="125" y="426"/>
      <point x="133" y="432"/>
      <point x="133" y="443" type="curve" smooth="yes"/>
      <point x="133" y="462" type="line" smooth="yes"/>
      <point x="133" y="535"/>
      <point x="190" y="571"/>
      <point x="249" y="571" type="curve" smooth="yes"/>
      <point x="310" y="571"/>
      <point x="372" y="526"/>
      <point x="374" y="437" type="curve" smooth="yes"/>
      <point x="374" y="166" type="line" smooth="yes"/>
      <point x="374" y="52"/>
      <point x="281" y="-8"/>
    </contour>
  </outline>
</glyph>
<glyph name="si_kundaliya" format="1">
  <advance width="1666"/>
  <unicode hex="0DF4"/>
  <outline>
    <contour>
      <point x="552" y="489" type="curve"/>
      <point x="650" y="434" type="line"/>
      <point x="469" y="80"/>
      <point x="440" y="0"/>
      <point x="270" y="0" type="curve"/>
      <point x="150" y="0" type="line"/>
      <point x="150" y="112" type="line"/>
      <point x="270" y="112" type="line"/>
      <point x="377" y="112"/>
      <point x="407" y="193"/>
    </contour>
    <contour>
      <point x="741" y="523" type="line"/>
      <point x="839" y="467" type="line"/>
      <point x="609" y="-1" type="line"/>
      <point x="510" y="55" type="line"/>
    </contour>
    <contour>
      <point x="854" y="396" type="line"/>
      <point x="952" y="341" type="line"/>
      <point x="783" y="-1" type="line"/>
      <point x="684" y="55" type="line"/>
    </contour>
    <contour>
      <point x="958" y="-1" type="line"/>
      <point x="858" y="55" type="line"/>
      <point x="970" y="282" type="line"/>
      <point x="1213" y="135"/>
      <point x="1291" y="113"/>
      <point x="1392" y="113" type="curve" smooth="yes"/>
      <point x="1516" y="113" type="line"/>
      <point x="1516" y="0" type="line"/>
      <point x="1392" y="0" type="line" smooth="yes"/>
      <point x="1262" y="0"/>
      <point x="1153" y="43"/>
      <point x="1017" y="122" type="curve"/>
    </contour>
  </outline>
</glyph>
<glyph name="zwnj" format="1">
  <advance width="0"/>
  <unicode hex="200C"/>
  <outline>
    <contour>
      <point x="-63" y="-1" type="line"/>
      <point x="-63" y="733" type="line"/>
      <point x="59" y="733" type="line"/>
      <point x="59" y="-1" type="line"/>
    </contour>
  </outline>
</glyph>
<glyph name="zwj" format="1">
  <advance width="0"/>
  <unicode hex="200D"/>
  <outline>
    <contour>
      <point x="-60" y="1" type="line"/>
      <point x="-60" y="621" type="line"/>
      <point x="60" y="621" type="line"/>
      <point x="60" y="1" type="line"/>
    </contour>
    <contour>
      <point x="-125" y="489" type="line"/>
      <point x="-189" y="563" type="line"/>
      <point x="119" y="784" type="line"/>
      <point x="175" y="714" type="line"/>
    </contour>
    <contour>
      <point x="184" y="563" type="line"/>
      <point x="130" y="489" type="line"/>
      <point x="-181" y="714" type="line"/>
      <point x="-120" y="784" type="line"/>
    </contour>
  </outline>
</glyph>
<glyph name="emdash" format="1">
  <advance width="906"/>
  <unicode hex="2014"/>
  <outline>
    <contour>
      <point x="26" y="230" type="line"/>
      <point x="26" y="357" type="line"/>
      <point x="880" y="357" type="line"/>
      <point x="880" y="230" type="line"/>
    </contour>
  </outline>
</glyph>
<glyph name="bullet" format="1">
  <advance width="352"/>
  <unicode hex="2022"/>
  <outline>
    <contour>
      <point x="26" y="344" type="curve" smooth="yes"/>
      <point x="26" y="428"/>
      <point x="92" y="496"/>
      <point x="176" y="496" type="curve" smooth="yes"/>
      <point x="260" y="496"/>
      <point x="326" y="428"/>
      <point x="326" y="344" type="curve" smooth="yes"/>
      <point x="326" y="260"/>
      <point x="260" y="194"/>
      <point x="176" y="194" type="curve" smooth="yes"/>
      <point x="92" y="194"/>
      <point x="26" y="260"/>
    </contour>
  </outline>
</glyph>
<glyph name="guilsinglleft" format="1">
  <advance width="338"/>
  <unicode hex="2039"/>
  <outline>
    <contour>
      <point x="26" y="292" type="line"/>
      <point x="157" y="500" type="line"/>
      <point x="312" y="500" type="line"/>
      <point x="181" y="292" type="line"/>
      <point x="312" y="79" type="line"/>
      <point x="157" y="79" type="line"/>
    </contour>
  </outline>
</glyph>
<glyph name="partialdiff" format="1">
  <advance width="420"/>
  <unicode hex="2202"/>
  <outline>
    <contour>
      <point x="28" y="141" type="curve" smooth="yes"/>
      <point x="28" y="376" type="line" smooth="yes"/>
      <point x="28" y="425"/>
      <point x="82" y="516"/>
      <point x="192" y="516" type="curve"/>
      <point x="192" y="398" type="line"/>
      <point x="156" y="398"/>
      <point x="148" y="371"/>
      <point x="148" y="353" type="curve" smooth="yes"/>
      <point x="148" y="154" type="line" smooth="yes"/>
      <point x="148" y="131"/>
      <point x="159" y="117"/>
      <point x="192" y="117" type="curve"/>
      <point x="192" y="-1" type="line"/>
      <point x="80" y="-1"/>
      <point x="28" y="93"/>
    </contour>
    <contour>
      <point x="70" y="647" type="curve"/>
      <point x="70" y="714" type="line"/>
      <point x="291" y="714"/>
      <point x="392" y="630"/>
      <point x="392" y="442" type="curve" smooth="yes"/>
      <point x="392" y="141" type="line" smooth="yes"/>
      <point x="392" y="92"/>
      <point x="341" y="-1"/>
      <point x="233" y="-1" type="curve"/>
      <point x="233" y="117" type="line"/>
      <point x="267" y="117"/>
      <point x="275" y="140"/>
      <point x="275" y="157" type="curve" smooth="yes"/>
      <point x="275" y="353" type="line" smooth="yes"/>
      <point x="275" y="379"/>
      <point x="266" y="398"/>
      <point x="233" y="398" type="curve"/>
      <point x="233" y="516" type="line"/>
      <point x="248" y="516"/>
      <point x="260" y="516"/>
      <point x="273" y="512" type="curve"/>
      <point x="273" y="594"/>
      <point x="182" y="647"/>
    </contour>
  </outline>
</glyph>
<glyph name="uni2206" format="1">
  <advance width="646"/>
  <unicode hex="2206"/>
  <outline>
    <contour>
      <point x="80" y="0" type="line"/>
      <point x="230" y="576" type="line"/>
      <point x="240" y="576" type="line"/>
      <point x="295" y="370" type="line"/>
      <point x="233" y="125" type="line"/>
      <point x="413" y="125" type="line"/>
      <point x="263" y="700" type="line"/>
      <point x="385" y="700" type="line"/>
      <point x="566" y="0" type="line"/>
    </contour>
  </outline>
</glyph>
<glyph name="infinity" format="1">
  <advance width="798"/>
  <unicode hex="221E"/>
  <outline>
    <contour>
      <point x="235" y="0" type="curve"/>
      <point x="235" y="118" type="line"/>
      <point x="253" y="118"/>
      <point x="264" y="122"/>
      <point x="270" y="131" type="curve" smooth="yes"/>
      <point x="336" y="262" type="line"/>
      <point x="272" y="387" type="line" smooth="yes"/>
      <point x="265" y="395"/>
      <point x="254" y="399"/>
      <point x="235" y="399" type="curve"/>
      <point x="235" y="517" type="line"/>
      <point x="306" y="517"/>
      <point x="356" y="483"/>
      <point x="377" y="442" type="curve" smooth="yes"/>
      <point x="402" y="394" type="line"/>
      <point x="426" y="442" type="line" smooth="yes"/>
      <point x="447" y="482"/>
      <point x="497" y="517"/>
      <point x="568" y="517" type="curve"/>
      <point x="568" y="399" type="line"/>
      <point x="549" y="399"/>
      <point x="538" y="395"/>
      <point x="531" y="387" type="curve" smooth="yes"/>
      <point x="467" y="262" type="line"/>
      <point x="533" y="131" type="line" smooth="yes"/>
      <point x="540" y="122"/>
      <point x="550" y="118"/>
      <point x="568" y="118" type="curve"/>
      <point x="568" y="0" type="line"/>
      <point x="500" y="0"/>
      <point x="458" y="33"/>
      <point x="432" y="74" type="curve"/>
      <point x="402" y="134" type="line"/>
      <point x="371" y="74" type="line"/>
      <point x="346" y="33"/>
      <point x="303" y="0"/>
    </contour>
    <contour>
      <point x="194" y="0" type="line"/>
      <point x="82" y="0"/>
      <point x="30" y="94"/>
      <point x="30" y="142" type="curve" smooth="yes"/>
      <point x="30" y="377" type="line" smooth="yes"/>
      <point x="30" y="426"/>
      <point x="84" y="517"/>
      <point x="194" y="517" type="curve"/>
      <point x="194" y="399" type="line"/>
      <point x="158" y="399"/>
      <point x="150" y="378"/>
      <point x="150" y="364" type="curve" smooth="yes"/>
      <point x="150" y="155" type="line" smooth="yes"/>
      <point x="150" y="132"/>
      <point x="161" y="118"/>
      <point x="194" y="118" type="curve"/>
    </contour>
    <contour>
      <point x="609" y="0" type="curve"/>
      <point x="609" y="118" type="line"/>
      <point x="643" y="118"/>
      <point x="651" y="138"/>
      <point x="651" y="153" type="curve" smooth="yes"/>
      <point x="651" y="364" type="line" smooth="yes"/>
      <point x="651" y="385"/>
      <point x="642" y="399"/>
      <point x="609" y="399" type="curve"/>
      <point x="609" y="517" type="line"/>
      <point x="716" y="517"/>
      <point x="768" y="426"/>
      <point x="768" y="377" type="curve" smooth="yes"/>
      <point x="768" y="142" type="line" smooth="yes"/>
      <point x="768" y="93"/>
      <point x="717" y="0"/>
    </contour>
  </outline>
</glyph>
<glyph name="dottedcircle" format="1">
  <advance width="636"/>
  <unicode hex="25CC"/>
  <outline>
    <contour>
      <point x="148" y="484" type="curve" smooth="yes"/>
      <point x="148" y="514"/>
      <point x="172" y="538"/>
      <point x="202" y="538" type="curve" smooth="yes"/>
      <point x="232" y="538"/>
      <point x="256" y="514"/>
      <point x="256" y="484" type="curve" smooth="yes"/>
      <point x="256" y="454"/>
      <point x="232" y="430"/>
      <point x="202" y="430" type="curve" smooth="yes"/>
      <point x="172" y="430"/>
      <point x="148" y="454"/>
    </contour>
    <contour>
      <point x="62" y="398" type="curve" smooth="yes"/>
      <point x="62" y="428"/>
      <point x="86" y="452"/>
      <point x="116" y="452" type="curve" smooth="yes"/>
      <point x="146" y="452"/>
      <point x="170" y="428"/>
      <point x="170" y="398" type="curve" smooth="yes"/>
      <point x="170" y="368"/>
      <point x="146" y="344"/>
      <point x="116" y="344" type="curve" smooth="yes"/>
      <point x="86" y="344"/>
      <point x="62" y="368"/>
    </contour>
    <contour>
      <point x="148" y="72" type="curve" smooth="yes"/>
      <point x="148" y="102"/>
      <point x="172" y="126"/>
      <point x="202" y="126" type="curve" smooth="yes"/>
      <point x="232" y="126"/>
      <point x="256" y="102"/>
      <point x="256" y="72" type="curve" smooth="yes"/>
      <point x="256" y="42"/>
      <point x="232" y="18"/>
      <point x="202" y="18" type="curve" smooth="yes"/>
      <point x="172" y="18"/>
      <point x="148" y="42"/>
    </contour>
    <contour>
      <point x="62" y="158" type="curve" smooth="yes"/>
      <point x="62" y="188"/>
      <point x="86" y="212"/>
      <point x="116" y="212" type="curve" smooth="yes"/>
      <point x="146" y="212"/>
      <point x="170" y="188"/>
      <point x="170" y="158" type="curve" smooth="yes"/>
      <point x="170" y="128"/>
      <point x="146" y="104"/>
      <point x="116" y="104" type="curve" smooth="yes"/>
      <point x="86" y="104"/>
      <point x="62" y="128"/>
    </contour>
    <contour>
      <point x="388" y="72" type="curve" smooth="yes"/>
      <point x="388" y="102"/>
      <point x="412" y="126"/>
      <point x="442" y="126" type="curve" smooth="yes"/>
      <point x="472" y="126"/>
      <point x="496" y="102"/>
      <point x="496" y="72" type="curve" smooth="yes"/>
      <point x="496" y="42"/>
      <point x="472" y="18"/>
      <point x="442" y="18" type="curve" smooth="yes"/>
      <point x="412" y="18"/>
      <point x="388" y="42"/>
    </contour>
    <contour>
      <point x="474" y="158" type="curve" smooth="yes"/>
      <point x="474" y="188"/>
      <point x="498" y="212"/>
      <point x="528" y="212" type="curve" smooth="yes"/>
      <point x="558" y="212"/>
      <point x="582" y="188"/>
      <point x="582" y="158" type="curve" smooth="yes"/>
      <point x="582" y="128"/>
      <point x="558" y="104"/>
      <point x="528" y="104" type="curve" smooth="yes"/>
      <point x="498" y="104"/>
      <point x="474" y="128"/>
    </contour>
    <contour>
      <point x="474" y="398" type="curve" smooth="yes"/>
      <point x="474" y="428"/>
      <point x="498" y="452"/>
      <point x="528" y="452" type="curve" smooth="yes"/>
      <point x="558" y="452"/>
      <point x="582" y="428"/>
      <point x="582" y="398" type="curve" smooth="yes"/>
      <point x="582" y="368"/>
      <point x="558" y="344"/>
      <point x="528" y="344" type="curve" smooth="yes"/>
      <point x="498" y="344"/>
      <point x="474" y="368"/>
    </contour>
    <contour>
      <point x="388" y="484" type="curve" smooth="yes"/>
      <point x="388" y="514"/>
      <point x="412" y="538"/>
      <point x="442" y="538" type="curve" smooth="yes"/>
      <point x="472" y="538"/>
      <point x="496" y="514"/>
      <point x="496" y="484" type="curve" smooth="yes"/>
      <point x="496" y="454"/>
      <point x="472" y="430"/>
      <point x="442" y="430" type="curve" smooth="yes"/>
      <point x="412" y="430"/>
      <point x="388" y="454"/>
    </contour>
    <contour>
      <point x="506" y="278" type="curve" smooth="yes"/>
      <point x="506" y="308"/>
      <point x="530" y="332"/>
      <point x="560" y="332" type="curve" smooth="yes"/>
      <point x="590" y="332"/>
      <point x="614" y="308"/>
      <point x="614" y="278" type="curve" smooth="yes"/>
      <point x="614" y="248"/>
      <point x="590" y="224"/>
      <point x="560" y="224" type="curve" smooth="yes"/>
      <point x="530" y="224"/>
      <point x="506" y="248"/>
    </contour>
    <contour>
      <point x="268" y="40" type="curve" smooth="yes"/>
      <point x="268" y="70"/>
      <point x="292" y="94"/>
      <point x="322" y="94" type="curve" smooth="yes"/>
      <point x="352" y="94"/>
      <point x="376" y="70"/>
      <point x="376" y="40" type="curve" smooth="yes"/>
      <point x="376" y="10"/>
      <point x="352" y="-14"/>
      <point x="322" y="-14" type="curve" smooth="yes"/>
      <point x="292" y="-14"/>
      <point x="268" y="10"/>
    </contour>
    <contour>
      <point x="30" y="278" type="curve" smooth="yes"/>
      <point x="30" y="308"/>
      <point x="54" y="332"/>
      <point x="84" y="332" type="curve" smooth="yes"/>
      <point x="114" y="332"/>
      <point x="138" y="308"/>
      <point x="138" y="278" type="curve" smooth="yes"/>
      <point x="138" y="248"/>
      <point x="114" y="224"/>
      <point x="84" y="224" type="curve" smooth="yes"/>
      <point x="54" y="224"/>
      <point x="30" y="248"/>
    </contour>
    <contour>
      <point x="268" y="516" type="curve" smooth="yes"/>
      <point x="268" y="546"/>
      <point x="292" y="570"/>
      <point x="322" y="570" type="curve" smooth="yes"/>
      <point x="352" y="570"/>
      <point x="376" y="546"/>
      <point x="376" y="516" type="curve" smooth="yes"/>
      <point x="376" y="486"/>
      <point x="352" y="462"/>
      <point x="322" y="462" type="curve" smooth="yes"/>
      <point x="292" y="462"/>
      <point x="268" y="486"/>
    </contour>
  </outline>
</glyph>
<glyph name=".notdef.002" format="1">
  <advance width="631"/>
  <outline>
    <contour>
      <point x="50" y="-93" type="line"/>
      <point x="50" y="754" type="line"/>
      <point x="581" y="754" type="line"/>
      <point x="581" y="-93" type="line"/>
    </contour>
    <contour>
      <point x="261" y="154" type="curve" smooth="yes"/>
      <point x="261" y="177"/>
      <point x="278" y="195"/>
      <point x="300" y="195" type="curve" smooth="yes"/>
      <point x="321" y="195"/>
      <point x="339" y="177"/>
      <point x="339" y="154" type="curve" smooth="yes"/>
      <point x="339" y="132"/>
      <point x="321" y="114"/>
      <point x="300" y="114" type="curve" smooth="yes"/>
      <point x="278" y="114"/>
      <point x="261" y="132"/>
    </contour>
    <contour>
      <point x="157" y="633" type="line"/>
      <point x="157" y="17" type="line"/>
      <point x="474" y="17" type="line"/>
      <point x="474" y="633" type="line"/>
    </contour>
    <contour>
      <point x="213" y="451" type="line"/>
      <point x="228" y="472"/>
      <point x="254" y="500"/>
      <point x="310" y="500" type="curve" smooth="yes"/>
      <point x="377" y="500"/>
      <point x="418" y="456"/>
      <point x="421" y="388" type="curve" smooth="yes"/>
      <point x="421" y="283"/>
      <point x="334" y="273"/>
      <point x="334" y="273" type="curve"/>
      <point x="334" y="215" type="line"/>
      <point x="267" y="215" type="line"/>
      <point x="267" y="332" type="line"/>
      <point x="328" y="333"/>
      <point x="354" y="339"/>
      <point x="354" y="389" type="curve" smooth="yes"/>
      <point x="354" y="416"/>
      <point x="331" y="432"/>
      <point x="306" y="432" type="curve" smooth="yes"/>
      <point x="284" y="432"/>
      <point x="266" y="421"/>
      <point x="255" y="406" type="curve"/>
    </contour>
  </outline>
</glyph>
